#N canvas 559 143 543 375 12;
#X obj 12 12 cnv 15 250 45 empty empty empty 0 -7 0 10 #cccccc #000000;
#X text 24 24 editing;
#X obj -60 12 freeze;
#X obj 48 144 bng 15 250 50 0 empty \$0-bang0 empty 17 7 0 10 #ffffff #f9e0c0 #000000;
#X obj 108 252 bng 15 250 50 0 empty \$0-bang1 empty 17 7 0 10 #ffffff #5d94dd #000000;
#X obj 456 312 bng 15 250 50 0 empty \$0-bang2 empty 17 7 0 10 #ffffff #12936a #000000;
#X obj 312 264 bng 15 250 50 0 empty \$0-bang4 empty 17 7 0 10 #ffffff #6fe723 #000000;
#X obj 384 216 bng 15 250 50 0 empty \$0-bang3 empty 17 7 0 10 #ffffff #3ebfb3 #000000;
#X obj 252 192 bng 15 250 50 0 empty \$0-bang5 empty 17 7 0 10 #ffffff #93d65d #000000;
#X obj 144 204 bng 15 250 50 0 empty \$0-bang6 empty 17 7 0 10 #ffffff #e4a506 #000000;
#X obj 96 180 bng 15 250 50 0 empty \$0-bang7 empty 17 7 0 10 #ffffff #94159c #000000;
#X text 12 72 Select "Edit Mode" in the "Edit" menu.;
#N canvas 602 259 382 461 fun 0;
#X msg 120 300 symbol \$0-bang\$1;
#X obj 36 408 send;
#X obj 120 336 random 256;
#X msg 120 372 foregroundcolor \$1 \$2 \$3;
#X obj 36 216 uzi 8;
#X obj 36 252 t 3 f;
#X obj 36 24 loadbang;
#X obj 36 168 t b b;
#X msg 120 216 \; \$0-bang0 bang;
#X obj 36 96 tgl 15 0 empty empty empty 17 7 0 10 #ffffff #000000 #000000 1 1;
#X obj 36 132 metro 500;
#X obj 36 60 delay 2000;
#X connect 0 0 1 1;
#X connect 2 0 3 0;
#X connect 3 0 1 0;
#X connect 4 2 5 0;
#X connect 5 0 2 0;
#X connect 5 1 0 0;
#X connect 6 0 11 0;
#X connect 7 0 8 0;
#X connect 7 1 4 0;
#X connect 9 0 10 0;
#X connect 10 0 7 0;
#X connect 11 0 9 0;
#X coords 0 0 1 1 250 175 0 0 0;
#X restore 36 324 pd fun;
#X text 12 96 Then add \, connect and build awesome smart things.;
#X f 49;
#X connect 3 0 10 0;
#X connect 4 0 8 0;
#X connect 6 0 7 0;
#X connect 7 0 5 0;
#X connect 8 0 6 0;
#X connect 9 0 4 0;
#X connect 10 0 9 0;
#X coords 0 0 1 1 250 175 0 0 0;
