#N canvas 559 143 561 355 12;
#X obj 12 12 cnv 15 250 45 empty empty empty 0 -7 0 10 #cccccc #000000;
#X text 24 24 editing;
#X obj -60 12 freeze;
#X obj 36 108 bng 15 250 50 0 empty \$0-bang0 empty 17 7 0 10 #ffffff #a8b79e #000000;
#X obj 120 204 bng 15 250 50 0 empty \$0-bang1 empty 17 7 0 10 #ffffff #2de6db #000000;
#X obj 468 276 bng 15 250 50 0 empty \$0-bang2 empty 17 7 0 10 #ffffff #3d6f94 #000000;
#X obj 264 240 bng 15 250 50 0 empty \$0-bang4 empty 17 7 0 10 #ffffff #6f351c #000000;
#X obj 360 180 bng 15 250 50 0 empty \$0-bang3 empty 17 7 0 10 #ffffff #ba1974 #000000;
#X obj 240 180 bng 15 250 50 0 empty \$0-bang5 empty 17 7 0 10 #ffffff #f6d88c #000000;
#X obj 144 168 bng 15 250 50 0 empty \$0-bang6 empty 17 7 0 10 #ffffff #90b48c #000000;
#X obj 60 180 bng 15 250 50 0 empty \$0-bang7 empty 17 7 0 10 #ffffff #33fd78 #000000;
#N canvas 602 259 382 461 fun 0;
#X msg 120 300 symbol \$0-bang\$1;
#X obj 36 408 send;
#X obj 120 336 random 256;
#X msg 120 372 foregroundcolor \$1 \$2 \$3;
#X obj 36 216 uzi 8;
#X obj 36 252 t 3 f;
#X obj 36 24 loadbang;
#X obj 36 168 t b b;
#X msg 120 216 \; \$0-bang0 bang;
#X obj 36 96 tgl 15 0 empty empty empty 17 7 0 10 #ffffff #000000 #000000 0 1;
#X obj 36 132 metro 500;
#X obj 36 60 delay 2000;
#X connect 0 0 1 1;
#X connect 2 0 3 0;
#X connect 3 0 1 0;
#X connect 4 2 5 0;
#X connect 5 0 2 0;
#X connect 5 1 0 0;
#X connect 6 0 11 0;
#X connect 7 0 8 0;
#X connect 7 1 4 0;
#X connect 9 0 10 0;
#X connect 10 0 7 0;
#X connect 11 0 9 0;
#X coords 0 0 1 1 250 175 0 0 0;
#X restore 36 300 pd fun;
#X text 12 72 Select "Edit Mode" in the "Edit" menu (to make awesome things).;
#X f 63;
#X connect 3 0 10 0;
#X connect 4 0 8 0;
#X connect 6 0 7 0;
#X connect 7 0 5 0;
#X connect 8 0 6 0;
#X connect 9 0 4 0;
#X connect 10 0 9 0;
#X coords 0 0 1 1 250 175 0 0 0;
