#N canvas 484 119 543 537 12;
#X obj 12 12 cnv 15 250 45 empty empty empty 0 -7 0 10 #cccccc #000000;
#X text 24 24 editing;
#X obj -60 12 freeze;
#X obj 36 372 metro 50;
#X obj 96 408 + 1;
#X obj 36 408 f;
#X obj 36 336 tgl 15 1 empty empty empty 17 7 0 10 #ffffff #000000 #000000 0 1;
#X obj 384 168 bng 15 250 50 0 empty \$0-bang0 empty 17 7 0 10 #ffffff #eecee4 #000000;
#X obj 408 168 bng 15 250 50 0 empty \$0-bang1 empty 17 7 0 10 #ffffff #ff0906 #000000;
#X obj 432 168 bng 15 250 50 0 empty \$0-bang2 empty 17 7 0 10 #ffffff #6c1afa #000000;
#X obj 432 216 bng 15 250 50 0 empty \$0-bang4 empty 17 7 0 10 #ffffff #91437a #000000;
#X obj 432 192 bng 15 250 50 0 empty \$0-bang3 empty 17 7 0 10 #ffffff #83220d #000000;
#X obj 408 216 bng 15 250 50 0 empty \$0-bang5 empty 17 7 0 10 #ffffff #a8eadc #000000;
#X obj 384 216 bng 15 250 50 0 empty \$0-bang6 empty 17 7 0 10 #ffffff #a0ff3a #000000;
#X obj 384 192 bng 15 250 50 0 empty \$0-bang7 empty 17 7 0 10 #ffffff #7e4f03 #000000;
#X text 12 72 Select "Edit Mode" in the "Edit" menu.;
#N canvas 171 71 369 361 fun 0;
#X msg 108 156 symbol \$0-bang\$1;
#X obj 36 300 send;
#X obj 108 120 % 8;
#X obj 36 72 t b 3 f;
#X obj 108 204 random 256;
#X obj 36 36 inlet;
#X msg 108 240 foregroundcolor \$1 \$2 \$3;
#X connect 0 0 1 1;
#X connect 2 0 0 0;
#X connect 3 0 1 0;
#X connect 3 1 4 0;
#X connect 3 2 2 0;
#X connect 4 0 6 0;
#X connect 5 0 3 0;
#X connect 6 0 1 0;
#X coords 0 0 1 1 250 175 0 0 0;
#X restore 36 480 pd fun;
#X floatatom 36 444 5 0 0 1 - - -;
#X f 5;
#X text 12 96 Then add \, move \, and connect objects to do awesome "patches".;
#X f 60;
#X obj 36 216 loadbang;
#X obj 36 252 delay 2000;
#X obj 36 288 t 1;
#X connect 3 0 5 0;
#X connect 4 0 5 1;
#X connect 5 0 4 0;
#X connect 5 0 17 0;
#X connect 6 0 3 0;
#X connect 17 0 16 0;
#X connect 19 0 20 0;
#X connect 20 0 21 0;
#X connect 21 0 6 0;
#X coords 0 0 1 1 250 175 0 0 0;
