#N canvas 680 149 441 387 12;
#X obj 12 12 cnv 15 250 45 empty empty empty 0 -7 0 10 #cccccc #000000;
#X text 24 24 editing;
#X obj -60 12 freeze;
#X obj 36 216 metro 50;
#X obj 84 252 + 1;
#X obj 36 252 f;
#X obj 36 180 tgl 15 0 empty empty empty 17 7 0 10 #ffffff #000000 #000000 0 1;
#X obj 348 228 bng 15 250 50 0 empty \$0-bang0 empty 17 7 0 10 #ffffff #aa8b3c #000000;
#X obj 336 264 bng 15 250 50 0 empty \$0-bang1 empty 17 7 0 10 #ffffff #ee7c18 #000000;
#X obj 300 276 bng 15 250 50 0 empty \$0-bang2 empty 17 7 0 10 #ffffff #8c7ed1 #000000;
#X obj 252 228 bng 15 250 50 0 empty \$0-bang4 empty 17 7 0 10 #ffffff #7800bb #000000;
#X obj 264 264 bng 15 250 50 0 empty \$0-bang3 empty 17 7 0 10 #ffffff #0fe76b #000000;
#X obj 264 192 bng 15 250 50 0 empty \$0-bang5 empty 17 7 0 10 #ffffff #80a528 #000000;
#X obj 300 180 bng 15 250 50 0 empty \$0-bang6 empty 17 7 0 10 #ffffff #99936c #000000;
#X obj 336 192 bng 15 250 50 0 empty \$0-bang7 empty 17 7 0 10 #ffffff #73618a #000000;
#X text 12 72 Select "Edit Mode" in the "Edit" menu.;
#N canvas 194 119 399 328 fun 0;
#X msg 132 156 symbol \$0-bang\$1;
#X obj 36 276 send;
#X obj 132 120 % 8;
#X obj 132 192 random 256;
#X obj 36 36 inlet;
#X msg 132 228 foregroundcolor \$1 \$2 \$3;
#X obj 36 72 t b 3 f;
#N canvas 566 145 423 450 position 0;
#X obj 36 180 uzi 8;
#X obj 36 348 pack f f f;
#X obj 36 228 t f f f;
#X msg 36 384 \; \$0-bang\$1 position \$2 \$3;
#X obj 36 132 t b f;
#X obj 144 300 expr 300+(cos($f1*pi/4)*$f2);
#X obj 144 264 expr 228+(sin($f1*pi/4)*$f2);
#X obj 36 96 * 12;
#X obj 36 24 inlet;
#X obj 36 60 + 1;
#X connect 0 2 2 0;
#X connect 1 0 3 0;
#X connect 2 0 1 0;
#X connect 2 1 5 0;
#X connect 2 2 6 0;
#X connect 4 0 0 0;
#X connect 4 1 5 1;
#X connect 4 1 6 1;
#X connect 5 0 1 1;
#X connect 6 0 1 2;
#X connect 7 0 4 0;
#X connect 8 0 9 0;
#X connect 9 0 7 0;
#X coords 0 0 1 1 250 175 0 0 0;
#X restore 132 72 pd position;
#X obj 132 36 inlet;
#X connect 0 0 1 1;
#X connect 2 0 0 0;
#X connect 3 0 5 0;
#X connect 4 0 6 0;
#X connect 5 0 1 0;
#X connect 6 0 1 0;
#X connect 6 1 3 0;
#X connect 6 2 2 0;
#X connect 8 0 7 0;
#X coords 0 0 1 1 250 175 0 0 0;
#X restore 36 336 pd fun;
#X floatatom 36 288 5 0 0 1 - - -;
#X f 5;
#X obj 36 144 loadbang;
#X obj 144 180 vradio 15 1 1 8 empty empty empty 17 7 0 10 #ffffff #000000 #000000 3;
#X text 12 96 Then add \, move \, connect to make awesome things.;
#X f 48;
#X connect 3 0 5 0;
#X connect 4 0 5 1;
#X connect 5 0 4 0;
#X connect 5 0 17 0;
#X connect 6 0 3 0;
#X connect 17 0 16 0;
#X connect 18 0 6 0;
#X connect 19 0 16 1;
#X coords 0 0 1 1 250 175 0 0 0;
