#N canvas 304 22 519 636 12;
#X msg 204 108 5 6;
#X msg 36 108 5;
#X obj 36 144 + 9;
#X obj 120 144 +;
#X obj 204 144 unpack;
#X obj 348 180 print;
#X obj 348 144 pack 34 78;
#X msg 120 108 5 6;
#X obj 36 552 +;
#X msg 36 468 1.2 3.4;
#X msg 72 504 5 6;
#X obj 12 12 cnv 15 250 45 empty empty empty 0 -7 0 10 #cccccc #000000;
#X text 24 24 messages;
#X obj -60 12 freeze;
#X text 12 72 Most messages are just numbers or short lists of numbers.;
#X floatatom 36 180 5 0 0 1 - - -;
#X f 5;
#X floatatom 120 180 5 0 0 1 - - -;
#X f 5;
#X floatatom 204 180 5 0 0 1 - - -;
#X f 5;
#X floatatom 264 180 5 0 0 1 - - -;
#X f 5;
#X obj 36 336 pack f f f;
#X obj 36 384 print;
#X obj 204 336 pack f f f;
#X msg 36 264 1 2 3;
#X obj 204 300 t 1 2 3;
#X f 10;
#X obj 204 264 bng 15 250 50 0 empty empty empty 17 7 0 10 #ffffff #000000 #000000;
#X obj 204 384 print;
#X floatatom 348 108 5 0 0 1 - - -;
#X f 5;
#X text 12 432 All numbers are floating-point.;
#X floatatom 36 588 5 0 0 1 - - -;
#X f 5;
#X text 12 228 Notice that a list is usually spread out over the inlets.;
#X f 57;
#X connect 0 0 4 0;
#X connect 1 0 2 0;
#X connect 2 0 15 0;
#X connect 3 0 16 0;
#X connect 4 0 17 0;
#X connect 4 1 18 0;
#X connect 6 0 5 0;
#X connect 7 0 3 0;
#X connect 8 0 28 0;
#X connect 9 0 8 0;
#X connect 10 0 8 0;
#X connect 19 0 20 0;
#X connect 21 0 25 0;
#X connect 22 0 19 0;
#X connect 23 0 21 0;
#X connect 23 1 21 1;
#X connect 23 2 21 2;
#X connect 24 0 23 0;
#X connect 26 0 6 0;
#X coords 0 0 1 1 250 175 0 0 0;
