#N canvas 442 72 961 642 12;
#X msg 204 108 5 6;
#X msg 36 108 5;
#X obj 36 144 + 9;
#X obj 120 144 +;
#X obj 204 144 unpack;
#X msg 348 108 5;
#X obj 348 180 print;
#X obj 348 144 pack 34 78;
#X msg 120 108 5 6;
#X floatatom 192 528 0 0 0 0 - - -;
#X obj 192 504 +;
#X msg 192 456 1.2 3.4;
#X msg 204 480 5 6;
#X text 36 408 Unlike Max \, in Pd all numbers are floating point. Numbers whose values happen to be integers are displayed without decimal points.;
#X text 36 564 For more on messages \, get help on any message box by right-clicking.;
#X text 12 228 If you send a list to an object with more than one inlet \, the items in the list are spread out over the inlets \, as seen in the 5+6 example above.;
#X obj 12 12 cnv 15 250 45 empty empty empty 0 -7 0 10 #cccccc #000000;
#X text 24 24 messages;
#X obj -60 12 freeze;
#X text 12 72 Most messages are just numbers or short lists of numbers.;
#X floatatom 36 180 5 0 0 1 - - -;
#X f 5;
#X floatatom 120 180 5 0 0 1 - - -;
#X f 5;
#X floatatom 204 180 5 0 0 1 - - -;
#X f 5;
#X floatatom 264 180 5 0 0 1 - - -;
#X f 5;
#X connect 0 0 4 0;
#X connect 1 0 2 0;
#X connect 2 0 20 0;
#X connect 3 0 21 0;
#X connect 4 0 22 0;
#X connect 4 1 23 0;
#X connect 5 0 7 0;
#X connect 7 0 6 0;
#X connect 8 0 3 0;
#X connect 10 0 9 0;
#X connect 11 0 10 0;
#X connect 12 0 10 0;
#X coords 0 0 1 1 250 175 0 0 0;
