#N canvas 747 176 506 259 12;
#X obj 12 12 cnv 15 275 45 empty empty empty 0 -7 0 10 #cccccc #000000;
#X obj -60 12 freeze;
#X text 24 24 text;
#X obj 36 108 qlist;
#X obj 36 132 textfile;
#X obj 36 156 text;
#X obj 36 180 struct \$0-foo text z;
#X text 12 72 Text is NOT a text (as in a book) but is a collection of messages.;
#X f 67;
#X text 12 216 Ponctuations have meanings not compatible with literature.;
#X f 58;
#X coords 0 0 1 1 250 175 0 0 0;
