#N canvas 449 93 752 704 12;
#N canvas 667 66 773 772 about-lists 0;
#X obj 50 629 print message;
#X msg 50 442 list x.wav 44100;
#X msg 50 600 read \$1 \$2;
#X msg 50 471 set x.wav 44100;
#X msg 67 571 set \, add2 read \, adddollar 1 \, adddollar 2;
#X msg 50 501 x.wav 44100;
#X obj 67 545 loadbang;
#X text 155 548 reset message as it was;
#X text 207 442 good;
#X text 196 473 bad;
#X text 162 501 ugly;
#X text 48 180 The distinction becomes visible \, and ugly \, when the leading item in a data-holding message is a symbol. In this case \, to disambiguate it from the other sort \, the printed form of the message has a selector \, "list" or "symbol" prepended to it. Underneath \, there is always a selector in fromt of data messages \, but it is implied if the first data item is a number.;
#X msg 411 465 list 44100 x.wav;
#X msg 424 490 44100 x.wav;
#X obj 411 516 print number-first;
#X text 405 437 these two are equivalent:;
#X text 50 298 In the example below \, the top message sets \$1 to "x.wav" and \$2 to 44100 in the "read" message. The lower message box outputs the message "read x.wav 44100". The "set" message changes the content of the message box itself (click on the longer message box below to repair the damage.) The "ugly" message \, since it is neither "list" nor "set" \, gets interpreted in an arbitrary (and probably inappropriate!) way.;
#X text 47 12 Messages in Pd are somewhat artificially divided into two classes. First are data-holding messages (bang \, float \, symbol \, list) which are the primary way of communicating between objects. Second is "everything else" (you could call them out-of-band messages or metamessages) that describe changes in configuration \, read and write files \, quit Pd \, etc. These are provided so that complex objects don't need to have 100 separate inlets for every possible functionality. It's not clear whether this was a good design choice \, but it's entrenched.;
#X connect 1 0 2 0;
#X connect 2 0 0 0;
#X connect 3 0 2 0;
#X connect 4 0 2 0;
#X connect 5 0 2 0;
#X connect 6 0 4 0;
#X connect 12 0 14 0;
#X connect 13 0 14 0;
#X coords 0 0 1 1 250 175 0 0 0;
#X restore 48 588 pd about-lists;
#X obj 264 408 prepend;
#X obj 516 444 list append;
#X obj 264 444 list trim;
#X obj 516 408 pack;
#X obj 516 480 1 2 3 4;
#X text 264 480 make anything;
#X text 516 564 make list;
#X obj 516 516 list store;
#X obj 528 624 list group 4;
#X obj 12 12 cnv 15 250 45 empty empty empty 0 -7 0 10 #cccccc #000000;
#X obj -60 12 freeze;
#X text 12 72 Message is a vague term. It can be the message object.;
#X f 54;
#X msg 36 108;
#X text 24 24 taxonomy;
#X text 12 144 Or a generic for something sent between objects. It might be confusing.;
#X f 71;
#X coords 0 0 1 1 250 175 0 0 0;
