#N canvas 513 41 657 794 12;
#X obj 12 12 cnv 15 250 45 empty empty empty 0 -7 0 10 #cccccc #000000;
#X obj -60 12 freeze;
#X text 24 24 taxonomy;
#X msg 36 108 Beam me up Scotty;
#N canvas 0 22 1107 779 more 0;
#N canvas 667 66 773 772 about-lists 0;
#X obj 50 629 print message;
#X msg 50 442 list x.wav 44100;
#X msg 50 600 read \$1 \$2;
#X msg 50 471 set x.wav 44100;
#X msg 67 571 set \, add2 read \, adddollar 1 \, adddollar 2;
#X msg 50 501 x.wav 44100;
#X obj 67 545 loadbang;
#X text 155 548 reset message as it was;
#X text 207 442 good;
#X text 196 473 bad;
#X text 162 501 ugly;
#X text 48 180 The distinction becomes visible \, and ugly \, when the leading item in a data-holding message is a symbol. In this case \, to disambiguate it from the other sort \, the printed form of the message has a selector \, "list" or "symbol" prepended to it. Underneath \, there is always a selector in fromt of data messages \, but it is implied if the first data item is a number.;
#X msg 411 465 list 44100 x.wav;
#X msg 424 490 44100 x.wav;
#X obj 411 516 print number-first;
#X text 405 437 these two are equivalent:;
#X text 50 298 In the example below \, the top message sets \$1 to "x.wav" and \$2 to 44100 in the "read" message. The lower message box outputs the message "read x.wav 44100". The "set" message changes the content of the message box itself (click on the longer message box below to repair the damage.) The "ugly" message \, since it is neither "list" nor "set" \, gets interpreted in an arbitrary (and probably inappropriate!) way.;
#X text 47 12 Messages in Pd are somewhat artificially divided into two classes. First are data-holding messages (bang \, float \, symbol \, list) which are the primary way of communicating between objects. Second is "everything else" (you could call them out-of-band messages or metamessages) that describe changes in configuration \, read and write files \, quit Pd \, etc. These are provided so that complex objects don't need to have 100 separate inlets for every possible functionality. It's not clear whether this was a good design choice \, but it's entrenched.;
#X connect 1 0 2 0;
#X connect 2 0 0 0;
#X connect 3 0 2 0;
#X connect 4 0 2 0;
#X connect 5 0 2 0;
#X connect 6 0 4 0;
#X connect 12 0 14 0;
#X connect 13 0 14 0;
#X coords 0 0 1 1 250 175 0 0 0;
#X restore 36 264 pd about-lists;
#X obj 60 132 prepend;
#X obj 240 84 list append;
#X obj 60 168 list trim;
#X obj 240 48 pack;
#X obj 240 120 1 2 3 4;
#X text 60 204 make anything;
#X text 240 204 make list;
#X obj 240 156 list store;
#X obj 252 264 list group 4;
#X obj 612 204 bng 15 250 50 0 empty empty empty 17 7 0 10 #ffffff #000000 #000000;
#X obj 636 204 bng 15 250 50 0 empty empty empty 17 7 0 10 #ffffff #000000 #000000;
#X obj 660 204 bng 15 250 50 0 empty empty empty 17 7 0 10 #ffffff #000000 #000000;
#X obj 684 204 bng 15 250 50 0 empty empty empty 17 7 0 10 #ffffff #000000 #000000;
#X obj 708 204 bng 15 250 50 0 empty empty empty 17 7 0 10 #ffffff #000000 #000000;
#X obj 552 228 print;
#X obj 552 156 route b f s l a;
#X f 15;
#X connect 16 0 10 0;
#X connect 16 0 15 0;
#X connect 16 1 11 0;
#X connect 16 1 15 0;
#X connect 16 2 12 0;
#X connect 16 2 15 0;
#X connect 16 3 13 0;
#X connect 16 3 15 0;
#X connect 16 4 14 0;
#X connect 16 4 15 0;
#X coords 0 0 1 1 250 175 0 0 0;
#X restore 516 516 pd more;
#X obj 36 216 print;
#X obj 36 180 pack 1 2 three;
#X msg 36 288 1 2 three;
#X obj 36 432 print;
#X obj 36 396 pack 1 Spock p;
#X text 12 324 An atom can be a number \, a symbol or a pointer.;
#X msg 36 504 bang;
#X obj 36 636 print;
#X text 216 504 A bang.;
#X msg 36 528 1;
#X text 216 528 A number.;
#X msg 36 552 symbol Uhura;
#X text 216 552 A symbol.;
#N canvas 0 22 500 350 again 0;
#X coords 0 0 1 1 250 175 0 0 0;
#X restore 516 540 pd again;
#X msg 36 576 list 1 2 three;
#X text 216 576 A list.;
#X msg 36 600 Beam me up;
#X text 216 600 Anything.;
#X text 12 468 The type of the message is defined by its first atom.;
#X msg 36 708 list 1 2 three;
#X msg 216 708 1 2 three;
#X obj 36 744 print;
#X obj 216 744 print;
#X text 12 72 Message is a vague term. It can be the message object.;
#X f 57;
#X text 12 144 But most of the times it refers only to "something sendable".;
#X f 61;
#X text 12 252 Such message is composed of atoms ('3' in that case).;
#X obj 36 360 bng 15 250 50 0 empty empty empty 17 7 0 10 #ffffff #000000 #000000;
#X text 12 672 The list selector is implicit for multiple atoms starting with a number.;
#X f 72;
#X connect 6 0 5 0;
#X connect 9 0 8 0;
#X connect 11 0 12 0;
#X connect 14 0 12 0;
#X connect 16 0 12 0;
#X connect 19 0 12 0;
#X connect 21 0 12 0;
#X connect 24 0 26 0;
#X connect 25 0 27 0;
#X connect 31 0 9 0;
#X coords 0 0 1 1 250 175 0 0 0;
