#N canvas 600 39 656 758 12;
#X obj 12 12 cnv 15 250 45 empty empty empty 0 -7 0 10 #cccccc #000000;
#X obj -60 12 freeze;
#X text 24 24 taxonomy;
#X msg 36 108 Beam me up Scotty;
#N canvas 573 83 451 403 more 0;
#X obj 108 312 bng 15 250 50 0 empty empty empty 17 7 0 10 #ffffff #000000 #000000;
#X obj 132 312 bng 15 250 50 0 empty empty empty 17 7 0 10 #ffffff #000000 #000000;
#X obj 156 312 bng 15 250 50 0 empty empty empty 17 7 0 10 #ffffff #000000 #000000;
#X obj 180 312 bng 15 250 50 0 empty empty empty 17 7 0 10 #ffffff #000000 #000000;
#X obj 204 312 bng 15 250 50 0 empty empty empty 17 7 0 10 #ffffff #000000 #000000;
#X obj 228 312 bng 15 250 50 0 empty empty empty 17 7 0 10 #ffffff #000000 #000000;
#X obj 36 48 bng 15 250 50 0 empty empty empty 17 7 0 10 #ffffff #000000 #000000;
#X msg 36 72 3.14;
#X text 12 12 Messages can be routed according to their type.;
#X obj 36 348 print;
#X msg 36 96 symbol Kirk;
#X obj 72 204 text;
#X obj 72 180 bng 15 250 50 0 empty empty empty 17 7 0 10 #ffffff #000000 #000000;
#X obj 36 252 route b f s l a p;
#X f 21;
#X msg 36 120 1 2 three;
#X msg 36 144 Beam me up Scotty;
#X connect 6 0 13 0;
#X connect 7 0 13 0;
#X connect 10 0 13 0;
#X connect 11 0 13 0;
#X connect 12 0 11 0;
#X connect 13 0 0 0;
#X connect 13 0 9 0;
#X connect 13 1 1 0;
#X connect 13 1 9 0;
#X connect 13 2 2 0;
#X connect 13 2 9 0;
#X connect 13 3 3 0;
#X connect 13 3 9 0;
#X connect 13 4 4 0;
#X connect 13 4 9 0;
#X connect 13 5 5 0;
#X connect 13 5 9 0;
#X connect 14 0 13 0;
#X connect 15 0 13 0;
#X coords 0 0 1 1 250 175 0 0 0;
#X restore 516 468 pd more;
#X obj 36 180 pack 1 2 three;
#X msg 36 252 1 2 three;
#X obj 36 396 print;
#X obj 36 360 pack 1 Spock p;
#X text 12 288 An atom can be a number \, a symbol or a pointer.;
#X msg 36 468 bang;
#X obj 36 600 print;
#X text 216 468 A bang.;
#X msg 36 492 1;
#X text 216 492 A number.;
#X msg 36 516 symbol Uhura;
#X text 216 516 A symbol.;
#X msg 36 540 list 1 2 three;
#X text 216 540 A list.;
#X text 216 564 Anything.;
#X msg 36 672 list 1 2 three;
#X msg 216 672 1 2 three;
#X obj 36 708 print;
#X obj 216 708 print;
#X obj 36 324 bng 15 250 50 0 empty empty empty 17 7 0 10 #ffffff #000000 #000000;
#X text 12 72 Message is a vague term. It can be the message object...;
#X f 57;
#X text 12 144 ...but most of the times it refers only to "something sendable".;
#X f 64;
#N canvas 282 48 689 593 again 0;
#X obj 240 168 prepend;
#X obj 240 348 list append;
#X obj 444 168 list trim;
#X msg 240 48 list uno dos tres;
#X obj 240 204 print;
#X msg 36 72 1 2 three;
#X obj 36 204 print;
#X obj 444 204 print;
#X msg 36 96 uno dos tres;
#X obj 36 168 prepend foo;
#X msg 36 120 list eins zwei drei;
#X floatatom 36 48 5 0 0 1 - - -;
#X f 5;
#X msg 444 48 list hasta la vista baby;
#X text 12 252 Various approach to make "list" messages.;
#X text 12 12 Various approach to make "anything" messages.;
#X obj 36 348 pack foo 1;
#X msg 36 288 bar;
#X obj 36 384 print;
#X obj 240 384 print;
#X msg 240 288 Eat my shorts!;
#X obj 444 384 print;
#X obj 444 348 list store zwei drei;
#X msg 444 288 eins;
#X obj 36 504 list group 6;
#X msg 36 444 Holy \, Priceless \, Collection \, Of \, Etruscan \, Snoods;
#X obj 36 540 print;
#X connect 0 0 4 0;
#X connect 1 0 18 0;
#X connect 2 0 7 0;
#X connect 3 0 0 0;
#X connect 5 0 9 0;
#X connect 8 0 9 0;
#X connect 9 0 6 0;
#X connect 10 0 9 0;
#X connect 11 0 9 0;
#X connect 12 0 2 0;
#X connect 15 0 17 0;
#X connect 16 0 15 0;
#X connect 19 0 1 0;
#X connect 21 0 20 0;
#X connect 22 0 21 0;
#X connect 23 0 25 0;
#X connect 24 0 23 0;
#X coords 0 0 1 1 250 175 0 0 0;
#X restore 516 492 pd again;
#X msg 36 564 Beam me up Scotty;
#X text 12 216 Such message is composed of atoms (three in the case below).;
#X f 62;
#X text 12 432 The type of a message is defined by its first atom.;
#X text 12 636 The list selector is implicit with multiple atoms starting with a number.;
#X f 74;
#X connect 8 0 7 0;
#X connect 10 0 11 0;
#X connect 13 0 11 0;
#X connect 15 0 11 0;
#X connect 17 0 11 0;
#X connect 20 0 22 0;
#X connect 21 0 23 0;
#X connect 24 0 8 0;
#X connect 28 0 11 0;
#X coords 0 0 1 1 250 175 0 0 0;
