#N canvas 496 198 594 318 12;
#X obj 12 12 cnv 15 250 45 empty empty empty 0 -7 0 10 #cccccc #000000;
#X obj -60 12 freeze;
#X text 24 24 text;
#X obj 36 108 qlist;
#X obj 36 144 textfile;
#X obj 36 180 text;
#X obj 36 216 struct \$0-foo text z;
#X text 12 264 Ponctuations have special meanings not compatible with literature.;
#X f 66;
#X text 12 72 Text is NOT a text (as in a book) but is a collection of messages.;
#X f 67;
#X coords 0 0 1 1 250 175 0 0 0;
