#N canvas 357 25 734 596 12;
#X msg 36 108 1;
#X obj 120 192 + 1;
#X obj 36 144 t f f f f;
#X f 30;
#X obj 84 456 + 1;
#X obj 36 456 f;
#X obj 12 12 cnv 15 250 45 empty empty empty 0 -7 0 10 #cccccc #000000;
#X obj -60 12 freeze;
#X text 12 72 Control operations occurs depth first.;
#X text 24 24 overflow;
#X obj 288 264 print A;
#X obj 204 288 print B;
#X obj 120 312 print C;
#X obj 36 336 print D;
#X obj 288 192 s \$0-pipe;
#X obj 288 228 r \$0-pipe;
#N canvas 298 135 158 246 foo 0;
#X obj 36 72 + 1;
#X obj 36 108 + 1;
#X obj 36 144 + 1;
#X obj 36 36 inlet;
#X obj 36 180 outlet;
#X connect 0 0 1 0;
#X connect 1 0 2 0;
#X connect 2 0 4 0;
#X connect 3 0 0 0;
#X coords 0 0 1 1 250 175 0 0 0;
#X restore 204 192 pd foo;
#X text 12 540 In practice it is aborted ("Stack Overflow") above an arbitrary number of iteration.;
#X f 84;
#X text 12 384 It implies that (in theory) infinite loop can be mistakenly done like that.;
#X f 75;
#X obj 216 456 + 1;
#X obj 168 456 f;
#X obj 168 420 bng 15 250 50 0 empty empty empty 17 7 0 10 #ffffff #000000 #000000;
#X obj 36 420 bng 15 250 50 0 empty empty empty 17 7 0 10 #ffffff #000000 #000000;
#X floatatom 216 492 5 0 0 1 - - -;
#X f 5;
#X connect 0 0 2 0;
#X connect 1 0 11 0;
#X connect 2 0 12 0;
#X connect 2 1 1 0;
#X connect 2 2 15 0;
#X connect 2 3 13 0;
#X connect 3 0 4 0;
#X connect 4 0 3 0;
#X connect 14 0 9 0;
#X connect 15 0 10 0;
#X connect 18 0 19 1;
#X connect 18 0 22 0;
#X connect 19 0 18 0;
#X connect 20 0 19 0;
#X connect 21 0 4 0;
#X coords 0 0 1 1 250 175 0 0 0;
