#N canvas 787 107 381 377 12;
#X obj 36 168 print;
#X obj 12 12 cnv 15 250 45 empty empty empty 0 -7 0 10 #cccccc #000000;
#X obj -60 12 freeze;
#X text 24 24 hello;
#X text 12 72 Click on the message below.;
#X floatatom 36 252 5 0 0 1 - - -;
#X f 5;
#X obj 36 288 + 1;
#X floatatom 36 324 5 0 0 1 - - -;
#X f 5;
#X msg 36 108 hello;
#X text 12 216 Next \, drag the number box.;
#X connect 5 0 6 0;
#X connect 6 0 7 0;
#X connect 8 0 0 0;
#X coords 0 0 1 1 250 175 0 0 0;
