#N canvas 422 22 649 647 12;
#X obj 204 144 receive crackers;
#X obj 204 228 receive pickles;
#X obj 36 144 send crackers;
#X obj 36 228 send pickles;
#X obj 36 300 send pickles;
#X obj 204 300 receive pickles;
#X obj 36 600 r crackers;
#X obj 36 564 s crackers;
#X obj 12 12 cnv 15 250 45 empty empty empty 0 -7 0 10 #cccccc #000000;
#X text 24 24 send;
#X obj -60 12 freeze;
#X floatatom 36 108 5 0 0 1 - - -;
#X f 5;
#X floatatom 36 180 5 0 0 1 - - -;
#X f 5;
#X floatatom 36 264 5 0 0 1 - - -;
#X f 5;
#X floatatom 204 180 5 0 0 1 - - -;
#X f 5;
#X floatatom 204 264 5 0 0 1 - - -;
#X f 5;
#X floatatom 204 336 5 0 0 1 - - -;
#X f 5;
#X text 12 72 The send and receive objects allow to make (zero time) global connections.;
#X f 75;
#X msg 36 420 \; pickles 99;
#X msg 36 468 \; crackers 56;
#X text 12 384 You can use the semicolon feature of message boxes to address receives.;
#X f 71;
#X text 12 528 Most often the abbreviated form is used.;
#X connect 0 0 14 0;
#X connect 1 0 15 0;
#X connect 5 0 16 0;
#X connect 11 0 2 0;
#X connect 12 0 3 0;
#X connect 13 0 4 0;
#X coords 0 0 1 1 250 175 0 0 0;
