#N canvas 301 22 829 620 12;
#X obj 264 564 print;
#X msg 108 108 3 \, 4 \, 5;
#X msg 36 108 3 4 5;
#X obj 36 204 print;
#X obj 36 564 print;
#X obj 432 564 print;
#X msg 432 528 cis \$1 \, boom \$2 \, bah \$3;
#X obj 12 12 cnv 15 250 45 empty empty empty 0 -7 0 10 #cccccc #000000;
#X text 24 24 messages (more);
#X obj -60 12 freeze;
#X obj 192 288 r number6;
#X obj 324 288 r number2;
#X msg 36 288 3 \, 4 \, 5 \; number6 foo \; number2 bar;
#X text 12 252 You can mix all that features.;
#X obj 36 360 print;
#X obj 192 360 print 6;
#X obj 324 360 print 2;
#X text 12 72 In messages the comma is a sequence operator.;
#X msg 108 156 I am not a number \, I am a free man!;
#X text 12 408 Moreover "\$1" \, "\$2" \, etc. \, forms are substituted by related incoming atoms.;
#X f 76;
#X floatatom 36 444 5 2 100 1 - - -;
#X f 5;
#X msg 36 528 \$1 kilomètres à pied;
#X msg 264 444 kilomètres 45;
#X msg 264 528 \$2 \$1 à pied;
#X msg 684 444 foo bar;
#X msg 684 528 \; number6 \$1 \; number2 \$2;
#X floatatom 432 444 5 0 0 1 - - -;
#X f 5;
#X floatatom 492 444 5 0 0 1 - - -;
#X f 5;
#X obj 432 492 pak 1 2 3;
#X connect 1 0 3 0;
#X connect 2 0 3 0;
#X connect 6 0 5 0;
#X connect 10 0 15 0;
#X connect 11 0 16 0;
#X connect 12 0 14 0;
#X connect 18 0 3 0;
#X connect 20 0 21 0;
#X connect 21 0 4 0;
#X connect 22 0 23 0;
#X connect 23 0 0 0;
#X connect 24 0 25 0;
#X connect 26 0 28 0;
#X connect 27 0 28 1;
#X connect 28 0 6 0;
#X coords 0 0 1 1 250 175 0 0 0;
