#N canvas 649 189 375 272 12;
#X obj 276 144 pipe 2000;
#X obj 12 12 cnv 15 275 45 empty empty empty 0 -7 0 10 #cccccc #000000;
#X obj -60 12 freeze;
#X text 24 24 time;
#X text 12 72 Objects for dealing with time.;
#X f 31;
#X obj 36 144 metro 500;
#X obj 36 108 tgl 15 0 empty empty empty 17 7 0 10 #ffffff #000000 #000000 0 1;
#X obj 156 108 bng 15 250 50 0 empty empty empty 17 7 0 10 #ffffff #000000 #000000;
#X obj 156 144 delay 1000;
#X floatatom 276 108 5 0 0 1 - - -;
#X f 5;
#X obj 276 180 print;
#X obj 156 180 print;
#X obj 36 180 print;
#N canvas 808 445 395 238 more 0;
#X obj 36 156 timer;
#X obj 84 120 delay 123.45;
#X obj 36 48 bng 15 250 50 0 empty empty empty 17 7 0 10 #ffffff #000000 #000000;
#X obj 36 84 t b b;
#X floatatom 36 192 0 0 0 1 - - -;
#X obj 276 120 delay 123.45;
#X obj 216 48 bng 15 250 50 0 empty empty empty 17 7 0 10 #ffffff #000000 #000000;
#X obj 216 84 t b b;
#X floatatom 216 192 0 0 0 1 - - -;
#X obj 216 156 realtime;
#X text 12 12 Logical vs real time.;
#X connect 0 0 4 0;
#X connect 1 0 0 1;
#X connect 2 0 3 0;
#X connect 3 0 0 0;
#X connect 3 1 1 0;
#X connect 5 0 9 1;
#X connect 6 0 7 0;
#X connect 7 0 9 0;
#X connect 7 1 5 0;
#X connect 9 0 8 0;
#X coords 0 0 1 1 250 175 0 0 0;
#X restore 36 228 pd more;
#X connect 0 0 10 0;
#X connect 5 0 12 0;
#X connect 6 0 5 0;
#X connect 7 0 8 0;
#X connect 8 0 11 0;
#X connect 9 0 0 0;
#X coords 0 0 1 1 250 175 0 0 0;
