#N canvas 599 67 672 455 12;
#X obj 12 12 cnv 15 250 45 empty empty empty 0 -7 0 10 #cccccc #000000;
#X obj -60 12 freeze;
#X text 24 24 Subpatch;
#X text 12 72 You can nest entire windows inside boxes (and so on \, as deep as you wish).;
#X f 74;
#N canvas 443 204 353 200 hello 0;
#X msg 24 24 I am a subpatch of the main patch.;
#X obj 24 144 outlet;
#N canvas 548 374 345 138 again 0;
#X obj 36 84 outlet;
#X msg 36 36 I am a subpatch of the subpatch.;
#X connect 1 0 0 0;
#X coords 0 0 1 1 250 175 0 0 0;
#X restore 48 96 pd again;
#X connect 0 0 1 0;
#X connect 2 0 1 0;
#X coords 0 0 1 1 250 175 0 0 0;
#X restore 36 108 pd hello;
#X obj 36 144 print;
#X floatatom 36 228 5 0 0 1 - - -;
#X f 5;
#X floatatom 108 228 5 0 0 1 - - -;
#X f 5;
#X floatatom 36 300 5 0 0 1 - - -;
#X f 5;
#N canvas 591 74 532 263 foo 0;
#X obj 24 24 inlet;
#X obj 96 24 inlet;
#X obj 24 216 outlet;
#X obj 60 168 print;
#X msg 60 132 Une fourmi de \$1 mètres avec un chapeau sur la tête.;
#X obj 24 96 t 18;
#X connect 0 0 5 0;
#X connect 1 0 5 0;
#X connect 4 0 3 0;
#X connect 5 0 2 0;
#X connect 5 0 4 0;
#X coords 0 0 1 1 250 175 0 0 0;
#X restore 36 264 pd foo;
#X msg 36 384 \; pd-foo open;
#X text 12 348 But you can do it also with a message.;
#X text 12 192 Note that if you click on the box (in run mode) the content appears.;
#X f 68;
#X connect 4 0 5 0;
#X connect 6 0 9 0;
#X connect 7 0 9 1;
#X connect 9 0 8 0;
#X coords 0 0 1 1 250 175 0 0 0;
