#N canvas 605 51 477 695 12;
#X obj 36 384 timer;
#X obj 96 348 delay 123.45;
#X obj 300 156 pipe 2000;
#X obj 12 12 cnv 15 250 45 empty empty empty 0 -7 0 10 #cccccc #000000;
#X obj -60 12 freeze;
#X text 24 24 time;
#X text 12 72 Objects for dealing with time.;
#X f 31;
#X obj 36 156 metro 500;
#X obj 36 108 tgl 15 0 empty empty empty 17 7 0 10 #ffffff #000000 #000000 0 1;
#X obj 156 108 bng 15 250 50 0 empty empty empty 17 7 0 10 #ffffff #000000 #000000;
#X obj 156 156 delay 1000;
#X obj 36 276 bng 15 250 50 0 empty empty empty 17 7 0 10 #ffffff #000000 #000000;
#X obj 36 312 t b b;
#X floatatom 36 420 0 0 0 1 - - -;
#X floatatom 300 108 5 0 0 1 - - -;
#X f 5;
#X obj 300 192 print;
#X obj 108 576 delay 123.45;
#X obj 36 504 bng 15 250 50 0 empty empty empty 17 7 0 10 #ffffff #000000 #000000;
#X obj 36 540 t b b;
#X floatatom 36 648 0 0 0 1 - - -;
#X obj 36 612 realtime;
#X text 12 240 All times are expressed logically (theoretical).;
#X text 12 468 The real time can be slightly (milliseconds) shifted.;
#X obj 156 192 print;
#X obj 36 192 print;
#X connect 0 0 13 0;
#X connect 1 0 0 1;
#X connect 2 0 15 0;
#X connect 7 0 24 0;
#X connect 8 0 7 0;
#X connect 9 0 10 0;
#X connect 10 0 23 0;
#X connect 11 0 12 0;
#X connect 12 0 0 0;
#X connect 12 1 1 0;
#X connect 14 0 2 0;
#X connect 16 0 20 1;
#X connect 17 0 18 0;
#X connect 18 0 20 0;
#X connect 18 1 16 0;
#X connect 20 0 19 0;
#X coords 0 0 1 1 250 175 0 0 0;
