#N canvas 502 140 535 300 12;
#X obj -60 12 freeze;
#X obj 12 12 cnv 15 250 45 empty empty empty 0 -7 0 10 #cccccc #000000;
#X text 24 24 graph on parent;
#X text 12 72 A subpatch can be drawn on its parent patch.;
#N canvas 545 350 357 217 gop 0;
#X obj 12 12 nbx 5 40 0 127 0 0 empty empty empty 0 -7 0 10 #ffffff #000000 #000000 36 127;
#X obj 60 12 nbx 5 40 0 127 0 0 empty empty empty 0 -7 0 10 #ffffff #000000 #000000 84 127;
#X obj 108 12 nbx 5 40 0 127 0 0 empty empty empty 0 -7 0 10 #ffffff #000000 #000000 42 127;
#X obj 24 168 outlet;
#X obj 24 96 pak f f f;
#X f 9;
#X obj 24 132 prepend transporter;
#X connect 0 0 4 0;
#X connect 1 0 4 1;
#X connect 2 0 4 2;
#X connect 4 0 5 0;
#X connect 5 0 3 0;
#X coords 0 0 1 1 158 70 1 0 0;
#X restore 36 108 pd gop;
#X obj 36 204 print;
#X text 12 252 Right-click and select the properties of a patch to set it.;
#X f 59;
#X connect 4 0 5 0;
#X coords 0 0 1 1 250 175 0 0 0;
