#N canvas 298 80 570 661 12;
#X msg 36 108 bang;
#X f 4;
#X obj 36 156 sendnumber 45 cookies;
#X obj 264 108 r cookies;
#X obj 12 12 cnv 15 250 45 empty empty empty 0 -7 0 10 #cccccc #000000;
#X obj -60 12 freeze;
#X text 24 24 abstraction;
#X text 12 72 A patch instantiated as an object is called an abstraction.;
#X floatatom 264 156 5 0 0 1 - - -;
#X f 5;
#X msg 36 240 \; pd-sendnumber open;
#X msg 36 336 bang;
#X f 4;
#X obj 36 384 sendnumber 67 pretzels;
#X obj 264 336 r pretzels;
#X floatatom 264 384 5 0 0 1 - - -;
#X f 5;
#X msg 36 528 \; \$2 \$1;
#X msg 36 468 0 cookies;
#X msg 36 492 0 pretzels;
#X msg 36 612 D'oh!;
#X text 12 576 For obvious reasons don't call an abstraction from itself.;
#X f 58;
#X text 12 204 Notice that here is a file in this directory named sendnumber.;
#X f 62;
#X text 12 300 At the instantiation arguments can be fetched with "\$1" format.;
#X f 64;
#X text 12 432 Whereas message substitution that occurs at run time.;
#X f 58;
#X connect 0 0 1 0;
#X connect 2 0 7 0;
#X connect 9 0 10 0;
#X connect 11 0 12 0;
#X connect 14 0 13 0;
#X connect 15 0 13 0;
#X coords 0 0 1 1 250 175 0 0 0;
