#N canvas 327 93 641 610 12;
#X obj 79 183 select 1 2;
#X floatatom 79 155 0 0 0 0 - - -;
#X obj 79 249 print select-1;
#X obj 111 229 print select-2;
#X obj 144 206 print select-3;
#X floatatom 305 157 0 0 0 0 - - -;
#X obj 305 190 pack;
#X obj 305 217 route 1 2;
#X obj 345 166 t b f;
#X floatatom 345 142 0 0 0 0 - - -;
#X obj 363 245 unpack;
#X floatatom 305 245 0 0 0 0 - - -;
#X floatatom 334 245 0 0 0 0 - - -;
#X floatatom 363 268 0 0 0 0 - - -;
#X floatatom 401 269 0 0 0 0 - - -;
#X text 30 20 Pd provides at least four objects for doing conditional
computations. The "select" object tests its input against its argument(s)
\, and outputs "bang" when they match. The "route" object works similarly
but also copies data. In other words \, "route" takes a list \, tests
its first element \, and conditionally passes on the rest of the list.
;
#X text 41 301 You also get "spigot" which turns a flow of messages
on and off (like the Gate object in Max \, but with the inputs reversed):
;
#X floatatom 117 370 0 0 0 0 - - -;
#X obj 117 395 spigot;
#X floatatom 154 370 0 0 0 0 - - -;
#X floatatom 117 419 0 0 0 0 - - -;
#X text 184 371 <-- nonzero to open;
#X text 149 419 if open \, messages coming in at left are sent to output.
;
#X text 47 450 And finally \, "moses" sends numbers to the left if
they're less than the argument \, right otherwise:;
#X floatatom 117 500 0 0 0 0 - - -;
#X floatatom 117 549 0 0 0 0 - - -;
#X obj 117 525 moses 5;
#X floatatom 161 549 0 0 0 0 - - -;
#X connect 0 0 2 0;
#X connect 0 1 3 0;
#X connect 0 2 4 0;
#X connect 1 0 0 0;
#X connect 5 0 6 0;
#X connect 6 0 7 0;
#X connect 7 0 11 0;
#X connect 7 1 12 0;
#X connect 7 2 10 0;
#X connect 8 0 6 0;
#X connect 8 1 6 1;
#X connect 9 0 8 0;
#X connect 10 0 13 0;
#X connect 10 1 14 0;
#X connect 17 0 18 0;
#X connect 18 0 20 0;
#X connect 19 0 18 1;
#X connect 24 0 26 0;
#X connect 26 0 25 0;
#X connect 26 1 27 0;
