#N canvas 804 172 514 414 12;
#X obj 36 312 r one-a;
#X obj 204 312 r two-a;
#X obj 120 312 r one-b;
#X obj 288 312 r two-b;
#X obj 36 156 locality one;
#X obj 36 252 locality two;
#X obj 12 12 cnv 15 250 45 empty empty empty 0 -7 0 10 #cccccc #000000;
#X text 24 24 locality;
#X obj -60 12 freeze;
#X floatatom 36 108 5 0 0 1 - - -;
#X f 5;
#X floatatom 144 108 5 0 0 1 - - -;
#X f 5;
#X floatatom 36 204 5 0 0 1 - - -;
#X f 5;
#X floatatom 144 204 5 0 0 1 - - -;
#X f 5;
#X floatatom 36 360 5 0 0 1 - - -;
#X f 5;
#X floatatom 120 360 5 0 0 1 - - -;
#X f 5;
#X floatatom 204 360 5 0 0 1 - - -;
#X f 5;
#X floatatom 288 360 5 0 0 1 - - -;
#X f 5;
#X text 12 72 Use dollar signs to manage (local) communications.;
#X f 50;
#X connect 0 0 13 0;
#X connect 1 0 15 0;
#X connect 2 0 14 0;
#X connect 3 0 16 0;
#X connect 9 0 4 0;
#X connect 10 0 4 1;
#X connect 11 0 5 0;
#X connect 12 0 5 1;
#X coords 0 0 1 1 250 175 0 0 0;
