#N canvas 484 63 558 554 12;
#X obj 12 12 cnv 15 250 45 empty empty empty 0 -7 0 10 #cccccc #000000;
#X obj -60 12 freeze;
#N canvas 161 98 214 266 a 0;
#X floatatom 24 24 5 0 0 1 - - -;
#X f 5;
#X floatatom 60 60 5 0 0 1 - - -;
#X f 5;
#X floatatom 132 132 5 0 0 1 - - -;
#X f 5;
#X floatatom 96 96 5 0 0 1 - - -;
#X f 5;
#X obj 24 168 pak f f f f;
#X f 11;
#X obj 24 216 outlet;
#X connect 0 0 4 0;
#X connect 1 0 4 1;
#X connect 2 0 4 3;
#X connect 3 0 4 2;
#X connect 4 0 5 0;
#X coords 0 0 1 1 250 175 0 0 0;
#X restore 36 108 pd a;
#N canvas 219 458 252 263 b 0;
#X obj 24 24 inlet;
#X obj 24 60 unpack f f f f;
#X f 14;
#X floatatom 24 216 5 0 0 1 - - -;
#X f 5;
#X floatatom 168 108 5 0 0 1 - - -;
#X f 5;
#X floatatom 120 144 5 0 0 1 - - -;
#X f 5;
#X floatatom 72 180 5 0 0 1 - - -;
#X f 5;
#X connect 0 0 1 0;
#X connect 1 0 2 0;
#X connect 1 1 5 0;
#X connect 1 2 4 0;
#X connect 1 3 3 0;
#X coords 0 0 1 1 250 175 0 0 0;
#X restore 36 156 pd b;
#N canvas 89 108 411 304 c 0;
#X floatatom 36 24 5 0 0 1 - - -;
#X f 5;
#X floatatom 96 24 5 0 0 1 - - -;
#X f 5;
#X floatatom 216 24 5 0 0 1 - - -;
#X f 5;
#X floatatom 156 24 5 0 0 1 - - -;
#X f 5;
#X obj 36 252 outlet;
#X obj 216 120 prepend power;
#X obj 216 168 prepend shield;
#X obj 216 192 prepend parabellum;
#X obj 216 144 prepend flower;
#X connect 0 0 7 0;
#X connect 1 0 6 0;
#X connect 2 0 5 0;
#X connect 3 0 8 0;
#X connect 5 0 4 0;
#X connect 6 0 4 0;
#X connect 7 0 4 0;
#X connect 8 0 4 0;
#X coords 0 0 1 1 250 175 0 0 0;
#X restore 108 108 pd c;
#N canvas 177 502 372 164 d 0;
#X obj 24 24 inlet;
#X floatatom 24 108 5 0 0 1 - - -;
#X f 5;
#X floatatom 276 108 5 0 0 1 - - -;
#X f 5;
#X floatatom 192 108 5 0 0 1 - - -;
#X f 5;
#X floatatom 108 108 5 0 0 1 - - -;
#X f 5;
#X obj 24 60 route parabellum shield flower power;
#X connect 0 0 5 0;
#X connect 5 0 1 0;
#X connect 5 1 4 0;
#X connect 5 2 3 0;
#X connect 5 3 2 0;
#X coords 0 0 1 1 250 175 0 0 0;
#X restore 108 156 pd d;
#X floatatom 36 240 5 0 0 1 - - -;
#X f 5;
#X obj 36 324 s;
#X msg 108 276 symbol \$0-r\$1;
#X obj 108 240 hradio 15 1 1 4 empty empty empty 0 -7 0 10 #ffffff #000000 #000000 1;
#X floatatom 36 408 5 0 0 1 - - -;
#X f 5;
#X obj 36 504 v;
#X msg 108 444 set \$0-v\$1;
#X obj 276 444 v \$0-v0;
#X obj 276 468 v \$0-v1;
#X obj 276 408 bng 15 250 50 0 empty empty empty 17 7 0 10 #ffffff #000000 #000000;
#X obj 276 504 print;
#X text 24 24 broadcast;
#X text 12 72 How to avoid proliferation of cords (aka "spaghetti" patches).;
#X f 62;
#N canvas 217 442 225 302 f 0;
#X obj 36 24 inlet;
#X floatatom 36 252 5 0 0 1 - - -;
#X f 5;
#X floatatom 144 144 5 0 0 1 - - -;
#X f 5;
#X floatatom 108 180 5 0 0 1 - - -;
#X f 5;
#X floatatom 72 216 5 0 0 1 - - -;
#X f 5;
#X msg 36 60 \$2 \$1;
#X obj 36 96 route 0 1 2 3;
#X connect 0 0 5 0;
#X connect 5 0 6 0;
#X connect 6 0 1 0;
#X connect 6 1 4 0;
#X connect 6 2 3 0;
#X connect 6 3 2 0;
#X coords 0 0 1 1 250 175 0 0 0;
#X restore 180 156 pd f;
#N canvas 165 195 206 167 e 0;
#X floatatom 36 24 5 0 0 1 - - -;
#X f 5;
#X obj 36 120 outlet;
#X obj 36 72 pack f f;
#X floatatom 120 24 5 0 3 1 - - -;
#X f 5;
#X connect 0 0 2 0;
#X connect 2 0 1 0;
#X connect 3 0 2 1;
#X coords 0 0 1 1 250 175 0 0 0;
#X restore 180 108 pd e;
#X text 12 204 Use binding (but abuse leads to confusion also).;
#X f 48;
#X obj 108 408 tgl 15 1 empty empty empty 17 7 0 10 #ffffff #000000 #000000 0 1;
#X floatatom 276 240 5 0 0 1 - #0-r0 -;
#X f 5;
#X floatatom 336 240 5 0 0 1 - #0-r1 -;
#X f 5;
#X floatatom 396 240 5 0 0 1 - #0-r2 -;
#X f 5;
#X floatatom 456 240 5 0 0 1 - #0-r3 -;
#X f 5;
#N canvas 81 76 379 109 more 0;
#X obj 108 24 r \$0-r1;
#X obj 24 24 r \$0-r0;
#X obj 192 24 r \$0-r2;
#X obj 276 24 r \$0-r3;
#X obj 24 60 print 0;
#X obj 108 60 print 1;
#X obj 192 60 print 2;
#X obj 276 60 print 3;
#X connect 0 0 5 0;
#X connect 1 0 4 0;
#X connect 2 0 6 0;
#X connect 3 0 7 0;
#X coords 0 0 1 1 250 175 0 0 0;
#X restore 276 300 pd more;
#N canvas 1042 136 252 198 again 0;
#X msg 36 60 symbol \$0-r\$1;
#X obj 36 24 hradio 15 1 1 4 empty empty empty 0 -7 0 10 #ffffff #000000 #000000 1;
#X obj 36 108 r;
#X floatatom 36 144 5 0 0 1 - - -;
#X f 5;
#X connect 0 0 2 0;
#X connect 1 0 0 0;
#X connect 2 0 3 0;
#X coords 0 0 1 1 250 175 0 0 0;
#X restore 276 324 pd again;
#X text 12 372 Or use named values to store variables.;
#X connect 2 0 3 0;
#X connect 4 0 5 0;
#X connect 6 0 7 0;
#X connect 8 0 7 1;
#X connect 9 0 8 0;
#X connect 10 0 11 0;
#X connect 12 0 11 0;
#X connect 13 0 16 0;
#X connect 14 0 16 0;
#X connect 15 0 13 0;
#X connect 15 0 14 0;
#X connect 20 0 19 0;
#X connect 22 0 12 0;
#X coords 0 0 1 1 250 175 0 0 0;
