#N canvas 596 147 465 252 12;
#X obj 36 192 print;
#X obj 12 12 cnv 15 250 45 empty empty empty 0 -7 0 10 #cccccc #000000;
#X obj -60 12 freeze;
#X text 12 96 Then select the help entry in the contextual menu.;
#X f 50;
#X text 24 24 help;
#X text 12 72 Right-click an object.;
#X f 22;
#X msg 36 144 Congratulation! That's all you need to know.;
#X connect 6 0 0 0;
#X coords 0 0 1 1 250 175 0 0 0;
