#N canvas 439 55 965 786 12;
#X text 96 168 Use the "random" object to make pseudo-random integers. To get continuously variable random numbers \, make a random number in a large range and divide:;
#X obj 168 264 random 5;
#X msg 168 240 bang;
#X floatatom 168 288 0 0 0 0 - - -;
#X text 192 288 outputs from 0 to 4;
#X msg 396 228 bang;
#X floatatom 396 312 0 0 0 0 - - -;
#X obj 396 252 random 1000;
#X obj 396 288 / 1000;
#X text 468 312 from 0 to 0.999;
#X obj 132 468 random 5;
#X msg 228 396 bang;
#X floatatom 132 492 0 0 0 0 - - -;
#X obj 132 384 loadbang;
#X obj 132 420 timer;
#X text 264 396 <-- click to seed;
#X msg 132 444 seed \$1;
#X msg 228 444 bang;
#X text 264 444 <-- click to get random numbers;
#X text 84 528 If you give two randoms the same seed they give the same sequence. If you never seed them \, you'll get different sequences out of each one.;
#X text 96 336 If you don't want the same behavior every time you run the patch \, use the time from load to first click as a seed:;
#X obj 12 12 cnv 15 250 45 empty empty empty 0 -7 0 10 #cccccc #000000;
#X obj -60 12 freeze;
#X text 24 24 random;
#X connect 1 0 3 0;
#X connect 2 0 1 0;
#X connect 5 0 7 0;
#X connect 7 0 8 0;
#X connect 8 0 6 0;
#X connect 10 0 12 0;
#X connect 11 0 14 1;
#X connect 13 0 14 0;
#X connect 14 0 16 0;
#X connect 16 0 10 0;
#X connect 17 0 10 0;
#X coords 0 0 1 1 250 175 0 0 0;
