#N canvas 527 105 627 409 12;
#X obj 12 12 cnv 15 250 45 empty empty empty 0 -7 0 10 #cccccc #000000;
#X obj -60 12 freeze;
#N canvas 0 22 500 350 \$0-multislider 0;
#X array \$0-multislider 6 float 3;
#A 0 0.14285 -0.211444 0.165707 0.439999 0.542859 0.279996;
#X coords 0 1 6 -1 250 175 1 0 0;
#X restore 348 108 graph \$0-multislider;
#X text 24 24 array (more);
#X obj 36 108 tabreceive \$0-multislider;
#X obj 36 168 unpack f f f f f f;
#X floatatom 36 360 5 0 0 1 - - -;
#X f 5;
#X floatatom 72 336 5 0 0 1 - - -;
#X f 5;
#X floatatom 108 312 5 0 0 1 - - -;
#X f 5;
#X floatatom 144 288 5 0 0 1 - - -;
#X f 5;
#X floatatom 180 264 5 0 0 1 - - -;
#X f 5;
#X floatatom 216 240 5 0 0 1 - - -;
#X f 5;
#X text 12 72 Array can be used as multislider.;
#X f 33;
#X connect 4 0 5 0;
#X connect 5 0 6 0;
#X connect 5 1 7 0;
#X connect 5 2 8 0;
#X connect 5 3 9 0;
#X connect 5 4 10 0;
#X connect 5 5 11 0;
#X coords 0 0 1 1 250 175 0 0 0;
