#N canvas 523 78 594 529 12;
#X obj 252 432 spigot;
#X obj 36 360 moses 5;
#X obj 12 12 cnv 15 250 45 empty empty empty 0 -7 0 10 #cccccc #000000;
#X obj -60 12 freeze;
#X text 24 24 conditional;
#X obj 36 204 bng 15 250 50 0 empty empty empty 17 7 0 10 #ffffff #000000 #000000;
#X obj 72 204 bng 15 250 50 0 empty empty empty 17 7 0 10 #ffffff #000000 #000000;
#X obj 108 204 bng 15 250 50 0 empty empty empty 17 7 0 10 #ffffff #000000 #000000;
#X obj 252 108 nbx 5 40 0 127 0 0 empty empty empty 0 -7 0 10 #ffffff #000000 #000000 0 127;
#X floatatom 252 288 5 0 0 1 - - -;
#X f 5;
#X floatatom 312 288 5 0 0 1 - - -;
#X f 5;
#X obj 252 240 route 0 1;
#X obj 384 168 tgl 15 0 empty empty empty 17 7 0 10 #ffffff #000000 #000000 1 1;
#X obj 252 204 list prepend 0;
#X obj 36 108 hradio 15 1 0 8 empty empty empty 0 -7 0 10 #ffffff #000000 #000000 2;
#X obj 36 156 select 0 1 2;
#X f 12;
#X obj 144 204 bng 15 250 50 0 empty empty empty 17 7 0 10 #ffffff #000000 #000000;
#X text 12 72 There's (at least) four objects for doing conditional computations.;
#X f 68;
#X obj 36 288 nbx 5 40 0 10 0 0 empty empty empty 0 -7 0 10 #ffffff #000000 #000000 4 10;
#X obj 324 396 tgl 15 0 empty empty empty 17 7 0 10 #ffffff #000000 #000000 1 1;
#X floatatom 252 468 5 0 0 1 - - -;
#X f 5;
#X floatatom 36 396 5 0 0 1 - - -;
#X f 5;
#X floatatom 108 396 5 0 0 1 - - -;
#X f 5;
#X obj 252 348 hslider 128 15 0 127 0 0 empty empty empty 0 -7 0 10 #ffffff #000000 #000000 2700 0;
#X connect 0 0 20 0;
#X connect 1 0 21 0;
#X connect 1 1 22 0;
#X connect 8 0 13 0;
#X connect 11 0 9 0;
#X connect 11 1 10 0;
#X connect 12 0 13 1;
#X connect 13 0 11 0;
#X connect 14 0 15 0;
#X connect 15 0 5 0;
#X connect 15 1 6 0;
#X connect 15 2 7 0;
#X connect 15 3 16 0;
#X connect 18 0 1 0;
#X connect 19 0 0 1;
#X connect 23 0 0 0;
#X coords 0 0 1 1 250 175 0 0 0;
