#N canvas 499 38 605 759 12;
#X obj 36 144 random 5;
#X obj 12 12 cnv 15 250 45 empty empty empty 0 -7 0 10 #cccccc #000000;
#X obj -60 12 freeze;
#X text 24 24 random;
#X text 12 72 Make pseudo-random numbers.;
#X obj 36 108 bng 15 250 50 0 empty empty empty 17 7 0 10 #ffffff #000000 #000000;
#X obj 36 180 print;
#X obj 156 144 random;
#X obj 156 108 bng 15 250 50 0 empty empty empty 17 7 0 10 #ffffff #000000 #000000;
#X obj 156 180 print;
#X msg 264 108 10;
#X obj 264 180 print;
#X obj 264 144 expr rand()*$f1-$f1/2;
#X obj 36 456 random 100;
#X obj 36 492 moses 10;
#X obj 120 528 moses 30;
#X obj 36 420 bng 15 250 50 0 empty empty empty 17 7 0 10 #ffffff #000000 #000000;
#X obj 36 564 bng 15 250 50 0 empty empty empty 17 7 0 10 #ffffff #000000 #000000;
#X obj 120 564 bng 15 250 50 0 empty empty empty 17 7 0 10 #ffffff #000000 #000000;
#X obj 192 564 bng 15 250 50 0 empty empty empty 17 7 0 10 #ffffff #000000 #000000;
#X obj 36 672 array random \$0-distribution;
#X obj 36 636 metro 250;
#X obj 36 600 tgl 15 0 empty empty empty 17 7 0 10 #ffffff #000000 #000000 0 1;
#X floatatom 36 708 5 0 0 1 - - -;
#X f 5;
#N canvas 0 22 500 350 \$0-distribution 0;
#X array \$0-distribution 10 float 3;
#A 0 0.297147 0.388574 0.514286 0.622857 0.759999 0.708571 0.577136 0.462853 0.331426 0.222857;
#X coords 0 1 10 0 250 175 1 0 0;
#X restore 324 552 graph \$0-distribution;
#X text 12 384 Various approaches to design weighted random numbers.;
#X obj 36 300 vexpr randmt();
#X obj 36 336 print;
#X msg 36 264 1 2 3 4;
#X text 12 228 Use a Mersenne Twister PRNG.;
#X connect 0 0 6 0;
#X connect 5 0 0 0;
#X connect 7 0 9 0;
#X connect 8 0 7 0;
#X connect 10 0 12 0;
#X connect 12 0 11 0;
#X connect 13 0 14 0;
#X connect 14 0 17 0;
#X connect 14 1 15 0;
#X connect 15 0 18 0;
#X connect 15 1 19 0;
#X connect 16 0 13 0;
#X connect 20 0 23 0;
#X connect 21 0 20 0;
#X connect 22 0 21 0;
#X connect 26 0 27 0;
#X connect 28 0 26 0;
#X coords 0 0 1 1 250 175 0 0 0;
