#N canvas 504 63 489 330 12;
#X obj 12 12 cnv 15 250 45 empty empty empty 0 -7 0 10 #cccccc #000000;
#X text 24 24 editing;
#X obj -60 12 freeze;
#X obj 36 168 metro 50;
#X obj 96 204 + 1;
#X obj 36 204 f;
#X obj 36 132 tgl 15 1 empty empty empty 17 7 0 10 #ffffff #000000 #000000 0 1;
#X obj 180 168 bng 15 250 50 0 empty \$0-bang0 empty 17 7 0 10 #ffffff #1c49cd #000000;
#X obj 204 168 bng 15 250 50 0 empty \$0-bang1 empty 17 7 0 10 #ffffff #fcc4c2 #000000;
#X obj 228 168 bng 15 250 50 0 empty \$0-bang2 empty 17 7 0 10 #ffffff #256a61 #000000;
#X obj 228 216 bng 15 250 50 0 empty \$0-bang4 empty 17 7 0 10 #ffffff #425595 #000000;
#X obj 228 192 bng 15 250 50 0 empty \$0-bang3 empty 17 7 0 10 #ffffff #62f326 #000000;
#X obj 204 216 bng 15 250 50 0 empty \$0-bang5 empty 17 7 0 10 #ffffff #fb214e #000000;
#X obj 180 216 bng 15 250 50 0 empty \$0-bang6 empty 17 7 0 10 #ffffff #dafd2e #000000;
#X obj 180 192 bng 15 250 50 0 empty \$0-bang7 empty 17 7 0 10 #ffffff #5106c4 #000000;
#X text 12 72 Select "Edit Mode" in the "Edit" menu.;
#N canvas 171 71 373 362 fun 0;
#X msg 108 156 symbol \$0-bang\$1;
#X obj 36 300 send;
#X obj 108 120 % 8;
#X msg 108 240 foregroundcolor \$1 \$2 \$3;
#X obj 36 72 t b 3 f;
#X obj 108 204 random 256;
#X obj 36 36 inlet;
#X connect 0 0 1 1;
#X connect 2 0 0 0;
#X connect 3 0 1 0;
#X connect 4 0 1 0;
#X connect 4 1 5 0;
#X connect 4 2 2 0;
#X connect 5 0 3 0;
#X connect 6 0 4 0;
#X coords 0 0 1 1 250 175 0 0 0;
#X restore 36 276 pd fun;
#X floatatom 36 240 5 0 0 1 - - -;
#X f 5;
#X text 12 96 You can add \, move \, connect and disconnect objects now.;
#X connect 3 0 5 0;
#X connect 4 0 5 1;
#X connect 5 0 4 0;
#X connect 5 0 17 0;
#X connect 6 0 3 0;
#X connect 17 0 16 0;
#X coords 0 0 1 1 250 175 0 0 0;
