#N canvas 484 119 496 348 12;
#X obj 12 12 cnv 15 250 45 empty empty empty 0 -7 0 10 #cccccc #000000;
#X text 24 24 editing;
#X obj -60 12 freeze;
#X obj 36 180 metro 50;
#X obj 96 216 + 1;
#X obj 36 216 f;
#X obj 36 144 tgl 15 1 empty empty empty 17 7 0 10 #ffffff #000000 #000000 1 1;
#X obj 180 240 bng 15 250 50 0 empty \$0-bang0 empty 17 7 0 10 #ffffff #023572 #000000;
#X obj 204 240 bng 15 250 50 0 empty \$0-bang1 empty 17 7 0 10 #ffffff #e5d2ce #000000;
#X obj 228 240 bng 15 250 50 0 empty \$0-bang2 empty 17 7 0 10 #ffffff #2b3ccd #000000;
#X obj 228 288 bng 15 250 50 0 empty \$0-bang4 empty 17 7 0 10 #ffffff #2a9743 #000000;
#X obj 228 264 bng 15 250 50 0 empty \$0-bang3 empty 17 7 0 10 #ffffff #c60937 #000000;
#X obj 204 288 bng 15 250 50 0 empty \$0-bang5 empty 17 7 0 10 #ffffff #15aac7 #000000;
#X obj 180 288 bng 15 250 50 0 empty \$0-bang6 empty 17 7 0 10 #ffffff #6b5921 #000000;
#X obj 180 264 bng 15 250 50 0 empty \$0-bang7 empty 17 7 0 10 #ffffff #292ec4 #000000;
#X text 12 72 Select "Edit Mode" in the "Edit" menu.;
#N canvas 171 71 384 355 fun 0;
#X msg 108 156 symbol \$0-bang\$1;
#X obj 36 300 send;
#X obj 108 120 % 8;
#X msg 108 240 foregroundcolor \$1 \$2 \$3;
#X obj 36 72 t b 3 f;
#X obj 108 204 random 256;
#X obj 36 36 inlet;
#X connect 0 0 1 1;
#X connect 2 0 0 0;
#X connect 3 0 1 0;
#X connect 4 0 1 0;
#X connect 4 1 5 0;
#X connect 4 2 2 0;
#X connect 5 0 3 0;
#X connect 6 0 4 0;
#X coords 0 0 1 1 250 175 0 0 0;
#X restore 36 288 pd fun;
#X floatatom 36 252 5 0 0 1 - - -;
#X f 5;
#X text 12 96 Now you can add \, move \, connect and disconnect objects.;
#X connect 3 0 5 0;
#X connect 4 0 5 1;
#X connect 5 0 4 0;
#X connect 5 0 17 0;
#X connect 6 0 3 0;
#X connect 17 0 16 0;
#X coords 0 0 1 1 250 175 0 0 0;
