#N canvas 513 125 634 483 12;
#X obj 207 115 inlet;
#X obj 207 142 s \$1-a;
#X obj 302 143 s \$1-b;
#X obj 302 118 inlet;
#X obj 63 349 s \$1-c;
#X obj 63 379 r \$1-c;
#X floatatom 63 318 5 0 0 0 - - -, f 5;
#X floatatom 63 407 5 0 0 0 - - -, f 5;
#X obj 165 350 s here's-what-happens-if-you-dont;
#X obj 164 380 r here's-what-happens-if-you-dont;
#X floatatom 164 408 5 0 0 0 - - -, f 5;
#X floatatom 165 320 5 0 0 0 - - -, f 5;
#X floatatom 488 324 5 0 0 0 - - -, f 5;
#X floatatom 489 407 5 0 0 0 - - -, f 5;
#X obj 488 351 s \$0-d;
#X obj 489 381 r \$0-d;
#X text 51 172 The sends above get named "one-a" \, etc. The window
title bar tells you the creation arguments for this particular instance.
You can use this to make internal local connections as shown below.
The "\$1-c" boxes act locally whereas the middle boxes get crosstalk
between the windows. The boxes at right also get unique names but in
this case you don't have to specify "1023" \, it's just something unique.
;
#X text 48 25 This window is used by 13.locality.pd to demonstrate
the abstraction mechanism in Pd. If you've opened this window directly
\, you might also want to open the other one to see how it's used.
;
#X connect 0 0 1 0;
#X connect 3 0 2 0;
#X connect 5 0 7 0;
#X connect 6 0 4 0;
#X connect 9 0 10 0;
#X connect 11 0 8 0;
#X connect 12 0 14 0;
#X connect 15 0 13 0;
