#N canvas 373 47 662 721 12;
#X obj 36 204 inlet;
#X obj 36 240 s \$1-a;
#X obj 120 240 s \$1-b;
#X obj 120 204 inlet;
#X obj 36 84 s \$1-c;
#X obj 36 120 r \$1-c;
#X floatatom 36 48 5 0 0 0 - - -;
#X f 5;
#X floatatom 36 156 5 0 0 0 - - -;
#X f 5;
#X obj 36 588 s here's-what-happens-if-you-dont;
#X obj 36 624 r here's-what-happens-if-you-dont;
#X floatatom 36 660 5 0 0 0 - - -;
#X f 5;
#X floatatom 36 552 5 0 0 0 - - -;
#X f 5;
#X floatatom 36 360 5 0 0 0 - - -;
#X f 5;
#X floatatom 36 468 5 0 0 0 - - -;
#X f 5;
#X text 12 12 Use an argument to compound names.;
#X text 12 288 Dollar zero is expanded to a number unique to a patch.;
#X obj 36 396 s \$0-local;
#X obj 36 432 r \$0-local;
#X text 12 312 It guarantee to not interact with others instantiation of the abstraction.;
#X f 75;
#X text 12 516 Open the other instance and see what's happening otherwise.;
#X connect 0 0 1 0;
#X connect 3 0 2 0;
#X connect 5 0 7 0;
#X connect 6 0 4 0;
#X connect 9 0 10 0;
#X connect 11 0 8 0;
#X connect 12 0 16 0;
#X connect 17 0 13 0;
#X coords 0 0 1 1 250 175 0 0 0;
