#N canvas 779 95 515 426 12;
#X obj 36 108 osc~ 440;
#X obj 36 180 dac~;
#X obj 36 144 *~ 0.05;
#X obj 12 12 cnv 15 250 45 empty empty empty 0 -7 0 10 #cccccc #000000;
#X obj -60 12 freeze;
#X text 24 24 sinewave;
#X msg 36 264 \; pd dsp 1;
#X msg 36 360 \; pd dsp 0;
#X text 12 228 The DSP can be turned on conveniently by messages.;
#X f 50;
#X text 12 72 Audio is done using tilde objects such as below.;
#X f 50;
#X text 12 324 You should hear a small tone whose pitch is A ('440' Hz).;
#X f 57;
#X connect 0 0 2 0;
#X connect 2 0 1 0;
#X coords 0 0 1 1 250 175 0 0 0;
