#N canvas 557 143 491 384 12;
#X obj 36 108 osc~ 440;
#X obj 36 336 dac~;
#X obj 36 276 *~ 0;
#X obj 96 228 dbtorms;
#X obj 12 12 cnv 15 250 45 empty empty empty 0 -7 0 10 #cccccc #000000;
#X obj -60 12 freeze;
#X text 24 24 amplitude;
#X msg 360 312 \; pd dsp \$1;
#X obj 360 276 tgl 15 0 empty empty empty 17 7 0 10 #ffffff #000000 #000000 0 1;
#X obj 96 168 nbx 5 40 0 100 0 0 empty empty empty 0 -7 0 10 #ffffff #000000 #000000 0 100;
#X floatatom 96 276 0 0 0 1 - - -;
#X text 12 72 Reasonable range for samples is between '-1' and '+1'.;
#X connect 0 0 2 0;
#X connect 2 0 1 0;
#X connect 2 0 1 1;
#X connect 3 0 2 1;
#X connect 3 0 10 0;
#X connect 8 0 7 0;
#X connect 9 0 3 0;
#X coords 0 0 1 1 250 175 0 0 0;
