#N canvas 547 88 533 620 12;
#X obj 36 420 *~;
#X obj 108 348 line~;
#N canvas 0 22 450 278 \$0-out 0;
#X array \$0-out 4410 float 0;
#X coords 0 1 4409 -1 200 130 1 0 0;
#X restore 300 456 graph \$0-out;
#N canvas 0 22 450 278 \$0-wave 0;
#X array \$0-wave 4410 float 0;
#X coords 0 1 4409 -1 200 130 1 0 0;
#X restore 300 120 graph \$0-wave;
#N canvas 0 22 450 278 \$0-ramp 0;
#X array \$0-ramp 4410 float 0;
#X coords 0 1 4409 -1 200 130 1 0 0;
#X restore 300 288 graph \$0-ramp;
#X obj 12 12 cnv 15 250 45 empty empty empty 0 -7 0 10 #cccccc #000000;
#X text 24 24 line (more);
#X obj -60 12 freeze;
#X obj 108 252 tgl 15 0 empty empty empty 17 7 0 10 #ffffff #000000 #000000 0 1;
#X obj 132 156 r \$0-bang;
#X obj 132 384 r \$0-bang;
#X obj 60 528 r \$0-bang;
#X obj 108 420 tabwrite~ \$0-ramp;
#X obj 36 564 tabwrite~ \$0-out;
#X obj 36 108 osc~ 110;
#X text 12 72 Likewise \, but graphed once on 100 milliseconds.;
#X msg 108 288 \$1 75 \; \$0-bang bang;
#X obj 108 192 tabwrite~ \$0-wave;
#X connect 0 0 13 0;
#X connect 1 0 0 1;
#X connect 1 0 12 0;
#X connect 8 0 16 0;
#X connect 9 0 17 0;
#X connect 10 0 12 0;
#X connect 11 0 13 0;
#X connect 14 0 0 0;
#X connect 14 0 17 0;
#X connect 16 0 1 0;
#X coords 0 0 1 1 250 175 0 0 0;
