#N canvas 661 80 663 604 12;
#X obj 36 300 +~ 1;
#X obj 36 516 output;
#X obj 12 12 cnv 15 250 45 empty empty empty 0 -7 0 10 #cccccc #000000;
#X obj -72 12 freeze;
#N canvas 667 113 343 488 init 0;
#X obj 36 360 loadbang;
#X obj 36 432 soundfiler;
#X msg 36 396 read -resize voice.wav \$0-table;
#X obj 36 24 inlet;
#X obj 36 312 s \$0-frequency;
#X obj 180 312 s \$0-chunk;
#X obj 36 264 unpack f f;
#X msg 192 132 1 100;
#X msg 192 180 2 10;
#X msg 192 156 -0.5 100;
#X obj 36 60 select 0 1 2 3;
#X msg 192 204 1 3;
#X connect 0 0 2 0;
#X connect 2 0 1 0;
#X connect 3 0 10 0;
#X connect 6 0 4 0;
#X connect 6 1 5 0;
#X connect 7 0 6 0;
#X connect 8 0 6 0;
#X connect 9 0 6 0;
#X connect 10 0 7 0;
#X connect 10 1 9 0;
#X connect 10 2 8 0;
#X connect 10 3 11 0;
#X connect 11 0 6 0;
#X coords 0 0 1 1 250 175 0 0 0;
#X restore 72 456 pd init;
#N canvas 0 22 500 350 \$0-table 0;
#X array \$0-table 62079 float 2;
#X coords 0 1 62079 -1 250 175 1 0 0;
#X restore 372 120 graph \$0-table;
#N canvas 0 22 500 350 \$0-out 0;
#X array \$0-out 1024 float 2;
#X coords 0 1 1024 -1 250 175 1 0 0;
#X restore 372 324 graph \$0-out;
#X obj 36 336 tabread4~ \$0-table;
#X obj 72 384 tabwrite~ \$0-out 250;
#X obj 36 144 phasor~;
#X floatatom 36 108 5 0 0 1 - #0-frequency -;
#X f 5;
#X obj 36 264 *~;
#X obj 132 204 * 441;
#X floatatom 132 168 5 0 0 1 - #0-chunk -;
#X f 5;
#X obj 72 420 hradio 15 1 1 4 empty empty empty 0 -7 0 10 #ffffff #000000 #000000 0;
#X text 192 168 Size of chunk.;
#X text 96 108 Loops per second.;
#X text 12 72 Basic looper (with clicks at looping point).;
#X f 44;
#X text 24 24 sampler (basic);
#X connect 0 0 7 0;
#X connect 7 0 1 0;
#X connect 7 0 8 0;
#X connect 9 0 11 0;
#X connect 10 0 9 0;
#X connect 11 0 0 0;
#X connect 12 0 11 1;
#X connect 13 0 12 0;
#X connect 14 0 4 0;
#X coords 0 0 1 1 250 175 0 0 0;
