#N canvas 173 104 667 646 12;
#X obj 36 264 rpole~;
#X obj 36 336 cpole~;
#X obj 36 372 cpole~;
#X obj 36 300 *~;
#X obj 132 72 loadbang;
#X obj 36 456 rzero~;
#X obj 36 528 czero~;
#X obj 36 564 czero~;
#X obj 36 492 /~;
#X obj 36 228 *~;
#X obj 36 420 /~;
#X f 3;
#X obj 132 96 f \$1;
#X obj 132 48 inlet;
#X obj 432 72 loadbang;
#X obj 432 48 inlet;
#X obj 276 72 loadbang;
#X obj 276 48 inlet;
#X obj 36 48 inlet~;
#X obj 564 48 inlet;
#X obj 36 600 outlet~;
#X obj 276 96 f \$2;
#X obj 432 96 f \$3;
#X obj 132 180 buttercoef3;
#X obj 144 372 buttercoef3;
#N canvas 569 319 700 128 more 0;
#X text 12 12 For low-pass: set HP frequency >= SR/2 and HI-LO normalization to '0'.;
#X f 71;
#X text 12 36 For high-pass: set LP frequency = '0' and HI-LO normalization to '1'.;
#X f 70;
#X text 12 60 For shelving: LP and HP specify shelving band.;
#X text 12 84 For shelving: Gain difference is about HP/LP cubed (e.g. HP=2LP should give about '18' dB).;
#X f 91;
#X coords 0 0 1 1 250 175 0 0 0;
#X restore 264 588 pd more;
#X text 264 504 1- Low-pass frequency.;
#X text 264 528 2- High-pass frequency.;
#X text 264 552 3- High-low normalization.;
#X obj 36 180 t clear;
#X obj 432 120 != 0;
#N canvas 658 292 235 262 samplerate 0;
#X obj 108 132 / 2;
#X obj 36 168 / 22050;
#X obj 36 60 t f b;
#X obj 36 24 inlet;
#X obj 36 204 outlet;
#X obj 108 96 samplerate;
#X connect 0 0 1 1;
#X connect 1 0 4 0;
#X connect 2 0 1 0;
#X connect 2 1 5 0;
#X connect 3 0 2 0;
#X connect 5 0 0 0;
#X coords 0 0 1 1 250 175 0 0 0;
#X restore 276 120 pd samplerate;
#N canvas 658 296 326 247 samplerate 0;
#X obj 108 132 / 2;
#X obj 36 168 / 22050;
#X obj 36 60 t f b;
#X obj 36 24 inlet;
#X obj 36 204 outlet;
#X obj 108 96 samplerate;
#X connect 0 0 1 1;
#X connect 1 0 4 0;
#X connect 2 0 1 0;
#X connect 2 1 5 0;
#X connect 3 0 2 0;
#X connect 5 0 0 0;
#X coords 0 0 1 1 250 175 0 0 0;
#X restore 132 120 pd samplerate;
#X obj 564 72 s \$0-reset;
#X obj 36 72 r \$0-reset;
#X text 12 12 3-Pole \, 3-Zero Butterworth low-pass/high-pass/shelving filter.;
#X f 63;
#X connect 0 0 3 0;
#X connect 1 0 2 0;
#X connect 1 1 2 1;
#X connect 2 0 10 0;
#X connect 3 0 1 0;
#X connect 4 0 11 0;
#X connect 5 0 8 0;
#X connect 6 0 7 0;
#X connect 6 1 7 1;
#X connect 7 0 19 0;
#X connect 8 0 6 0;
#X connect 9 0 0 0;
#X connect 10 0 5 0;
#X connect 11 0 31 0;
#X connect 12 0 11 0;
#X connect 13 0 21 0;
#X connect 14 0 21 0;
#X connect 15 0 20 0;
#X connect 16 0 20 0;
#X connect 17 0 9 0;
#X connect 18 0 32 0;
#X connect 20 0 30 0;
#X connect 21 0 29 0;
#X connect 22 0 9 1;
#X connect 22 1 3 1;
#X connect 22 2 0 1;
#X connect 22 3 1 2;
#X connect 22 3 2 2;
#X connect 22 4 1 3;
#X connect 22 5 2 3;
#X connect 23 0 10 1;
#X connect 23 1 8 1;
#X connect 23 2 5 1;
#X connect 23 3 6 2;
#X connect 23 3 7 2;
#X connect 23 4 6 3;
#X connect 23 5 7 3;
#X connect 28 0 0 0;
#X connect 28 0 1 0;
#X connect 28 0 2 0;
#X connect 28 0 5 0;
#X connect 28 0 6 0;
#X connect 28 0 7 0;
#X connect 29 0 23 1;
#X connect 29 0 22 1;
#X connect 30 0 23 0;
#X connect 31 0 22 0;
#X connect 33 0 28 0;
#X coords 0 0 1 1 250 175 0 0 0;
