#N canvas 416 108 533 578 12;
#X obj 36 480 output~;
#X obj 36 384 *~;
#X obj 108 324 line;
#X obj 36 108 osc~ 880;
#X obj 12 12 cnv 15 250 45 empty empty empty 0 -7 0 10 #cccccc #000000;
#X obj -60 12 freeze;
#X obj 108 252 tgl 15 0 empty empty empty 17 7 0 10 #ffffff #000000 #000000 0 1;
#X obj 108 180 tgl 15 0 empty empty empty 17 7 0 10 #ffffff #000000 #000000 0 1;
#X obj 108 216 metro 500;
#X obj 108 144 dspstatus;
#X text 24 24 zipper;
#N canvas 0 22 500 350 \$0-zipper 0;
#X array \$0-zipper 22050 float 2;
#X coords 0 1 22050 0 250 175 1 0 0;
#X restore 252 132 graph \$0-zipper;
#X obj 108 384 sig~;
#X msg 108 288 \$1 300 35;
#X text 12 72 Zipper noise using a ramp with a control object.;
#X obj 108 420 tabwrite~ \$0-zipper 750;
#X connect 1 0 0 0;
#X connect 2 0 1 1;
#X connect 2 0 12 0;
#X connect 3 0 1 0;
#X connect 6 0 13 0;
#X connect 7 0 8 0;
#X connect 8 0 6 0;
#X connect 9 0 7 0;
#X connect 12 0 15 0;
#X connect 13 0 2 0;
#X coords 0 0 1 1 250 175 0 0 0;
