#N canvas 506 99 416 464 12;
#X obj 72 204 env~;
#X obj 12 12 cnv 15 250 45 empty empty empty 0 -7 0 10 #cccccc #000000;
#X obj -60 12 freeze;
#X text 24 24 envelope;
#N canvas 823 144 227 476 attack 0;
#X obj 24 60 t b f;
#X f 11;
#X obj 24 168 pack;
#X obj 24 228 route 0 1;
#X obj 24 264 > 55;
#X obj 96 264 < 45;
#X obj 24 300 sel 1;
#X obj 96 300 sel 1;
#X obj 24 132 != 0;
#X obj 24 24 inlet;
#X obj 24 432 outlet;
#X obj 96 336 t 0;
#X obj 24 336 t b 1;
#X obj 24 96 v \$0-a;
#X obj 96 372 v \$0-a;
#X connect 0 0 12 0;
#X connect 0 1 1 1;
#X connect 1 0 2 0;
#X connect 2 0 3 0;
#X connect 2 1 4 0;
#X connect 3 0 5 0;
#X connect 4 0 6 0;
#X connect 5 0 11 0;
#X connect 6 0 10 0;
#X connect 7 0 1 0;
#X connect 8 0 0 0;
#X connect 10 0 13 0;
#X connect 11 0 9 0;
#X connect 11 1 13 0;
#X connect 12 0 7 0;
#X coords 0 0 1 1 250 175 0 0 0;
#X restore 72 288 pd attack;
#N canvas 854 79 415 636 rest 0;
#X obj 36 60 t b f;
#X f 6;
#X obj 36 192 pack;
#X obj 168 288 sel 1;
#X obj 36 132 != 0;
#X obj 168 132 < 45;
#X obj 108 336 timer;
#X obj 108 288 sel 0;
#X obj 36 288 sel 0;
#X obj 108 408 sel 1;
#X obj 36 24 inlet;
#X obj 108 588 outlet;
#X obj 108 372 > 250;
#X obj 36 96 v \$0-r;
#X obj 36 444 t 0;
#X obj 36 504 v \$0-r;
#X obj 36 228 route 1 0;
#X obj 108 444 t b 1;
#X obj 288 96 v \$0-r;
#X obj 288 24 loadbang;
#X obj 288 60 t 1;
#X connect 0 0 12 0;
#X connect 0 1 4 0;
#X connect 1 0 15 0;
#X connect 2 0 5 1;
#X connect 3 0 1 0;
#X connect 4 0 1 1;
#X connect 4 0 6 0;
#X connect 5 0 11 0;
#X connect 6 0 5 0;
#X connect 7 0 13 0;
#X connect 8 0 16 0;
#X connect 9 0 0 0;
#X connect 11 0 8 0;
#X connect 12 0 3 0;
#X connect 13 0 14 0;
#X connect 15 0 7 0;
#X connect 15 1 2 0;
#X connect 16 0 10 0;
#X connect 16 1 14 0;
#X connect 18 0 19 0;
#X connect 19 0 17 0;
#X coords 0 0 1 1 250 175 0 0 0;
#X restore 168 288 pd rest;
#N canvas 493 191 453 367 init 0;
#N canvas 0 22 500 350 \$0-table 0;
#X array \$0-table 39075 float 2;
#X coords 0 1 39075 -1 250 175 1 0 0;
#X restore 36 156 graph \$0-table;
#X obj 36 24 loadbang;
#X obj 36 96 soundfiler;
#X msg 36 60 read -resize sound.wav \$0-table;
#X connect 1 0 3 0;
#X connect 3 0 2 0;
#X coords 0 0 1 1 250 175 0 0 0;
#X restore 312 408 pd init;
#X obj 36 144 tabplay~ \$0-table;
#X obj 36 108 bng 15 250 50 0 empty empty empty 17 7 0 10 #ffffff #000000 #000000;
#X obj 36 372 output~;
#X obj 72 240 t f f;
#X text 12 72 Simple envelope follower.;
#X obj 168 324 bng 15 250 50 0 empty empty empty 17 7 0 10 #ffffff #000000 #000000;
#X obj 72 324 bng 15 250 50 0 empty empty empty 17 7 0 10 #ffffff #000000 #000000;
#X connect 0 0 10 0;
#X connect 4 0 13 0;
#X connect 5 0 12 0;
#X connect 7 0 9 0;
#X connect 7 0 0 0;
#X connect 8 0 7 0;
#X connect 10 0 4 0;
#X connect 10 1 5 0;
#X coords 0 0 1 1 250 175 0 0 0;
