#N canvas 436 57 617 705 12;
#N canvas 0 22 450 300 \$0-out 0;
#X array \$0-out 22050 float 0;
#X coords 0 1 22049 0 300 200 1 0 0;
#X restore 288 108 graph \$0-out;
#X obj 132 348 phasor~ 5;
#X obj 36 348 phasor~ 7;
#X obj 36 396 samphold~;
#X obj 36 480 *~ 48;
#X obj 36 504 +~ 36;
#X obj 36 576 osc~;
#X obj 36 612 output~;
#X obj 12 12 cnv 15 250 45 empty empty empty 0 -7 0 10 #cccccc #000000;
#X text 24 24 hold;
#X obj -60 12 freeze;
#X text 12 72 Sample and hold.;
#X obj 36 528 mtof~;
#X obj 84 444 tabwrite~ \$0-out 1000;
#X obj 36 264 unpack;
#X msg 36 228 32 96.33;
#X msg 36 156 5 7;
#X msg 36 108 1 5;
#X msg 36 132 2 11;
#X msg 36 180 3.7 8.8;
#X msg 36 204 3.4 8.9;
#X floatatom 36 312 5 0 0 1 - - -;
#X f 5;
#X floatatom 132 312 5 0 0 1 - - -;
#X f 5;
#X connect 1 0 3 1;
#X connect 2 0 3 0;
#X connect 3 0 4 0;
#X connect 3 0 13 0;
#X connect 4 0 5 0;
#X connect 5 0 12 0;
#X connect 6 0 7 0;
#X connect 12 0 6 0;
#X connect 14 0 21 0;
#X connect 14 1 22 0;
#X connect 15 0 14 0;
#X connect 16 0 14 0;
#X connect 17 0 14 0;
#X connect 18 0 14 0;
#X connect 19 0 14 0;
#X connect 20 0 14 0;
#X connect 21 0 2 0;
#X connect 22 0 1 0;
#X coords 0 0 1 1 250 175 0 0 0;
