#N canvas 548 172 398 340 12;
#X obj 36 252 output~;
#X obj 12 12 cnv 15 250 45 empty empty empty 0 -7 0 10 #cccccc #000000;
#X obj -60 12 freeze;
#X text 24 24 monophonic;
#X text 12 72 Monophonic MIDI synthesizer.;
#N canvas 171 155 242 468 midi 0;
#X obj 84 312 notein;
#X obj 36 252 pack;
#X f 15;
#X obj 36 24 inlet;
#X obj 36 420 outlet;
#X obj 84 348 pack;
#X obj 36 72 t f b;
#X obj 36 204 makenote 90 250;
#X obj 120 120 random 40;
#X obj 120 156 + 70;
#X connect 0 0 4 0;
#X connect 0 1 4 1;
#X connect 1 0 3 0;
#X connect 2 0 5 0;
#X connect 4 0 3 0;
#X connect 5 0 6 0;
#X connect 5 1 7 0;
#X connect 6 0 1 0;
#X connect 6 1 1 1;
#X connect 7 0 8 0;
#X connect 8 0 6 1;
#X coords 0 0 1 1 250 175 0 0 0;
#X restore 36 180 pd midi;
#X msg 36 108 48;
#X msg 36 132 55;
#N canvas 968 64 301 609 synth 0;
#X obj 36 120 mtof;
#X obj 36 432 *~;
#X obj 36 156 phasor~;
#X obj 36 192 -~ 0.5;
#X obj 36 336 cos~;
#X obj 144 300 *~;
#X obj 36 372 +~ 1;
#X obj 144 372 cos~;
#X obj 36 516 *~;
#X obj 144 336 *~ 2;
#X obj 180 264 +~ 0.5;
#X obj 36 24 inlet;
#X obj 36 552 outlet~;
#N canvas 538 67 385 555 envelope 0;
#X obj 156 108 unpack;
#X msg 156 396 0 1000;
#X obj 288 252 / 127;
#X obj 36 24 inlet;
#X obj 156 504 outlet;
#X obj 216 204 select 0;
#X msg 288 396 \$1 100;
#X obj 36 108 stripnote;
#X obj 156 324 ==;
#X obj 156 360 select 1;
#X obj 156 252 f;
#X obj 36 60 t l l;
#X obj 156 144 swap;
#X f 6;
#X obj 36 168 t f f;
#X obj 36 504 outlet;
#X connect 0 0 12 0;
#X connect 0 1 12 1;
#X connect 1 0 4 0;
#X connect 2 0 6 0;
#X connect 3 0 11 0;
#X connect 5 0 10 0;
#X connect 5 1 2 0;
#X connect 6 0 4 0;
#X connect 7 0 13 0;
#X connect 8 0 9 0;
#X connect 9 0 1 0;
#X connect 10 0 8 0;
#X connect 11 0 7 0;
#X connect 11 1 0 0;
#X connect 12 0 5 0;
#X connect 12 1 10 1;
#X connect 13 0 14 0;
#X connect 13 1 8 1;
#X coords 0 0 1 1 250 175 0 0 0;
#X restore 36 72 pd envelope;
#X obj 144 156 line~;
#X connect 0 0 2 0;
#X connect 1 0 8 0;
#X connect 2 0 3 0;
#X connect 3 0 5 0;
#X connect 3 0 4 0;
#X connect 4 0 6 0;
#X connect 5 0 9 0;
#X connect 6 0 1 0;
#X connect 7 0 1 1;
#X connect 8 0 12 0;
#X connect 9 0 7 0;
#X connect 10 0 5 1;
#X connect 11 0 13 0;
#X connect 13 0 0 0;
#X connect 13 1 14 0;
#X connect 14 0 8 1;
#X connect 14 0 10 0;
#X coords 0 0 1 1 250 175 0 0 0;
#X restore 36 204 pd synth;
#X connect 5 0 8 0;
#X connect 6 0 5 0;
#X connect 7 0 5 0;
#X connect 8 0 0 0;
#X coords 0 0 1 1 250 175 0 0 0;
