#N canvas 313 80 536 416 12;
#X obj 36 216 osc~;
#X obj 36 276 *~;
#X obj 36 324 output~;
#X obj 12 12 cnv 15 250 45 empty empty empty 0 -7 0 10 #cccccc #000000;
#X obj -60 12 freeze;
#X text 24 24 envelope (quartic);
#X text 12 72 Quartic-shaped changes sound more uniform than linear ones.;
#X obj 36 108 r \$0-frequency;
#X obj 108 180 r \$0-amplitude;
#N canvas 382 76 153 310 quartic 0;
#X obj 36 156 line~;
#X obj 36 96 sqrt;
#X obj 36 120 sqrt;
#X obj 36 192 *~;
#X obj 36 228 *~;
#X obj 36 60 unpack;
#X obj 36 24 inlet;
#X obj 36 264 outlet~;
#X connect 0 0 3 0;
#X connect 0 0 3 1;
#X connect 1 0 2 0;
#X connect 2 0 0 0;
#X connect 3 0 4 0;
#X connect 3 0 4 1;
#X connect 4 0 7 0;
#X connect 5 0 1 0;
#X connect 5 1 0 1;
#X connect 6 0 5 0;
#X coords 0 0 1 1 250 175 0 0 0;
#X restore 108 216 pd quartic;
#N canvas 382 76 153 310 quartic 0;
#X obj 36 156 line~;
#X obj 36 96 sqrt;
#X obj 36 120 sqrt;
#X obj 36 192 *~;
#X obj 36 228 *~;
#X obj 36 60 unpack;
#X obj 36 24 inlet;
#X obj 36 264 outlet~;
#X connect 0 0 3 0;
#X connect 0 0 3 1;
#X connect 1 0 2 0;
#X connect 2 0 0 0;
#X connect 3 0 4 0;
#X connect 3 0 4 1;
#X connect 4 0 7 0;
#X connect 5 0 1 0;
#X connect 5 1 0 1;
#X connect 6 0 5 0;
#X coords 0 0 1 1 250 175 0 0 0;
#X restore 36 144 pd quartic;
#N canvas 529 589 285 144 init 0;
#X obj 36 24 loadbang;
#X msg 36 60 \; \$0-frequency 1760 \; \$0-amplitude 0;
#X connect 0 0 1 0;
#X coords 0 0 1 1 250 175 0 0 0;
#X restore 108 276 pd init;
#X msg 288 228 \; \$0-amplitude \$1 5000 \;;
#X obj 288 192 tgl 15 0 empty empty empty 17 7 0 10 #ffffff #000000 #000000 0 1;
#X obj 288 108 tgl 15 0 empty empty empty 17 7 0 10 #ffffff #000000 #000000 0 1;
#X msg 288 144 \; \$0-amplitude \$1 1000 \;;
#X obj 288 360 s \$0-frequency;
#X msg 288 288 55 5000;
#X msg 288 312 1760 5000;
#X connect 0 0 1 0;
#X connect 1 0 2 0;
#X connect 7 0 10 0;
#X connect 8 0 9 0;
#X connect 9 0 1 1;
#X connect 10 0 0 0;
#X connect 13 0 12 0;
#X connect 14 0 15 0;
#X connect 17 0 16 0;
#X connect 18 0 16 0;
#X coords 0 0 1 1 250 175 0 0 0;
