#N canvas 260 75 490 581 12;
#X obj 36 444 *~;
#X obj 144 372 osc~;
#X obj 252 264 +~ 69;
#X obj 36 228 adsr 100 50 200 90 1000;
#X obj 252 228 adsr 20 200 100 100 1000;
#X obj 36 492 output~;
#X obj 12 12 cnv 15 250 45 empty empty empty 0 -7 0 10 #cccccc #000000;
#X obj -60 12 freeze;
#X text 24 24 envelope (pitch);
#X obj 144 336 mtof~;
#X obj 36 336 dbtoamp~;
#X obj 36 108 bng 15 250 50 0 empty empty empty 17 7 0 10 #ffffff #000000 #000000;
#X text 12 72 Pitch envelopes support discontinuities.;
#X obj 252 336 snapshot~ 0;
#X floatatom 252 372 5 0 0 1 - - -;
#X f 5;
#X obj 36 144 t 1 -1;
#X obj 132 108 bng 15 250 50 0 empty empty empty 17 7 0 10 #ffffff #000000 #000000;
#X obj 132 144 t 0 0;
#X connect 0 0 5 0;
#X connect 1 0 0 1;
#X connect 2 0 9 0;
#X connect 2 0 13 0;
#X connect 3 0 10 0;
#X connect 4 0 2 0;
#X connect 9 0 1 0;
#X connect 10 0 0 0;
#X connect 11 0 15 0;
#X connect 13 0 14 0;
#X connect 15 0 3 0;
#X connect 15 1 4 0;
#X connect 16 0 17 0;
#X connect 17 0 3 0;
#X connect 17 1 4 0;
#X coords 0 0 1 1 250 175 0 0 0;
