#N canvas 670 124 300 447 12;
#X obj 36 324 osc~;
#X obj 36 276 line~;
#X obj 12 12 cnv 15 275 45 empty empty empty 0 -7 0 10 #cccccc #000000;
#X obj -60 12 freeze;
#X text 24 24 envelope (portamento);
#X obj 36 360 output;
#X obj 36 300 mtof~;
#X floatatom 36 216 5 0 0 1 - - -;
#X f 5;
#X obj 36 144 tgl 15 0 empty empty empty 17 7 0 10 #ffffff #000000 #000000 0 1;
#N canvas 475 147 330 360 pitches 0;
#X obj 36 192 list store 36 48 60 67 72 74 76 84 96;
#X msg 36 156 get \$1 1;
#X obj 36 72 metro 500;
#X obj 36 96 counter;
#X obj 36 24 inlet;
#X obj 36 312 outlet;
#X obj 84 228 loadbang;
#X obj 84 264 t 72;
#X obj 36 120 % 9;
#X connect 0 0 5 0;
#X connect 1 0 0 0;
#X connect 2 0 3 0;
#X connect 3 0 8 0;
#X connect 4 0 2 0;
#X connect 6 0 7 0;
#X connect 7 0 5 0;
#X connect 8 0 1 0;
#X coords 0 0 1 1 250 175 0 0 0;
#X restore 36 180 pd pitches;
#X obj 36 252 pack f 100;
#X obj 36 108 dspstatus;
#X text 12 72 Portamento sweep in pitch.;
#X connect 0 0 5 0;
#X connect 1 0 6 0;
#X connect 6 0 0 0;
#X connect 7 0 10 0;
#X connect 8 0 9 0;
#X connect 9 0 7 0;
#X connect 10 0 1 0;
#X connect 11 0 8 0;
#X coords 0 0 1 1 250 175 0 0 0;
