#N canvas 330 83 408 494 12;
#X obj 36 360 osc~;
#X obj 36 288 line~;
#X obj 12 12 cnv 15 250 45 empty empty empty 0 -7 0 10 #cccccc #000000;
#X obj -60 12 freeze;
#X text 24 24 envelope (portamento);
#X text 12 72 Portamento sweep in pitch (not frequency).;
#X obj 36 408 output~;
#X obj 36 324 mtof~;
#X floatatom 36 216 5 0 0 1 - - -;
#X f 5;
#X obj 36 144 tgl 15 0 empty empty empty 17 7 0 10 #ffffff #000000 #000000 0 1;
#N canvas 475 143 389 428 pitches 0;
#X obj 36 240 list store 36 48 60 67 72 74 76 84 96;
#X msg 36 204 get \$1 1;
#X obj 36 72 metro 500;
#X obj 36 132 counter;
#X msg 144 72 reset \, bang;
#X obj 36 24 inlet;
#X obj 36 384 outlet;
#X obj 84 288 loadbang;
#X obj 84 324 t 72;
#X obj 36 168 - 1;
#X connect 0 0 6 0;
#X connect 0 1 4 0;
#X connect 1 0 0 0;
#X connect 2 0 3 0;
#X connect 3 0 9 0;
#X connect 4 0 3 0;
#X connect 5 0 2 0;
#X connect 7 0 8 0;
#X connect 8 0 6 0;
#X connect 9 0 1 0;
#X coords 0 0 1 1 250 175 0 0 0;
#X restore 36 180 pd pitches;
#X obj 36 252 pack f 100;
#X obj 36 108 dspstatus;
#X connect 0 0 6 0;
#X connect 1 0 7 0;
#X connect 7 0 0 0;
#X connect 8 0 11 0;
#X connect 9 0 10 0;
#X connect 10 0 8 0;
#X connect 11 0 1 0;
#X connect 12 0 9 0;
#X coords 0 0 1 1 250 175 0 0 0;
