#N canvas 351 99 513 514 12;
#N canvas 546 100 706 387 samples 0;
#X obj 36 24 loadbang;
#X obj 36 96 soundfiler;
#N canvas 0 22 500 350 \$0-sample1 0;
#X array \$0-sample1 62079 float 2;
#X coords 0 1 62079 -1 250 175 1 0 0;
#X restore 36 168 graph \$0-sample1;
#N canvas 0 22 500 350 \$0-sample2 0;
#X array \$0-sample2 34475 float 2;
#X coords 0 1 34475 -1 250 175 1 0 0;
#X restore 324 168 graph \$0-sample2;
#X msg 36 60 read -resize voice.wav \$0-sample1 \, read -resize you.aiff \$0-sample2;
#X f 68;
#X connect 0 0 4 0;
#X connect 4 0 1 0;
#X coords 0 0 1 1 250 175 0 0 0;
#X restore 168 372 pd samples;
#N canvas 370 56 522 687 playback 0;
#X obj 36 132 line~;
#X obj 300 132 line~;
#X obj 36 360 *~;
#X obj 36 636 outlet~;
#X obj 372 132 unpack;
#X f 12;
#X obj 372 204 sqrt;
#X obj 372 228 sqrt;
#X obj 372 264 line~;
#X obj 36 600 *~;
#X obj 372 300 *~;
#X obj 372 336 *~;
#X obj 36 192 tabread4~ \$0-sample1;
#X obj 36 24 inlet;
#X msg 132 132 set \$0-sample\$1;
#X obj 36 72 route phase sample cutoff envelope;
#X f 46;
#X obj 372 168 dbtoamp;
#X connect 0 0 11 0;
#X connect 1 0 2 1;
#X connect 2 0 8 0;
#X connect 4 0 15 0;
#X connect 4 1 7 1;
#X connect 5 0 6 0;
#X connect 6 0 7 0;
#X connect 7 0 9 0;
#X connect 7 0 9 1;
#X connect 8 0 3 0;
#X connect 9 0 10 0;
#X connect 9 0 10 1;
#X connect 10 0 8 1;
#X connect 11 0 2 0;
#X connect 12 0 14 0;
#X connect 13 0 11 0;
#X connect 14 0 0 0;
#X connect 14 1 13 0;
#X connect 14 2 1 0;
#X connect 14 3 4 0;
#X connect 15 0 5 0;
#X coords 0 0 1 1 250 175 0 0 0;
#X restore 36 372 pd playback;
#X msg 36 108 60 100 10000 1 0 0 0;
#X msg 36 156 60 90 10000 1 0 0 0;
#X msg 36 180 60 100 10000 2 0 0 0;
#X msg 36 252 60 100 100 1 0 0 0;
#X msg 36 276 60 100 100 1 0 0 1000;
#X obj 36 420 output~;
#X msg 36 228 60 100 10000 1 0 750 0;
#X obj 12 12 cnv 15 250 45 empty empty empty 0 -7 0 10 #cccccc #000000;
#X obj -60 12 freeze;
#X text 24 24 sampler (notes);
#X text 12 72 One-shot sampler with transposition.;
#X msg 36 132 48 100 10000 1 0 0 0;
#X msg 36 204 55 100 10000 2 500 0 0;
#X text 276 108 Straight playback.;
#X text 276 132 Change pitch.;
#X text 276 156 Change amplitude.;
#X text 276 180 Change sample.;
#X text 276 204 Change start location.;
#X text 276 228 Change rise time.;
#X text 276 252 Change duration.;
#X text 276 276 Change decay time.;
#N canvas 606 73 322 302 control 0;
#X obj 36 24 inlet;
#X obj 36 60 t 1 l 0;
#X obj 36 252 outlet;
#X obj 156 144 pack f 5;
#N canvas 323 39 772 623 control 0;
#X obj 36 96 delay 5;
#X obj 192 132 unpack 0 0 0 0 0 0 0;
#X f 20;
#X obj 336 204 f;
#X obj 288 204 f;
#X obj 240 204 f;
#X obj 192 204 f;
#X obj 84 204 f;
#X obj 36 204 f;
#X obj 36 264 mtof;
#X obj 36 300 / 261.62;
#X obj 36 336 * 4.41e+08;
#X obj 36 384 +;
#X obj 132 204 delay;
#X obj 144 336 + 1;
#X obj 144 264 * 44.1;
#X obj 36 24 inlet;
#X obj 36 60 t b l;
#X f 10;
#X text 444 24 1- Pitch.;
#X text 444 48 2- Amplitude (decibels).;
#X text 444 72 3- Duration (milliseconds).;
#X text 444 96 4- Sample number.;
#X text 444 120 5- Start location (milliseconds).;
#X text 444 144 6- Rise time (milliseconds).;
#X text 444 168 7- Decay time (milliseconds).;
#X obj 36 132 t b b b b b b;
#X f 15;
#X obj 336 576 outlet;
#X msg 336 480 sample \$1;
#X msg 336 432 envelope 0 \$1;
#X obj 240 264 pack;
#X msg 336 456 envelope 0 \, envelope \$1 \$2;
#X msg 336 528 phase \$1 1e+07;
#X msg 336 504 phase \$2;
#X connect 0 0 24 0;
#X connect 1 0 7 1;
#X connect 1 1 6 1;
#X connect 1 2 12 1;
#X connect 1 3 5 1;
#X connect 1 4 4 1;
#X connect 1 5 3 1;
#X connect 1 6 2 1;
#X connect 2 0 27 0;
#X connect 3 0 28 1;
#X connect 4 0 14 0;
#X connect 5 0 26 0;
#X connect 6 0 28 0;
#X connect 7 0 8 0;
#X connect 8 0 9 0;
#X connect 9 0 10 0;
#X connect 10 0 11 0;
#X connect 11 0 30 0;
#X connect 12 0 2 0;
#X connect 13 0 11 1;
#X connect 13 0 31 0;
#X connect 14 0 13 0;
#X connect 15 0 16 0;
#X connect 16 0 0 0;
#X connect 16 1 1 0;
#X connect 24 0 6 0;
#X connect 24 1 7 0;
#X connect 24 2 12 0;
#X connect 24 3 5 0;
#X connect 24 4 4 0;
#X connect 24 5 3 0;
#X connect 26 0 25 0;
#X connect 27 0 25 0;
#X connect 28 0 29 0;
#X connect 29 0 25 0;
#X connect 30 0 25 0;
#X connect 31 0 25 0;
#X coords 0 0 1 1 250 175 0 0 0;
#X restore 36 144 pd control;
#X f 10;
#X obj 156 180 prepend cutoff;
#X connect 0 0 1 0;
#X connect 1 0 3 0;
#X connect 1 1 4 0;
#X connect 1 2 3 0;
#X connect 3 0 5 0;
#X connect 4 0 2 0;
#X connect 5 0 2 0;
#X coords 0 0 1 1 250 175 0 0 0;
#X restore 36 336 pd control;
#X connect 1 0 7 0;
#X connect 2 0 23 0;
#X connect 3 0 23 0;
#X connect 4 0 23 0;
#X connect 5 0 23 0;
#X connect 6 0 23 0;
#X connect 8 0 23 0;
#X connect 13 0 23 0;
#X connect 14 0 23 0;
#X connect 23 0 1 0;
#X coords 0 0 1 1 250 175 0 0 0;
