#N canvas 381 74 576 667 12;
#N canvas 459 115 603 396 samples 0;
#N canvas 0 22 500 350 sample1 0;
#X array sample1 34475 float 2;
#X coords 0 1 34475 -1 250 175 1 0 0;
#X restore 36 180 graph sample1;
#N canvas 0 22 500 350 sample2 0;
#X array sample2 39075 float 2;
#X coords 0 1 39075 -1 250 175 1 0 0;
#X restore 312 180 graph sample2;
#X obj 36 24 loadbang;
#X obj 36 120 soundfiler;
#X msg 36 72 read -resize you.aiff sample1 \, read -resize sound.wav sample2;
#X f 62;
#X connect 2 0 4 0;
#X connect 4 0 3 0;
#X coords 0 0 1 1 250 175 0 0 0;
#X restore 408 540 pd samples;
#X obj 36 372 sampvoice;
#X obj 168 204 r note;
#X obj 168 300 route 1 2 3 4 5 6 7 8;
#X obj 36 204 qlist;
#X obj 252 204 r comment;
#X obj 36 576 output~;
#X obj 36 540 sampvoice;
#X obj 36 516 sampvoice;
#X obj 36 492 sampvoice;
#X obj 36 468 sampvoice;
#X obj 36 444 sampvoice;
#X obj 36 420 sampvoice;
#X obj 36 396 sampvoice;
#X obj 252 240 print;
#X obj 12 12 cnv 15 250 45 empty empty empty 0 -7 0 10 #cccccc #000000;
#X obj -60 12 freeze;
#X text 24 24 sampler (polyphonic);
#X text 12 96 He begs his sailors to untie him...;
#X f 35;
#X text 12 72 Lashed to the mast of his boat \, Ulysses hears beautiful singing.;
#X f 64;
#X msg 36 144 read ulysses.txt \, rewind \, tempo 1 \, bang;
#N canvas 0 22 948 537 tag 0;
#X obj 396 84 unpack 0 0 0 0 0 0 0;
#X obj 360 108 t b f;
#X obj 300 144 f;
#X obj 336 144 + 1;
#X obj 312 180 mod 1e+06;
#X obj 300 216 makenote 64;
#X obj 300 240 poly 8 1;
#X obj 300 264 stripnote;
#X obj 372 312 pack 0 0 0 0 0 0 0 0;
#X text 96 240 allocate sampler voice;
#X text 120 264 drop note off again;
#X text 12 144 increment mod 1e+06 to make tag;
#X text 36 168 (acts like a MIDI pitch to;
#X text 36 180 identify the note to "poly");
#X text 24 216 supply delayed note-off message;
#X obj 312 60 inlet;
#X obj 360 396 outlet;
#X connect 0 0 1 0;
#X connect 0 1 8 2;
#X connect 0 2 5 2;
#X connect 0 2 8 3;
#X connect 0 3 8 4;
#X connect 0 4 8 5;
#X connect 0 5 8 6;
#X connect 0 6 8 7;
#X connect 1 0 2 0;
#X connect 1 1 8 1;
#X connect 2 0 3 0;
#X connect 2 0 5 0;
#X connect 3 0 4 0;
#X connect 4 0 2 1;
#X connect 5 0 6 0;
#X connect 5 1 6 1;
#X connect 6 0 7 0;
#X connect 6 2 7 1;
#X connect 7 0 8 0;
#X connect 8 0 16 0;
#X connect 15 0 0 0;
#X coords 0 0 1 1 250 175 0 0 0;
#X restore 168 240 pd tag;
#X connect 1 0 13 0;
#X connect 2 0 21 0;
#X connect 3 0 1 1;
#X connect 3 1 13 1;
#X connect 3 2 12 1;
#X connect 3 3 11 1;
#X connect 3 4 10 1;
#X connect 3 5 9 1;
#X connect 3 6 8 1;
#X connect 3 7 7 1;
#X connect 5 0 14 0;
#X connect 7 0 6 0;
#X connect 8 0 7 0;
#X connect 9 0 8 0;
#X connect 10 0 9 0;
#X connect 11 0 10 0;
#X connect 12 0 11 0;
#X connect 13 0 12 0;
#X connect 20 0 4 0;
#X connect 21 0 3 0;
#X coords 0 0 1 1 250 175 0 0 0;
