#N canvas 381 74 479 609 12;
#N canvas 459 115 658 397 samples 0;
#N canvas 0 22 500 350 \$0-sample1 0;
#X array \$0-sample1 34475 float 2;
#X coords 0 1 34475 -1 250 175 1 0 0;
#X restore 36 180 graph \$0-sample1;
#N canvas 0 22 500 350 \$0-sample2 0;
#X array \$0-sample2 39075 float 2;
#X coords 0 1 39075 -1 250 175 1 0 0;
#X restore 312 180 graph \$0-sample2;
#X obj 36 24 loadbang;
#X obj 36 120 soundfiler;
#X msg 36 72 read -resize you.aiff \$0-sample1 \, read -resize sound.wav \$0-sample2;
#X f 67;
#X connect 2 0 4 0;
#X connect 4 0 3 0;
#X coords 0 0 1 1 250 175 0 0 0;
#X restore 240 480 pd samples;
#X obj 240 156 r note;
#X obj 240 240 route 1 2 3 4 5 6 7 8;
#X obj 36 156 qlist;
#X obj 360 156 r comment;
#X obj 36 516 output~;
#X obj 360 192 print;
#X obj 12 12 cnv 15 250 45 empty empty empty 0 -7 0 10 #cccccc #000000;
#X obj -60 12 freeze;
#X text 24 24 sampler (polyphonic);
#X msg 36 108 read ulysses.txt \, rewind \, tempo 1 \, bang;
#N canvas 204 62 338 307 dispatch 0;
#X obj 36 24 inlet;
#X obj 36 252 outlet;
#N canvas 487 96 210 362 tag 0;
#X obj 36 180 makenote 64;
#X obj 36 216 poly 8 1;
#X f 11;
#X obj 36 252 stripnote;
#X f 11;
#X obj 36 144 counter;
#X obj 36 108 t b;
#X obj 36 72 unpack f f f;
#X obj 36 24 inlet;
#X obj 36 312 outlet;
#X connect 0 0 1 0;
#X connect 0 1 1 1;
#X connect 1 0 2 0;
#X connect 1 2 2 1;
#X connect 2 0 7 0;
#X connect 3 0 0 0;
#X connect 4 0 3 0;
#X connect 5 0 4 0;
#X connect 5 2 0 2;
#X connect 6 0 5 0;
#X coords 0 0 1 1 250 175 0 0 0;
#X restore 36 120 pd tag;
#X obj 36 72 t l l;
#X obj 120 120 unpack f f f f f f f;
#X obj 36 192 pack f f f f f f f f;
#X f 21;
#X connect 0 0 3 0;
#X connect 2 0 5 0;
#X connect 3 0 2 0;
#X connect 3 1 4 0;
#X connect 4 0 5 1;
#X connect 4 1 5 2;
#X connect 4 2 5 3;
#X connect 4 3 5 4;
#X connect 4 4 5 5;
#X connect 4 5 5 6;
#X connect 4 6 5 7;
#X connect 5 0 1 0;
#X coords 0 0 1 1 250 175 0 0 0;
#X restore 240 192 pd dispatch;
#X text 12 72 One-shot sampler become polyphonic.;
#X obj 36 360 sampler \$0-sample;
#X obj 36 312 sampler \$0-sample;
#X obj 36 336 sampler \$0-sample;
#X obj 36 384 sampler \$0-sample;
#X obj 36 408 sampler \$0-sample;
#X obj 36 432 sampler \$0-sample;
#X obj 36 456 sampler \$0-sample;
#X obj 36 480 sampler \$0-sample;
#X connect 1 0 11 0;
#X connect 2 0 14 1;
#X connect 2 1 15 1;
#X connect 2 2 13 1;
#X connect 2 3 16 1;
#X connect 2 4 17 1;
#X connect 2 5 18 1;
#X connect 2 6 19 1;
#X connect 2 7 20 1;
#X connect 4 0 6 0;
#X connect 10 0 3 0;
#X connect 11 0 2 0;
#X connect 13 0 16 0;
#X connect 14 0 15 0;
#X connect 15 0 13 0;
#X connect 16 0 17 0;
#X connect 17 0 18 0;
#X connect 18 0 19 0;
#X connect 19 0 20 0;
#X connect 20 0 5 0;
#X coords 0 0 1 1 250 175 0 0 0;
