#N canvas 469 44 775 666 12;
#X obj 36 264 osc-voice amp1 pit1;
#X obj 36 288 osc-voice amp2 pit2;
#X obj 36 312 osc-voice amp3 pit3;
#X obj 36 336 osc-voice amp4 pit4;
#X obj 36 360 osc-voice amp5 pit5;
#X obj 36 384 osc-voice amp6 pit6;
#X obj 36 408 osc-voice amp7 pit7;
#X obj 36 432 osc-voice amp8 pit8;
#X msg 300 300 rewind;
#X msg 300 324 next;
#X obj 48 492 output~;
#X obj 12 12 cnv 15 250 45 empty empty empty 0 -7 0 10 #cccccc #000000;
#X obj -60 12 freeze;
#X text 24 24 additive (qlist);
#X text 12 72 An eight voice additive synthesis patch controlled by a qlist.;
#X f 62;
#X obj 300 420 qlist additive.txt;
#X msg 300 228 unit 1 \, bang;
#X msg 300 252 unit 5 \, bang;
#X obj 468 228 r #;
#X connect 0 0 1 0;
#X connect 1 0 2 0;
#X connect 2 0 3 0;
#X connect 3 0 4 0;
#X connect 4 0 5 0;
#X connect 5 0 6 0;
#X connect 6 0 7 0;
#X connect 7 0 10 0;
#X connect 8 0 15 0;
#X connect 9 0 15 0;
#X connect 16 0 15 0;
#X connect 17 0 15 0;
#X coords 0 0 1 1 250 175 0 0 0;
