#N canvas 469 44 575 506 12;
#X obj 36 420 output~;
#X obj 12 12 cnv 15 250 45 empty empty empty 0 -7 0 10 #cccccc #000000;
#X obj -60 12 freeze;
#X text 24 24 additive (qlist);
#X text 12 72 An eight voice additive synthesis patch controlled by a qlist.;
#X f 62;
#X obj 36 180 qlist additive.txt;
#X msg 36 108 unit 1 \, bang;
#X obj 312 216 r #;
#X obj 36 216 additive amplitude1 pitch1;
#X obj 36 240 additive amplitude2 pitch2;
#X obj 36 264 additive amplitude3 pitch3;
#X obj 36 288 additive amplitude4 pitch4;
#X obj 36 312 additive amplitude5 pitch5;
#X obj 36 336 additive amplitude6 pitch6;
#X obj 36 360 additive amplitude7 pitch7;
#X obj 36 384 additive amplitude8 pitch8;
#X msg 36 132 unit 4 \, bang;
#X connect 6 0 5 0;
#X connect 8 0 9 0;
#X connect 9 0 10 0;
#X connect 10 0 11 0;
#X connect 11 0 12 0;
#X connect 12 0 13 0;
#X connect 13 0 14 0;
#X connect 14 0 15 0;
#X connect 15 0 0 0;
#X connect 16 0 5 0;
#X coords 0 0 1 1 250 175 0 0 0;
