#N canvas 529 84 583 709 12;
#X obj 132 324 *~;
#X obj 192 288 line~;
#X obj 36 468 cos~;
#X obj 36 432 +~;
#X obj 192 252 pack 0 50;
#X obj 36 144 phasor~;
#X obj 36 612 output~;
#X obj 132 144 osc~;
#X obj 300 324 *~;
#X obj 360 288 line~;
#X obj 360 252 pack 0 50;
#X obj 300 144 osc~;
#X obj 12 12 cnv 15 250 45 empty empty empty 0 -7 0 10 #cccccc #000000;
#X obj -60 12 freeze;
#X text 24 24 PM (complex);
#X text 12 72 Spectrum of complex phase modulation.;
#N canvas 0 22 500 350 \$0-spectrum 0;
#X array \$0-spectrum 256 float 1;
#A 0 1.97384e-12 0 0 0 0 0 0 0 0 0 0 0 0 0 0 0 0 0 0 0 0 0 0 0 0 0 0 0 0 0 0 0 0 0 0 0 0 0 0 0 0 0 0 0 0 0 0 0 0 0 0 0 0 0 0 0 0 0 0 0 0 0 0 0 0 0 0 0 0 0 0 0 0 0 0 0 0 0 0 0 0 0 0 0 0 0 0 0 0 0 0 0 0 0 0 0 0 0 0 0 0 0 0 0 0 0 0 0 0 0 0 0 0 0 0 0 0 0 0 0 0 0 0 0 0 0 0 0 2048 0 0 0 0 0 0 0 0 0 0 0 0 0 0 0 0 0 0 0 0 0 0 0 0 0 0 0 0 0 0 0 0 0 0 0 0 0 0 0 0 0 0 0 0 0 0 0 0 0 0 0 0 0 0 0 0 0 0 0 0 0 0 0 0 0 0 0 0 0 0 0 0 0 0 0 0 0 0 0 0 0 0 0 0 0 0 0 0 0 0 0 0 0 0 0 0 0 0 0 0 0 0 0 0 0 0 0 0 0 0 0 0 0 0 0 0 0 0 0 0 0 0 0 0 0 0 0;
#X coords 0 4096 255 0 250 175 1 0 0;
#X restore 300 408 graph \$0-spectrum;
#N canvas 513 100 336 346 init 0;
#X obj 36 108 samplerate~;
#X floatatom 36 180 5 0 0 0 - - -;
#X f 5;
#X obj 36 144 / 256;
#X obj 108 36 loadbang;
#X obj 36 36 inlet;
#X obj 36 288 s \$0-fc;
#X obj 36 252 * 8;
#X obj 120 252 * 2;
#X obj 120 288 s \$0-fm1;
#X obj 216 288 s \$0-fm2;
#X obj 216 252 * 3;
#X obj 36 216 t f f f;
#X f 20;
#X connect 0 0 2 0;
#X connect 1 0 11 0;
#X connect 2 0 1 0;
#X connect 3 0 0 0;
#X connect 4 0 0 0;
#X connect 6 0 5 0;
#X connect 7 0 8 0;
#X connect 10 0 9 0;
#X connect 11 0 6 0;
#X connect 11 1 7 0;
#X connect 11 2 10 0;
#X coords 0 0 1 1 250 175 0 0 0;
#X restore 300 636 pd init;
#X obj 300 600 bng 15 250 50 0 empty empty empty 17 7 0 10 #ffffff #000000 #000000;
#X floatatom 36 108 5 0 0 1 - #0-fc -;
#X f 5;
#X floatatom 132 108 5 0 0 1 - #0-fm1 -;
#X f 5;
#X floatatom 300 108 5 0 0 1 - #0-fm2 -;
#X f 5;
#X obj 192 192 nbx 5 40 0 1 0 0 empty empty empty 0 -7 0 10 #ffffff #000000 #000000 0 100;
#X obj 360 192 nbx 5 40 0 1 0 0 empty empty empty 0 -7 0 10 #ffffff #000000 #000000 0 100;
#N canvas 220 210 464 186 fft 0;
#X obj 36 24 inlet~;
#X obj 36 60 rfft~;
#X obj 300 132 block~ 4096 1;
#X obj 36 132 tabwrite~ \$0-spectrum 500;
#X obj 36 96 mag~;
#X connect 0 0 1 0;
#X connect 1 0 4 0;
#X connect 1 1 4 1;
#X connect 4 0 3 0;
#X coords 0 0 1 1 250 175 0 0 0;
#X restore 84 528 pd fft;
#X connect 0 0 3 1;
#X connect 1 0 0 1;
#X connect 2 0 6 0;
#X connect 2 0 24 0;
#X connect 3 0 2 0;
#X connect 4 0 1 0;
#X connect 5 0 3 0;
#X connect 7 0 0 0;
#X connect 8 0 3 1;
#X connect 9 0 8 1;
#X connect 10 0 9 0;
#X connect 11 0 8 0;
#X connect 18 0 17 0;
#X connect 19 0 5 0;
#X connect 20 0 7 0;
#X connect 21 0 11 0;
#X connect 22 0 4 0;
#X connect 23 0 10 0;
#X coords 0 0 1 1 250 175 0 0 0;
