#N canvas 551 94 425 504 12;
#X obj 36 384 cos~;
#X obj 36 240 -~ 0.5;
#X obj 36 312 *~;
#X f 3;
#X obj 36 348 clip~ -0.5 0.5;
#X obj 168 132 *~;
#X obj 168 240 +~ 0.5;
#X obj 168 168 lop~ 130;
#X obj 168 204 *~ 6;
#X obj 12 12 cnv 15 250 45 empty empty empty 0 -7 0 10 #cccccc #000000;
#X obj -60 12 freeze;
#X obj 36 420 output~;
#X obj 168 84 phasor~ -4;
#X obj 36 156 phasor~ 220;
#X obj 36 120 line~;
#X text 24 24 pulse (no means no);
#N canvas 796 186 399 383 frequency 0;
#X obj 36 96 t b b;
#X obj 36 60 metro 100;
#X obj 36 228 pack;
#X obj 36 336 outlet;
#X obj 36 300 pack 0 30;
#X obj 36 180 + 150;
#X obj 36 144 random 300;
#X obj 36 24 dspstatus;
#X obj 168 144 expr (rand()*35)^2+100;
#X obj 36 264 line 0 30;
#X connect 0 0 6 0;
#X connect 0 1 8 0;
#X connect 1 0 0 0;
#X connect 2 0 9 0;
#X connect 4 0 3 0;
#X connect 5 0 2 0;
#X connect 6 0 5 0;
#X connect 7 0 1 0;
#X connect 8 0 1 1;
#X connect 8 0 2 1;
#X connect 9 0 4 0;
#X coords 0 0 1 1 250 175 0 0 0;
#X restore 36 84 pd frequency;
#X connect 0 0 10 0;
#X connect 1 0 2 0;
#X connect 2 0 3 0;
#X connect 3 0 0 0;
#X connect 4 0 6 0;
#X connect 5 0 2 1;
#X connect 6 0 7 0;
#X connect 7 0 5 0;
#X connect 11 0 4 0;
#X connect 11 0 4 1;
#X connect 12 0 1 0;
#X connect 13 0 12 0;
#X connect 15 0 13 0;
#X coords 0 0 1 1 250 175 0 0 0;
