#N canvas 235 84 407 513 12;
#X obj 36 144 metro 400;
#X obj 36 420 output~;
#X msg 96 228 13.5;
#X msg 36 228 4;
#X obj 12 12 cnv 15 250 45 empty empty empty 0 -7 0 10 #cccccc #000000;
#X obj -60 12 freeze;
#X obj 36 108 dspstatus;
#X obj 96 192 delay 200;
#X obj 36 336 pack f 0;
#X floatatom 120 288 5 0 0 1 - - -;
#X f 5;
#X text 24 24 two-cosine (click);
#N canvas 0 22 320 585 cosine 0;
#X obj 36 300 cos~;
#X obj 36 216 *~;
#X obj 156 60 line~;
#X obj 156 300 cos~;
#X obj 240 120 wrap~;
#X obj 156 168 -~;
#X obj 156 264 +~;
#X obj 156 360 -~;
#X obj 156 420 *~;
#X obj 36 492 +~;
#X obj 156 24 inlet;
#X obj 36 540 outlet~;
#X obj 36 60 phasor~ 80;
#X connect 0 0 7 1;
#X connect 0 0 9 0;
#X connect 1 0 0 0;
#X connect 1 0 6 0;
#X connect 2 0 5 0;
#X connect 2 0 4 0;
#X connect 3 0 7 0;
#X connect 4 0 5 1;
#X connect 4 0 8 1;
#X connect 5 0 1 1;
#X connect 6 0 3 0;
#X connect 7 0 8 0;
#X connect 8 0 9 1;
#X connect 9 0 11 0;
#X connect 10 0 2 0;
#X connect 12 0 1 0;
#X connect 12 0 6 1;
#X coords 0 0 1 1 250 175 0 0 0;
#X restore 36 372 pd cosine;
#X text 12 72 Clicks when changing the frequency quickly.;
#X f 44;
#X connect 0 0 3 0;
#X connect 0 0 7 0;
#X connect 2 0 8 0;
#X connect 3 0 8 0;
#X connect 6 0 0 0;
#X connect 7 0 2 0;
#X connect 8 0 11 0;
#X connect 9 0 8 1;
#X connect 11 0 1 0;
#X coords 0 0 1 1 250 175 0 0 0;
