#N canvas 373 143 479 507 12;
#X obj 36 420 output;
#X obj 12 12 cnv 15 250 45 empty empty empty 0 -7 0 10 #cccccc #000000;
#X obj -60 12 freeze;
#X text 24 24 PAF (alternate);
#N canvas 455 69 985 697 waves 0;
#N canvas 598 36 872 597 wave 0;
#X obj 120 216 *~;
#X obj 120 264 cos~;
#X obj 120 288 +~ 1;
#X obj 72 156 -~ 0.5;
#X obj 60 216 *~;
#X obj 60 240 cos~;
#X obj 204 180 samphold~;
#X obj 120 180 samphold~;
#X obj 60 264 *~;
#X obj 120 240 clip~ -0.5 0.5;
#X obj 36 24 inlet~;
#X obj 60 372 outlet~;
#X obj 192 12 inlet~;
#X obj 396 72 inlet~;
#X connect 0 0 9 0;
#X connect 1 0 2 0;
#X connect 2 0 8 1;
#X connect 3 0 0 0;
#X connect 3 0 4 0;
#X connect 4 0 5 0;
#X connect 5 0 8 0;
#X connect 6 0 0 1;
#X connect 7 0 4 1;
#X connect 8 0 11 0;
#X connect 9 0 1 0;
#X connect 10 0 3 0;
#X connect 10 0 7 1;
#X connect 10 0 6 1;
#X connect 12 0 7 0;
#X connect 13 0 6 0;
#X coords 0 0 1 1 250 175 0 0 0;
#X restore 156 300 pd wave;
#N canvas 598 36 872 597 wave 0;
#X obj 120 216 *~;
#X obj 120 264 cos~;
#X obj 120 288 +~ 1;
#X obj 72 156 -~ 0.5;
#X obj 60 216 *~;
#X obj 60 240 cos~;
#X obj 204 180 samphold~;
#X obj 120 180 samphold~;
#X obj 60 264 *~;
#X obj 120 240 clip~ -0.5 0.5;
#X obj 36 24 inlet~;
#X obj 60 372 outlet~;
#X obj 192 12 inlet~;
#X obj 396 72 inlet~;
#X connect 0 0 9 0;
#X connect 1 0 2 0;
#X connect 2 0 8 1;
#X connect 3 0 0 0;
#X connect 3 0 4 0;
#X connect 4 0 5 0;
#X connect 5 0 8 0;
#X connect 6 0 0 1;
#X connect 7 0 4 1;
#X connect 8 0 11 0;
#X connect 9 0 1 0;
#X connect 10 0 3 0;
#X connect 10 0 7 1;
#X connect 10 0 6 1;
#X connect 12 0 7 0;
#X connect 13 0 6 0;
#X coords 0 0 1 1 250 175 0 0 0;
#X restore 72 300 pd wave;
#X obj 72 384 +~;
#X obj 72 432 outlet~;
#X obj 60 96 phasor~;
#X obj 300 192 +~ 0.5;
#X obj 300 228 wrap~;
#X obj 60 36 inlet;
#X obj 240 60 inlet~;
#X obj 348 60 inlet~;
#X obj 348 96 max~ 1;
#X connect 0 0 2 1;
#X connect 1 0 2 0;
#X connect 2 0 3 0;
#X connect 4 0 1 0;
#X connect 4 0 5 0;
#X connect 5 0 6 0;
#X connect 6 0 0 0;
#X connect 7 0 4 0;
#X connect 8 0 1 1;
#X connect 8 0 0 1;
#X connect 9 0 10 0;
#X connect 10 0 0 2;
#X connect 10 0 1 2;
#X coords 0 0 1 1 250 175 0 0 0;
#X restore 36 384 pd waves;
#X obj 312 216 line~;
#X obj 312 180 pack 0 50;
#X obj 168 180 pack 0 50;
#X obj 168 216 line~;
#X floatatom 36 108 5 0 0 1 - #0-fundamental -;
#X f 5;
#X obj 36 144 mtof;
#X floatatom 168 108 5 0 0 1 - #0-center -;
#X f 5;
#X obj 168 144 mtof;
#X obj 72 336 *~;
#X obj 60 216 expr 1/$f1;
#X obj 192 336 *~;
#X floatatom 312 108 5 0 0 1 - #0-bandwidth -;
#X f 5;
#X obj 312 144 mtof;
#X f 4;
#N canvas 228 81 284 190 init 0;
#X obj 36 24 inlet;
#X obj 108 24 loadbang;
#X msg 36 84 \; \$0-fundamental 60 \; \$0-center 84 \; \$0-bandwidth 60;
#X connect 0 0 2 0;
#X connect 1 0 2 0;
#X coords 0 0 1 1 250 175 0 0 0;
#X restore 312 456 pd init;
#X obj 312 420 bng 15 250 50 0 empty empty empty 17 7 0 10 #ffffff #000000 #000000;
#X text 12 72 Wave packets as an alternative to the PAF algorithm.;
#X connect 4 0 0 0;
#X connect 5 0 15 0;
#X connect 6 0 5 0;
#X connect 7 0 8 0;
#X connect 8 0 13 0;
#X connect 9 0 10 0;
#X connect 10 0 14 0;
#X connect 10 0 4 0;
#X connect 11 0 12 0;
#X connect 12 0 7 0;
#X connect 13 0 4 1;
#X connect 14 0 13 1;
#X connect 14 0 15 1;
#X connect 15 0 4 2;
#X connect 16 0 17 0;
#X connect 17 0 6 0;
#X connect 19 0 18 0;
#X coords 0 0 1 1 250 175 0 0 0;
