#N canvas 267 116 619 389 12;
#X obj 36 24 inlet;
#X obj 36 336 tabwrite \$1;
#X obj 168 336 tabwrite \$2;
#X obj 276 252 - 1;
#X obj 36 60 unpack;
#X obj 168 144 select 0;
#X obj 168 192 t b f;
#X obj 108 24 inlet~;
#X obj 120 48 inlet~;
#X obj 132 72 inlet~;
#X text 276 24 1- Array name for frequency response.;
#X text 276 48 2- Array name for phase response.;
#N canvas 749 115 334 361 graph 0;
#X obj 216 24 inlet~;
#X obj 228 48 inlet~;
#X obj 240 72 inlet~;
#X obj 36 312 outlet;
#X obj 168 312 outlet;
#X obj 36 24 inlet;
#X obj 96 24 inlet;
#N canvas 606 31 683 443 compute 0;
#X obj 36 60 t b b;
#X obj 396 312 atan2;
#X obj 120 144 snapshot~;
#X obj 252 144 snapshot~;
#X obj 396 144 env~ 2048;
#X obj 288 276 f;
#X obj 288 312 dbtopow;
#X obj 396 276 swap;
#X obj 444 240 * -1;
#X obj 36 384 outlet;
#X obj 396 384 outlet;
#X obj 36 24 inlet;
#X obj 120 24 inlet~;
#X obj 252 24 inlet~;
#X obj 396 24 inlet~;
#X obj 120 180 t f b f;
#X f 9;
#X obj 252 180 t f f;
#X f 9;
#X obj 36 348 expr sqrt($f1*$f1+$f2*$f2)/$f3;
#X obj 396 348 expr $f1+(2*pi*lt($f1 \, -0.01));
#X connect 0 0 2 0;
#X connect 0 1 3 0;
#X connect 1 0 18 0;
#X connect 2 0 15 0;
#X connect 3 0 16 0;
#X connect 4 0 5 1;
#X connect 5 0 6 0;
#X connect 6 0 17 2;
#X connect 7 0 1 0;
#X connect 7 1 1 1;
#X connect 8 0 7 1;
#X connect 11 0 0 0;
#X connect 12 0 2 0;
#X connect 13 0 3 0;
#X connect 14 0 4 0;
#X connect 15 0 17 0;
#X connect 15 1 5 0;
#X connect 15 2 7 0;
#X connect 16 0 17 1;
#X connect 16 1 8 0;
#X connect 17 0 9 0;
#X connect 18 0 10 0;
#X coords 0 0 1 1 250 175 0 0 0;
#X restore 36 252 pd compute;
#X f 15;
#X obj 36 60 t b b;
#N canvas 442 59 512 425 filters 0;
#X obj 312 96 *~;
#X obj 372 96 *~;
#X obj 36 300 butterworth3~ 80 100000 0;
#X obj 120 60 expr 10000/$f1;
#X obj 36 264 butterworth3~ 80 100000 0;
#X obj 36 24 inlet;
#X obj 120 24 inlet;
#X obj 276 24 inlet~;
#X obj 348 24 inlet~;
#X obj 420 24 inlet~;
#X obj 36 372 outlet~;
#X obj 120 372 outlet~;
#X obj 276 372 outlet~;
#X connect 0 0 4 0;
#X connect 1 0 2 0;
#X connect 2 0 11 0;
#X connect 3 0 4 1;
#X connect 3 0 2 1;
#X connect 4 0 10 0;
#X connect 5 0 4 4;
#X connect 5 0 2 4;
#X connect 6 0 3 0;
#X connect 7 0 0 0;
#X connect 7 0 12 0;
#X connect 8 0 1 0;
#X connect 9 0 0 1;
#X connect 9 0 1 1;
#X coords 0 0 1 1 250 175 0 0 0;
#X restore 108 180 pd filters;
#X connect 0 0 9 2;
#X connect 1 0 9 3;
#X connect 2 0 9 4;
#X connect 5 0 8 0;
#X connect 6 0 9 1;
#X connect 7 0 3 0;
#X connect 7 1 4 0;
#X connect 8 0 7 0;
#X connect 8 1 9 0;
#X connect 9 0 7 1;
#X connect 9 1 7 2;
#X connect 9 2 7 3;
#X coords 0 0 1 1 250 175 0 0 0;
#X restore 36 276 pd graph;
#X connect 0 0 4 0;
#X connect 3 0 2 1;
#X connect 3 0 1 1;
#X connect 4 0 5 0;
#X connect 4 1 12 1;
#X connect 5 1 6 0;
#X connect 6 0 12 0;
#X connect 6 1 3 0;
#X connect 7 0 12 2;
#X connect 8 0 12 3;
#X connect 9 0 12 4;
#X connect 12 0 1 0;
#X connect 12 1 2 0;
#X coords 0 0 1 1 250 175 0 0 0;
