#N canvas 335 153 487 297 12;
#X obj 36 24 inlet;
#X obj 36 240 outlet;
#X text 300 48 2- Frequency range.;
#X text 300 24 1- Number of steps.;
#N canvas 1027 84 210 433 sinusoid 0;
#X obj 24 240 phasor~;
#X obj 24 336 cos~;
#X obj 108 336 cos~;
#X obj 108 300 -~ 0.25;
#X obj 24 384 outlet~;
#X obj 108 384 outlet~;
#X obj 24 144 *;
#X obj 24 204 t f 0;
#X obj 24 24 inlet;
#X obj 108 24 loadbang;
#X obj 108 60 t \$2;
#X obj 108 96 / \$1;
#X connect 0 0 3 0;
#X connect 0 0 1 0;
#X connect 1 0 4 0;
#X connect 2 0 5 0;
#X connect 3 0 2 0;
#X connect 6 0 7 0;
#X connect 7 0 0 0;
#X connect 7 1 0 1;
#X connect 8 0 6 0;
#X connect 9 0 10 0;
#X connect 10 0 11 0;
#X connect 11 0 6 1;
#X coords 0 0 1 1 250 175 0 0 0;
#X restore 132 96 pd sinusoid;
#X obj 132 240 outlet~;
#X obj 168 216 outlet~;
#N canvas 676 57 589 524 trigger 0;
#X obj 36 132 metro;
#X obj 36 420 pack;
#X obj 36 24 inlet;
#X obj 36 480 outlet;
#X obj 108 480 outlet;
#X obj 36 276 t f f f;
#X obj 480 204 loadbang;
#X obj 480 240 t \$2;
#X obj 480 276 / \$1;
#X obj 36 72 t 1 reset;
#X obj 36 168 counter \$1;
#X obj 36 204 - 1;
#X obj 132 204 t \$1 0;
#X obj 132 336 expr max(50 \, 40000/($f2*max(1 \, $f1)));
#X connect 0 0 10 0;
#X connect 1 0 3 0;
#X connect 2 0 9 0;
#X connect 5 0 1 0;
#X connect 5 1 4 0;
#X connect 5 2 13 0;
#X connect 6 0 7 0;
#X connect 7 0 8 0;
#X connect 8 0 13 1;
#X connect 9 0 0 0;
#X connect 9 1 10 0;
#X connect 10 0 11 0;
#X connect 10 1 12 0;
#X connect 11 0 5 0;
#X connect 12 0 5 0;
#X connect 12 1 0 0;
#X connect 13 0 0 1;
#X connect 13 0 1 1;
#X coords 0 0 1 1 250 175 0 0 0;
#X restore 36 60 pd trigger;
#X obj 204 192 outlet~;
#X connect 0 0 7 0;
#X connect 4 0 5 0;
#X connect 4 0 8 0;
#X connect 4 1 6 0;
#X connect 7 0 1 0;
#X connect 7 1 4 0;
#X coords 0 0 1 1 250 175 0 0 0;
