#N canvas 631 128 302 440 12;
#N canvas 644 170 357 327 sample 0;
#N canvas 0 22 450 300 \$0-table 0;
#X array \$0-table 62079 float 0;
#X coords 0 1 62078 -1 200 140 1 0 0;
#X restore 36 36 graph \$0-table;
#X obj 36 204 loadbang;
#X obj 36 276 soundfiler;
#X msg 36 240 read -resize voice.wav \$0-table;
#X connect 1 0 3 0;
#X connect 3 0 2 0;
#X coords 0 0 1 1 250 175 0 0 0;
#X restore 144 360 pd sample;
#X obj 36 180 metro 1000;
#X obj 36 360 output;
#X obj 12 12 cnv 15 275 45 empty empty empty 0 -7 0 10 #cccccc #000000;
#X obj -60 12 freeze;
#X text 24 24 delay;
#X text 12 72 Delay a signal.;
#X obj 36 108 dspstatus;
#X obj 144 216 nbx 5 40 0 500 0 1 empty empty empty 0 -7 0 10 #ffffff #000000 #000000 100 100;
#X obj 36 144 tgl 15 0 empty empty empty 17 7 0 10 #ffffff #000000 #000000 1 1;
#N canvas 274 221 300 218 writer 0;
#X obj 36 60 tabplay~ \$0-table;
#X obj 72 108 delwrite~ \$0-delay 1000;
#X obj 36 24 inlet;
#X obj 36 168 outlet~;
#X connect 0 0 1 0;
#X connect 0 0 3 0;
#X connect 2 0 0 0;
#X coords 0 0 1 1 250 175 0 0 0;
#X restore 36 216 pd writer;
#N canvas 144 388 300 230 reader 0;
#X obj 36 132 +~;
#X obj 120 72 delread~ \$0-delay;
#X obj 36 24 inlet~;
#X obj 36 180 outlet~;
#X obj 120 24 inlet;
#X connect 0 0 3 0;
#X connect 1 0 0 1;
#X connect 2 0 0 0;
#X connect 4 0 1 0;
#X coords 0 0 1 1 250 175 0 0 0;
#X restore 36 324 pd reader;
#X floatatom 144 276 5 0 0 1 - - -;
#X f 5;
#X connect 1 0 10 0;
#X connect 7 0 9 0;
#X connect 8 0 12 0;
#X connect 9 0 1 0;
#X connect 10 0 11 0;
#X connect 11 0 2 0;
#X connect 12 0 11 1;
#X coords 0 0 1 1 250 175 0 0 0;
