#N canvas 390 66 375 521 12;
#X obj 36 336 +~;
#X obj 96 288 *~ 0.7;
#X obj 36 432 output~;
#X obj 12 12 cnv 15 250 45 empty empty empty 0 -7 0 10 #cccccc #000000;
#X obj -60 12 freeze;
#X text 24 24 delay (feedback);
#X text 12 72 Delays with feedback loop.;
#X obj 96 156 nbx 5 40 0 500 0 1 empty empty empty 0 -7 0 10 #ffffff #000000 #000000 150 100;
#X floatatom 96 216 5 0 0 1 - - -;
#X f 5;
#X obj 96 384 delwrite~ \$0-delay 2000;
#X obj 96 252 delread~ \$0-delay;
#N canvas 0 22 351 384 play 0;
#X obj 36 192 mtof;
#X obj 36 288 *~;
#X obj 120 228 *~;
#X obj 120 192 adsr 1 100 1000 0 1000;
#X obj 36 228 phasor~;
#N canvas 556 131 520 401 pitches 0;
#X obj 156 240 list store 36 48 60 67 72 74 76 84 96;
#X msg 156 204 get \$1 1;
#X obj 156 168 counter;
#X msg 264 108 reset \, bang;
#X obj 36 24 inlet;
#X obj 36 348 outlet;
#X obj 36 60 t f f;
#X msg 156 276 1 \$1;
#X obj 36 108 select 0;
#X obj 36 276 t 0;
#X obj 156 108 metro 500;
#X connect 0 0 7 0;
#X connect 0 1 3 0;
#X connect 1 0 0 0;
#X connect 2 0 1 0;
#X connect 3 0 2 0;
#X connect 4 0 6 0;
#X connect 6 0 8 0;
#X connect 6 1 10 0;
#X connect 7 0 5 0;
#X connect 8 0 9 0;
#X connect 9 0 5 0;
#X connect 10 0 2 0;
#X coords 0 0 1 1 250 175 0 0 0;
#X restore 36 96 pd pitches;
#X obj 36 60 tgl 15 0 empty empty empty 17 7 0 10 #ffffff #000000 #000000 0 1;
#X obj 36 24 dspstatus;
#X obj 36 132 unpack;
#X obj 36 336 outlet~;
#X connect 0 0 4 0;
#X connect 1 0 9 0;
#X connect 2 0 1 1;
#X connect 3 0 2 0;
#X connect 3 0 2 1;
#X connect 4 0 1 0;
#X connect 5 0 8 0;
#X connect 6 0 5 0;
#X connect 7 0 6 0;
#X connect 8 0 3 0;
#X connect 8 1 0 0;
#X coords 0 0 1 1 250 175 0 0 0;
#X restore 36 108 pd play;
#X connect 0 0 2 0;
#X connect 0 0 9 0;
#X connect 1 0 0 1;
#X connect 7 0 8 0;
#X connect 8 0 10 0;
#X connect 10 0 1 0;
#X connect 11 0 0 0;
#X coords 0 0 1 1 250 175 0 0 0;
