#N canvas 275 84 512 604 12;
#X obj 36 360 +~;
#X obj 36 516 output~;
#X obj 12 12 cnv 15 250 45 empty empty empty 0 -7 0 10 #cccccc #000000;
#X obj -60 12 freeze;
#X text 24 24 delay (variable);
#X text 12 72 Fuzzed FM generator with a variable delay.;
#X floatatom 36 108 5 0 0 1 - #0-pitch -;
#X f 5;
#X obj 144 108 nbx 5 40 0 1 0 0 empty \$0-timbre empty 0 -7 0 10 #ffffff #000000 #000000 0.34 100;
#X obj 144 216 nbx 5 40 0 1 0 0 empty \$0-frequency empty 0 -7 0 10 #ffffff #000000 #000000 0.64 100;
#X floatatom 240 264 5 0 0 1 - #0-depth -;
#X f 5;
#X obj 240 372 nbx 5 40 0 1 0 0 empty \$0-feedback empty 0 -7 0 10 #ffffff #000000 #000000 0.64 100;
#N canvas 307 88 370 388 generator 0;
#X obj 36 264 hip~ 10;
#X obj 120 132 line~;
#X obj 120 96 pack 0 100;
#X obj 36 180 *~;
#X obj 36 228 cos~;
#X obj 36 60 mtof;
#X obj 36 96 * 0.5;
#X obj 36 300 clip~ -0.2 0.2;
#X obj 36 132 osc~;
#X obj 36 24 inlet;
#X obj 120 24 inlet;
#X obj 36 336 outlet~;
#X connect 0 0 7 0;
#X connect 1 0 3 1;
#X connect 2 0 1 0;
#X connect 3 0 4 0;
#X connect 4 0 0 0;
#X connect 5 0 6 0;
#X connect 6 0 8 0;
#X connect 7 0 11 0;
#X connect 8 0 3 0;
#X connect 9 0 5 0;
#X connect 10 0 2 0;
#X coords 0 0 1 1 250 175 0 0 0;
#X restore 36 168 pd generator;
#N canvas 415 72 249 308 reader 0;
#X obj 120 96 line~;
#X obj 120 60 pack 0 100;
#X obj 36 144 *~;
#X obj 36 96 +~ 1;
#X obj 36 180 +~ 1.46;
#X obj 36 60 osc~;
#X obj 36 216 vd~ \$0-delay;
#X obj 36 24 inlet;
#X obj 120 24 inlet;
#X obj 36 252 outlet~;
#X connect 0 0 2 1;
#X connect 1 0 0 0;
#X connect 2 0 4 0;
#X connect 3 0 2 0;
#X connect 4 0 6 0;
#X connect 5 0 3 0;
#X connect 6 0 9 0;
#X connect 7 0 5 0;
#X connect 8 0 1 0;
#X coords 0 0 1 1 250 175 0 0 0;
#X restore 144 300 pd reader;
#N canvas 412 96 374 389 writer 0;
#X obj 120 96 line~;
#X obj 120 60 pack 0 100;
#X obj 36 144 *~;
#X obj 36 180 clip~ -1 1;
#X obj 36 216 delwrite~ \$0-delay 1000;
#X obj 36 24 inlet~;
#X obj 120 24 inlet;
#X obj 36 96 hip~ 5;
#X connect 0 0 2 1;
#X connect 1 0 0 0;
#X connect 2 0 3 0;
#X connect 3 0 4 0;
#X connect 5 0 7 0;
#X connect 6 0 1 0;
#X connect 7 0 2 0;
#X coords 0 0 1 1 250 175 0 0 0;
#X restore 144 432 pd writer;
#N canvas 750 136 329 218 init 0;
#X obj 36 24 inlet;
#X obj 120 24 loadbang;
#X msg 36 84 \; \$0-pitch 67 \; \$0-timbre 0.35 \; \$0-frequency 0.65 \; \$0-depth 30 \; \$0-feedback 0.65;
#X connect 0 0 2 0;
#X connect 1 0 2 0;
#X coords 0 0 1 1 250 175 0 0 0;
#X restore 408 552 pd init;
#X obj 408 516 bng 15 250 50 0 empty empty empty 17 7 0 10 #ffffff #000000 #000000;
#X connect 0 0 1 0;
#X connect 0 0 13 0;
#X connect 6 0 11 0;
#X connect 7 0 11 1;
#X connect 8 0 12 0;
#X connect 9 0 12 1;
#X connect 10 0 13 1;
#X connect 11 0 0 0;
#X connect 12 0 0 1;
#X connect 15 0 14 0;
#X coords 0 0 1 1 250 175 0 0 0;
