#N canvas 262 302 471 324 12;
#X obj 36 228 output~;
#X obj 12 12 cnv 15 250 45 empty empty empty 0 -7 0 10 #cccccc #000000;
#X obj -60 12 freeze;
#X text 24 24 delay (blocksize);
#X text 12 72 Controlling the minimum delay size with reblocking.;
#N canvas 320 475 763 151 more 0;
#X text 12 12 When a delay read feeds back to a delay write \, the minimum possible delay is one block.;
#X f 87;
#X text 12 36 That means 64 samples \, or '1.45' milliseconds at '44100' Hz.;
#X text 12 60 It can be shortened by changing locally the block size (with block~ object).;
#X f 76;
#X text 12 84 Here we use this principle to make a harpsichord-like sound.;
#X f 60;
#X text 12 108 Pulses are sending into a recirculating delay line.;
#X coords 0 0 1 1 250 175 0 0 0;
#X restore 216 144 pd more;
#N canvas 504 129 425 354 delay 0;
#X obj 36 24 inlet~;
#X obj 36 300 outlet~;
#X obj 324 264 block~ 1;
#X obj 120 96 *~ 0.99;
#X obj 36 168 +~;
#X obj 120 24 inlet;
#X obj 120 60 delread~ \$0-delay;
#X obj 72 216 delwrite~ \$0-delay 1000;
#X connect 0 0 4 0;
#X connect 3 0 4 1;
#X connect 4 0 1 0;
#X connect 4 0 7 0;
#X connect 5 0 6 0;
#X connect 6 0 3 0;
#X coords 0 0 1 1 250 175 0 0 0;
#X restore 36 180 pd delay;
#N canvas 227 51 561 471 play 0;
#X obj 204 372 expr 1000/$f1;
#X obj 204 336 mtof;
#X obj 36 96 metro 500;
#X obj 36 372 vline~;
#X obj 204 300 list store 36 48 60 67 72 74 76 84 96;
#X msg 204 264 get \$1 1;
#X obj 204 228 counter;
#X msg 312 168 reset \, bang;
#X obj 84 228 delay 1;
#X obj 84 264 t 0;
#X obj 36 24 dspstatus;
#X obj 36 60 tgl 15 0 empty empty empty 17 7 0 10 #ffffff #000000 #000000 0 1;
#X obj 36 420 outlet~;
#X obj 204 420 outlet;
#X obj 36 144 t 1 b b;
#X connect 0 0 13 0;
#X connect 1 0 0 0;
#X connect 2 0 14 0;
#X connect 3 0 12 0;
#X connect 4 0 1 0;
#X connect 4 1 7 0;
#X connect 5 0 4 0;
#X connect 6 0 5 0;
#X connect 7 0 6 0;
#X connect 8 0 9 0;
#X connect 9 0 3 0;
#X connect 10 0 11 0;
#X connect 11 0 2 0;
#X connect 14 0 3 0;
#X connect 14 1 8 0;
#X connect 14 2 6 0;
#X coords 0 0 1 1 250 175 0 0 0;
#X restore 36 108 pd play;
#X floatatom 108 144 5 0 0 1 - - -;
#X f 5;
#X connect 6 0 0 0;
#X connect 7 0 6 0;
#X connect 7 1 8 0;
#X connect 8 0 6 1;
#X coords 0 0 1 1 250 175 0 0 0;
