#N canvas 194 51 541 622 12;
#N canvas 92 151 612 467 pulse 0;
#X obj 36 420 outlet~;
#N canvas 0 22 500 350 \$0-impulse 0;
#X array \$0-impulse 64 float 1;
#A 0 1 0 0 0 0 0 0 0 0 0 0 0 0 0 0 0 0 0 0 0 0 0 0 0 0 0 0 0 0 0 0 0 0 0 0 0 0 0 0 0 0 0 0 0 0 0 0 0 0 0 0 0 0 0 0 0 0 0 0 0 0 0 0 0;
#X coords 0 1 63 0 250 175 1 0 0;
#X restore 324 36 graph \$0-impulse;
#X obj 324 240 nbx 5 40 0 8 0 1 empty empty empty 0 -7 0 10 #ffffff #000000 #000000 0 8;
#N canvas 438 393 260 248 impulse 0;
#X obj 24 24 inlet;
#X obj 24 192 s \$0-impulse;
#X obj 24 60 t f b;
#X msg 84 108 constant 0;
#X msg 84 144 \$1 1;
#X connect 0 0 2 0;
#X connect 2 0 4 0;
#X connect 2 1 3 0;
#X connect 3 0 1 0;
#X connect 4 0 1 0;
#X coords 0 0 1 1 250 175 0 0 0;
#X restore 324 300 pd impulse;
#X obj 36 264 tabplay~ \$0-impulse;
#X obj 36 60 metro 250;
#X obj 96 144 s \$0-bang;
#X obj 36 24 dspstatus;
#X obj 36 96 t b b;
#X obj 72 348 delwrite~ \$0-delay 1000;
#X connect 2 0 3 0;
#X connect 4 0 0 0;
#X connect 4 0 9 0;
#X connect 5 0 8 0;
#X connect 7 0 5 0;
#X connect 8 0 4 0;
#X connect 8 1 6 0;
#X coords 0 0 1 1 250 175 0 0 0;
#X restore 36 108 pd pulse;
#X obj 12 12 cnv 15 250 45 empty empty empty 0 -7 0 10 #cccccc #000000;
#X obj -60 12 freeze;
#X text 24 24 delay (order);
#X obj 144 216 nbx 5 40 0 127 0 0 empty empty empty 0 -7 0 10 #ffffff #000000 #000000 19 127;
#N canvas 0 22 500 350 \$0-out 0;
#X array \$0-out 128 float 0;
#X coords 0 1 127 0 250 175 1 0 0;
#X restore 252 420 graph \$0-out;
#X obj 60 528 r \$0-bang;
#X obj 36 576 tabwrite~ \$0-out;
#X text 12 72 The order of execution for delay lines matters.;
#N canvas 279 22 297 333 reader 0;
#X obj 36 228 +~;
#X obj 132 72 / 44.1;
#X obj 132 108 pack 0 30;
#X obj 132 144 line~;
#X obj 132 180 vd~ \$0-delay;
#X obj 36 24 inlet~;
#X obj 132 24 inlet;
#X obj 36 276 outlet~;
#X connect 0 0 7 0;
#X connect 1 0 2 0;
#X connect 2 0 3 0;
#X connect 3 0 4 0;
#X connect 4 0 0 1;
#X connect 5 0 0 0;
#X connect 6 0 1 0;
#X coords 0 0 1 1 250 175 0 0 0;
#X restore 36 288 pd reader;
#X connect 0 0 9 0;
#X connect 4 0 9 1;
#X connect 6 0 7 0;
#X connect 9 0 7 0;
#X coords 0 0 1 1 250 175 0 0 0;
