#N canvas 673 43 548 677 12;
#X obj 216 384 line~;
#X obj 216 348 pack 0 200;
#X obj 324 384 line~;
#X obj 324 348 pack 0 200;
#X obj 36 552 +~;
#X obj 144 384 wrap~;
#X obj 144 348 +~ 0.5;
#X obj 36 588 output;
#X obj 36 276 phasor~;
#X obj 12 12 cnv 15 250 45 empty empty empty 0 -7 0 10 #cccccc #000000;
#X obj -60 12 freeze;
#X text 24 24 shift;
#X text 12 72 A classic rotating-tape-head style pitch shifter.;
#X floatatom 36 108 5 0 0 1 - #0-transpose -;
#X f 5;
#X floatatom 84 144 5 0 0 1 - #0-window -;
#X f 5;
#X floatatom 132 180 5 0 0 1 - #0-delay -;
#X f 5;
#N canvas 446 180 285 172 init 0;
#X obj 96 24 loadbang;
#X msg 36 72 \; \$0-transpose 0 \; \$0-window 100 \; \$0-delay 0;
#X obj 36 24 inlet;
#X connect 0 0 1 0;
#X connect 2 0 1 0;
#X coords 0 0 1 1 250 175 0 0 0;
#X restore 324 624 pd init;
#X obj 324 588 bng 15 250 50 0 empty empty empty 17 7 0 10 #ffffff #000000 #000000;
#X obj 324 492 delwrite~ \$0-delay 5000;
#N canvas 631 121 380 411 reader 0;
#X obj 108 156 *~;
#X obj 108 240 +~;
#X obj 36 276 cos~;
#X obj 36 324 *~;
#X obj 36 156 -~ 0.5;
#X obj 36 240 *~ 0.5;
#X obj 108 276 vd~ \$0-delay;
#X obj 36 24 inlet~;
#X obj 36 360 outlet~;
#X obj 216 24 inlet~;
#X obj 288 24 inlet~;
#X connect 0 0 1 0;
#X connect 1 0 6 0;
#X connect 2 0 3 0;
#X connect 3 0 8 0;
#X connect 4 0 5 0;
#X connect 5 0 2 0;
#X connect 6 0 3 1;
#X connect 7 0 4 0;
#X connect 7 0 0 0;
#X connect 9 0 0 1;
#X connect 10 0 1 1;
#X coords 0 0 1 1 250 175 0 0 0;
#X restore 36 492 pd reader;
#N canvas 631 121 380 411 reader 0;
#X obj 108 156 *~;
#X obj 108 240 +~;
#X obj 36 276 cos~;
#X obj 36 324 *~;
#X obj 36 156 -~ 0.5;
#X obj 36 240 *~ 0.5;
#X obj 108 276 vd~ \$0-delay;
#X obj 36 24 inlet~;
#X obj 36 360 outlet~;
#X obj 216 24 inlet~;
#X obj 288 24 inlet~;
#X connect 0 0 1 0;
#X connect 1 0 6 0;
#X connect 2 0 3 0;
#X connect 3 0 8 0;
#X connect 4 0 5 0;
#X connect 5 0 2 0;
#X connect 6 0 3 1;
#X connect 7 0 4 0;
#X connect 7 0 0 0;
#X connect 9 0 0 1;
#X connect 10 0 1 1;
#X coords 0 0 1 1 250 175 0 0 0;
#X restore 144 492 pd reader;
#N canvas 352 112 393 387 control 0;
#X obj 36 96 exp;
#X obj 36 300 /;
#X f 5;
#X obj 204 132 * 0.001;
#X obj 204 168 t b f;
#X obj 36 132 - 1;
#X obj 36 60 * 0.05776;
#X obj 36 168 * -1;
#X obj 288 60 max 1.5;
#X obj 144 60 max 1;
#X obj 36 24 inlet;
#X obj 144 24 inlet;
#X obj 288 24 inlet;
#X obj 36 336 outlet;
#X obj 144 336 outlet;
#X obj 288 336 outlet;
#X obj 144 96 t f f;
#X connect 0 0 4 0;
#X connect 1 0 12 0;
#X connect 2 0 3 0;
#X connect 3 0 1 0;
#X connect 3 1 1 1;
#X connect 4 0 6 0;
#X connect 5 0 0 0;
#X connect 6 0 1 0;
#X connect 7 0 14 0;
#X connect 8 0 15 0;
#X connect 9 0 5 0;
#X connect 10 0 8 0;
#X connect 11 0 7 0;
#X connect 15 0 13 0;
#X connect 15 1 2 0;
#X coords 0 0 1 1 250 175 0 0 0;
#X restore 36 216 pd control;
#X text 204 108 Transposition (semitones).;
#X text 204 144 Window (milliseconds).;
#X text 204 180 Delay (milliseconds).;
#X obj 324 456 looper bell.aiff;
#X connect 0 0 19 1;
#X connect 0 0 20 1;
#X connect 1 0 0 0;
#X connect 2 0 19 2;
#X connect 2 0 20 2;
#X connect 3 0 2 0;
#X connect 4 0 7 0;
#X connect 5 0 20 0;
#X connect 6 0 5 0;
#X connect 8 0 6 0;
#X connect 8 0 19 0;
#X connect 13 0 21 0;
#X connect 14 0 21 1;
#X connect 15 0 21 2;
#X connect 17 0 16 0;
#X connect 19 0 4 0;
#X connect 20 0 4 1;
#X connect 21 0 8 0;
#X connect 21 1 1 0;
#X connect 21 2 3 0;
#X connect 25 0 18 0;
#X coords 0 0 1 1 250 175 0 0 0;
