#N canvas 800 22 343 693 12;
#X obj 36 240 phasor~;
#X obj 144 360 +~;
#X obj 36 552 vcf~;
#X obj 36 600 output~;
#X obj 36 204 mtof;
#X obj 144 168 phasor~;
#X obj 144 300 *~;
#X obj 12 12 cnv 15 250 45 empty empty empty 0 -7 0 10 #cccccc #000000;
#X obj -60 12 freeze;
#X text 24 24 filter (sweep);
#X text 12 72 Sweeping filters.;
#X obj 144 408 mtof~;
#X obj 36 108 nbx 5 40 0 127 0 1 empty empty empty 0 -7 0 10 #ffffff #000000 #000000 66 127;
#X obj 144 108 nbx 5 40 -10 10 0 1 empty empty empty 0 -7 0 10 #ffffff #000000 #000000 -2 20;
#X obj 240 444 nbx 5 40 0 10 0 1 empty empty empty 0 -7 0 10 #ffffff #000000 #000000 2 10;
#X obj 240 216 nbx 5 40 0 127 0 1 empty empty empty 0 -7 0 10 #ffffff #000000 #000000 36 127;
#X obj 240 276 nbx 5 40 0 127 0 1 empty empty empty 0 -7 0 10 #ffffff #000000 #000000 54 127;
#X floatatom 36 168 5 0 0 1 - - -;
#X f 5;
#X connect 0 0 2 0;
#X connect 1 0 11 0;
#X connect 2 0 3 0;
#X connect 4 0 0 0;
#X connect 5 0 6 0;
#X connect 6 0 1 0;
#X connect 11 0 2 1;
#X connect 12 0 17 0;
#X connect 13 0 5 0;
#X connect 14 0 2 2;
#X connect 15 0 6 1;
#X connect 16 0 1 1;
#X connect 17 0 4 0;
#X coords 0 0 1 1 250 175 0 0 0;
