#N canvas 431 43 442 714 12;
#X obj 36 408 bp~;
#X obj 36 372 bp~;
#X obj 180 216 mtof;
#X floatatom 180 252 7 0 0 0 - - -;
#X f 7;
#X obj 72 456 env~ 4096;
#X obj 12 12 cnv 15 250 45 empty empty empty 0 -7 0 10 #cccccc #000000;
#X obj -60 12 freeze;
#N canvas 287 51 646 550 play 0;
#X obj 36 348 *~ 0;
#X obj 36 384 +~ 1;
#X obj 36 216 phasor~;
#X obj 36 420 tabread4~ \$0-array;
#N canvas 0 22 500 350 \$0-array 0;
#X array \$0-array 155944 float 2;
#X coords 0 1 155944 -1 250 175 1 0 0;
#X restore 360 336 graph \$0-array;
#X obj 36 96 soundfiler;
#X msg 36 60 read -resize bell.aiff \$0-array;
#X obj 36 180 /;
#X obj 36 24 loadbang;
#X obj 36 132 t 44100 f f;
#X obj 36 492 outlet~;
#X connect 0 0 1 0;
#X connect 1 0 3 0;
#X connect 2 0 0 0;
#X connect 3 0 10 0;
#X connect 5 0 9 0;
#X connect 6 0 5 0;
#X connect 7 0 2 0;
#X connect 8 0 6 0;
#X connect 9 0 7 0;
#X connect 9 1 7 1;
#X connect 9 2 0 1;
#X coords 0 0 1 1 250 175 0 0 0;
#X restore 36 108 pd play;
#X obj 180 312 nbx 5 40 1 20 0 1 empty empty empty 0 -7 0 10 #ffffff #000000 #000000 10 19;
#X floatatom 180 180 5 0 0 1 - - -;
#X f 5;
#X obj 72 492 vu 15 120 empty empty 17 7 0 10 #ffffff #000000 0 0;
#X obj 36 624 output~;
#X obj 180 108 bng 15 250 50 0 empty empty empty 17 7 0 10 #ffffff #000000 #000000;
#N canvas 455 116 778 300 partials 0;
#X obj 36 24 inlet;
#X obj 36 108 counter;
#X msg 36 180 get \$1 1;
#X obj 36 252 outlet;
#X msg 108 60 reset \, bang;
#X obj 36 144 - 1;
#X obj 108 24 loadbang;
#X obj 36 216 list store 48 51.3 55 57 60 65 67 69 70.9 71.75 72.6 74 74.65 75.6 77 81.2 84.6 86.5;
#X f 84;
#X connect 0 0 1 0;
#X connect 1 0 5 0;
#X connect 2 0 7 0;
#X connect 4 0 1 0;
#X connect 5 0 2 0;
#X connect 6 0 4 0;
#X connect 7 0 3 0;
#X connect 7 1 4 0;
#X coords 0 0 1 1 250 175 0 0 0;
#X restore 180 144 pd partials;
#X text 12 72 Looking for partials in Jonathan Harvey's bell.;
#X text 24 24 measure;
#X connect 0 0 4 0;
#X connect 0 0 11 0;
#X connect 1 0 0 0;
#X connect 2 0 3 0;
#X connect 3 0 1 1;
#X connect 3 0 0 1;
#X connect 4 0 10 0;
#X connect 7 0 1 0;
#X connect 8 0 0 2;
#X connect 8 0 1 2;
#X connect 9 0 2 0;
#X connect 12 0 13 0;
#X connect 13 0 9 0;
#X coords 0 0 1 1 250 175 0 0 0;
