#N canvas 82 185 439 604 12;
#X obj 36 108 phasor~ 100;
#X obj 120 228 phasor~;
#X floatatom 120 192 5 0 0 0 - #0-frequency -;
#X f 5;
#X obj 120 312 cos~;
#X obj 168 312 cos~;
#X obj 168 276 +~ 0.25;
#X obj 36 372 *~;
#X obj 84 372 *~;
#X obj 36 468 lop~;
#X obj 84 468 lop~;
#X floatatom 36 552 5 0 0 0 - - -;
#X f 5;
#N canvas 215 516 739 131 more 0;
#X text 12 12 Another method for picking out the strengths of partials in a sound is heterodyning.;
#X f 84;
#X text 12 60 Then a low-pass filter removes all but the DC component thus obtained.;
#X f 70;
#X text 12 84 It results two signals holding the real and imaginary parts of the partial we want.;
#X f 84;
#X text 12 36 A complex sinusoid is used as modulator to frequency-shift the partial down to zero.;
#X f 84;
#X coords 0 0 1 1 250 175 0 0 0;
#X restore 324 312 pd more;
#X obj 12 12 cnv 15 250 45 empty empty empty 0 -7 0 10 #cccccc #000000;
#X obj -60 12 freeze;
#X text 12 72 More on measuring spectra: heterodyning.;
#X obj 168 396 nbx 5 40 0 20 0 1 empty empty empty 0 -7 0 10 #ffffff #000000 #000000 2 20;
#N canvas 391 63 404 312 magnitude 0;
#X obj 36 168 snapshot~;
#X obj 288 168 snapshot~;
#X obj 36 216 expr sqrt($f1*$f1+$f2*$f2);
#X obj 36 24 inlet~;
#X obj 288 24 inlet~;
#X obj 36 252 outlet;
#X obj 144 24 dspstatus;
#X obj 144 60 metro 250;
#X connect 0 0 2 0;
#X connect 1 0 2 1;
#X connect 2 0 5 0;
#X connect 3 0 0 0;
#X connect 4 0 1 0;
#X connect 6 0 7 0;
#X connect 7 0 0 0;
#X connect 7 0 1 0;
#X coords 0 0 1 1 250 175 0 0 0;
#X restore 36 516 pd magnitude;
#N canvas 0 22 246 188 init 0;
#X msg 36 108 \; \$0-frequency 100;
#X obj 36 24 inlet;
#X obj 108 24 loadbang;
#X connect 1 0 0 0;
#X connect 2 0 0 0;
#X coords 0 0 1 1 250 175 0 0 0;
#X restore 324 288 pd init;
#X obj 324 252 bng 15 250 50 0 empty empty empty 17 7 0 10 #ffffff #000000 #000000;
#X text 24 24 measure (heterodyning);
#X connect 0 0 6 0;
#X connect 0 0 7 0;
#X connect 1 0 3 0;
#X connect 1 0 5 0;
#X connect 2 0 1 0;
#X connect 3 0 6 1;
#X connect 4 0 7 1;
#X connect 5 0 4 0;
#X connect 6 0 8 0;
#X connect 7 0 9 0;
#X connect 8 0 16 0;
#X connect 9 0 16 1;
#X connect 15 0 8 1;
#X connect 15 0 9 1;
#X connect 16 0 10 0;
#X connect 18 0 17 0;
#X coords 0 0 1 1 250 175 0 0 0;
