#N canvas 463 48 465 547 12;
#X obj 168 276 cos~;
#X obj 240 240 +~ -0.25;
#X obj 240 276 cos~;
#X obj 36 360 *~;
#X obj 120 360 *~;
#X obj 36 420 -~;
#X obj 36 456 output~;
#X obj 168 180 phasor~;
#X obj 36 180 hilbert~;
#X obj 12 12 cnv 15 250 45 empty empty empty 0 -7 0 10 #cccccc #000000;
#X obj -60 12 freeze;
#X text 24 24 sideband;
#X text 12 72 Single sideband modulation (aka frequency shift).;
#N canvas 368 603 812 118 more 0;
#X text 12 12 The technique is to filter the input into two versions \, '90' degrees out of phase.;
#X f 83;
#X text 12 36 It can be interpreted as the real and imaginary part of a complex signal.;
#X f 73;
#X text 12 60 Make te complex product of this with a sinusoid to modulate upward or downward in frequency.;
#X f 92;
#X coords 0 0 1 1 250 175 0 0 0;
#X restore 240 360 pd more;
#N canvas 583 63 646 550 play 0;
#X obj 36 348 *~ 0;
#X obj 36 384 +~ 1;
#X obj 36 216 phasor~;
#X obj 36 420 tabread4~ \$0-array;
#N canvas 0 22 500 350 \$0-array 0;
#X array \$0-array 155944 float 2;
#X coords 0 1 155944 -1 250 175 1 0 0;
#X restore 360 336 graph \$0-array;
#X obj 36 96 soundfiler;
#X msg 36 60 read -resize bell.aiff \$0-array;
#X obj 36 180 /;
#X obj 36 24 loadbang;
#X obj 36 132 t 44100 f f;
#X obj 36 492 outlet~;
#X connect 0 0 1 0;
#X connect 1 0 3 0;
#X connect 2 0 0 0;
#X connect 3 0 10 0;
#X connect 5 0 9 0;
#X connect 6 0 5 0;
#X connect 7 0 2 0;
#X connect 8 0 6 0;
#X connect 9 0 7 0;
#X connect 9 1 7 1;
#X connect 9 2 0 1;
#X coords 0 0 1 1 250 175 0 0 0;
#X restore 36 108 pd play;
#X obj 168 108 nbx 5 40 -100 100 0 0 empty empty empty 0 -7 0 10 #ffffff #000000 #000000 20 200;
#X connect 0 0 3 1;
#X connect 1 0 2 0;
#X connect 2 0 4 1;
#X connect 3 0 5 0;
#X connect 4 0 5 1;
#X connect 5 0 6 0;
#X connect 7 0 1 0;
#X connect 7 0 0 0;
#X connect 8 0 3 0;
#X connect 8 1 4 0;
#X connect 14 0 8 0;
#X connect 15 0 7 0;
#X coords 0 0 1 1 250 175 0 0 0;
