#N canvas 463 48 465 547 12;
#X obj 168 276 cos~;
#X obj 240 240 +~ -0.25;
#X obj 240 276 cos~;
#X obj 36 360 *~;
#X obj 120 360 *~;
#X obj 36 420 -~;
#X obj 36 456 output~;
#X obj 168 180 phasor~;
#X obj 36 180 hilbert~;
#X obj 12 12 cnv 15 250 45 empty empty empty 0 -7 0 10 #cccccc #000000;
#X obj -60 12 freeze;
#X text 24 24 sideband;
#X text 12 72 Single sideband modulation (aka frequency shift).;
#N canvas 368 603 812 118 more 0;
#X text 12 12 The technique is to filter the input into two versions \, '90' degrees out of phase.;
#X f 83;
#X text 12 36 It can be interpreted as the real and imaginary part of a complex signal.;
#X f 73;
#X text 12 60 Make te complex product of this with a sinusoid to modulate upward or downward in frequency.;
#X f 92;
#X coords 0 0 1 1 250 175 0 0 0;
#X restore 240 360 pd more;
#X obj 168 108 nbx 5 40 -100 100 0 0 empty empty empty 0 -7 0 10 #ffffff #000000 #000000 0 200;
#N canvas 599 84 642 421 play 0;
#X obj 36 300 +~ 1;
#X obj 36 24 loadbang;
#X obj 36 372 outlet~;
#X obj 36 96 soundfiler;
#X msg 36 60 read -resize bell.aiff \$0-table;
#N canvas 0 22 500 350 \$0-table 0;
#X array \$0-table 155944 float 2;
#X coords 0 1 155944 -1 250 175 1 0 0;
#X restore 360 36 graph \$0-table;
#X obj 36 132 t f f;
#X obj 108 216 phasor~;
#X obj 36 264 *~;
#X obj 108 180 expr 44100/$f1;
#X obj 36 336 tabread4~ \$0-table;
#X connect 0 0 10 0;
#X connect 1 0 4 0;
#X connect 3 0 6 0;
#X connect 4 0 3 0;
#X connect 6 0 9 0;
#X connect 6 1 8 1;
#X connect 7 0 8 0;
#X connect 8 0 0 0;
#X connect 9 0 7 0;
#X connect 10 0 2 0;
#X coords 0 0 1 1 250 175 0 0 0;
#X restore 36 108 pd play;
#X connect 0 0 3 1;
#X connect 1 0 2 0;
#X connect 2 0 4 1;
#X connect 3 0 5 0;
#X connect 4 0 5 1;
#X connect 5 0 6 0;
#X connect 7 0 1 0;
#X connect 7 0 0 0;
#X connect 8 0 3 0;
#X connect 8 1 4 0;
#X connect 14 0 7 0;
#X connect 15 0 8 0;
#X coords 0 0 1 1 250 175 0 0 0;
