#N canvas 618 78 464 703 12;
#N canvas 173 42 624 437 chord 0;
#X obj 36 60 -~ 0.5;
#X obj 36 132 clip~ -0.5 0.5;
#X obj 36 168 cos~;
#X obj 36 312 hip~ 5;
#X obj 36 384 outlet~;
#X obj 36 96 *~ 3;
#X obj 36 24 phasor~ 220;
#X obj 180 60 -~ 0.5;
#X obj 180 132 clip~ -0.5 0.5;
#X obj 180 168 cos~;
#X obj 180 96 *~ 3;
#X obj 324 60 -~ 0.5;
#X obj 324 132 clip~ -0.5 0.5;
#X obj 324 168 cos~;
#X obj 324 96 *~ 3;
#X obj 468 60 -~ 0.5;
#X obj 468 132 clip~ -0.5 0.5;
#X obj 468 168 cos~;
#X obj 468 96 *~ 3;
#X obj 180 24 phasor~ 251;
#X obj 324 24 phasor~ 281;
#X obj 468 24 phasor~ 311;
#X obj 36 348 *~ 0.2;
#X connect 0 0 5 0;
#X connect 1 0 2 0;
#X connect 2 0 3 0;
#X connect 3 0 22 0;
#X connect 5 0 1 0;
#X connect 6 0 0 0;
#X connect 7 0 10 0;
#X connect 8 0 9 0;
#X connect 9 0 3 0;
#X connect 10 0 8 0;
#X connect 11 0 14 0;
#X connect 12 0 13 0;
#X connect 13 0 3 0;
#X connect 14 0 12 0;
#X connect 15 0 18 0;
#X connect 16 0 17 0;
#X connect 17 0 3 0;
#X connect 18 0 16 0;
#X connect 19 0 7 0;
#X connect 20 0 11 0;
#X connect 21 0 15 0;
#X connect 22 0 4 0;
#X coords 0 0 1 1 250 175 0 0 0;
#X restore 36 312 pd chord;
#X obj 36 612 output~;
#X obj 72 384 rpole~;
#X f 10;
#X obj 72 360 rzero_rev~;
#X obj 72 432 rpole~;
#X f 10;
#X obj 72 408 rzero_rev~;
#X obj 72 480 rpole~;
#X f 10;
#X obj 72 456 rzero_rev~;
#X obj 72 528 rpole~;
#X f 10;
#X obj 72 504 rzero_rev~;
#X obj 36 564 +~;
#X obj 264 108 phasor~ 0.3;
#X obj 264 180 abs~;
#X obj 264 144 -~ 0.5;
#X obj 264 216 *~;
#X obj 264 252 *~ 0.6;
#X obj 156 312 -~;
#X obj 156 252 sig~ 0.97;
#N canvas 404 168 885 184 more 0;
#X text 12 12 A phaser simply adds an all-passed copy of the signal to the original.;
#X f 71;
#X text 12 36 It makes phase reinforcement and cancellation at frequencies that depend on the all-pass coefficients.;
#X f 103;
#X text 12 60 Many variations of this have been invented.;
#X text 12 108 A deeper effect can be obtained by using 12 filters (adding 4th \, 8th \, and 12th to the original).;
#X f 96;
#X text 12 132 Various stereo configurations are also possible.;
#X text 12 84 Some people use 6 instead of the 4 stages used here.;
#X coords 0 0 1 1 250 175 0 0 0;
#X restore 264 528 pd more;
#X obj 12 12 cnv 15 250 45 empty empty empty 0 -7 0 10 #cccccc #000000;
#X obj -60 12 freeze;
#X text 24 24 phaser;
#X text 12 72 The phaser ranks as one of the great guitar pedals.;
#X f 52;
#X obj 192 360 snapshot~ 0;
#X floatatom 192 396 5 0 0 1 - - -;
#X f 5;
#X connect 0 0 3 0;
#X connect 0 0 10 0;
#X connect 2 0 5 0;
#X connect 3 0 2 0;
#X connect 4 0 7 0;
#X connect 5 0 4 0;
#X connect 6 0 9 0;
#X connect 7 0 6 0;
#X connect 8 0 10 1;
#X connect 9 0 8 0;
#X connect 10 0 1 0;
#X connect 11 0 13 0;
#X connect 12 0 14 0;
#X connect 12 0 14 1;
#X connect 13 0 12 0;
#X connect 14 0 15 0;
#X connect 15 0 16 1;
#X connect 16 0 3 1;
#X connect 16 0 2 1;
#X connect 16 0 5 1;
#X connect 16 0 4 1;
#X connect 16 0 7 1;
#X connect 16 0 6 1;
#X connect 16 0 9 1;
#X connect 16 0 8 1;
#X connect 16 0 23 0;
#X connect 17 0 16 0;
#X connect 23 0 24 0;
#X coords 0 0 1 1 250 175 0 0 0;
