#N canvas 412 148 419 373 12;
#X obj 36 288 output;
#X obj 12 12 cnv 15 250 45 empty empty empty 0 -7 0 10 #cccccc #000000;
#X obj -60 12 freeze;
#X text 24 24 compressor;
#N canvas 313 343 756 134 more 0;
#X text 12 36 The "squelch" control limits the amplitude boost the algorithm will apply.;
#X f 74;
#X text 12 60 If infinite \, you'll get a white spectrum.;
#X text 12 84 Otherwise the louder parts of the spectrum are flattened and the quieter ones boosted.;
#X f 86;
#X text 12 12 Here we divide each complex channel by its own magnitude to "flatten" the spectrum.;
#X f 83;
#X coords 0 0 1 1 250 175 0 0 0;
#X restore 180 228 pd more;
#N canvas 687 153 753 316 hann 0;
#X obj 36 264 tabwrite \$0-hann;
#X obj 36 24 loadbang;
#X obj 36 132 t f f;
#N canvas 0 22 500 350 \$0-hann 0;
#X array \$0-hann 1024 float 2;
#X coords 0 1 1024 0 250 175 1 0 0;
#X restore 468 72 graph \$0-hann;
#X obj 36 60 bng 15 250 50 0 empty empty empty 17 7 0 10 #ffffff #000000 #000000;
#X obj 36 96 uzi 1024;
#X obj 144 192 expr (-cos(($f1/512)*pi)/2)+0.5;
#X connect 1 0 4 0;
#X connect 2 0 6 0;
#X connect 2 1 0 1;
#X connect 4 0 5 0;
#X connect 5 2 2 0;
#X connect 6 0 0 0;
#X coords 0 0 1 1 250 175 0 0 0;
#X restore 180 252 pd hann;
#X obj 120 156 nbx 5 40 0 20 0 1 empty empty empty 0 -7 0 10 #ffffff #000000 #000000 16 20;
#N canvas 742 45 496 606 fft 0;
#X obj 108 372 *~;
#X obj 36 372 *~;
#X obj 36 120 *~;
#X obj 36 24 inlet~;
#X obj 36 156 rfft~;
#X obj 36 504 *~;
#X obj 36 420 rifft~;
#X obj 36 552 outlet~;
#X obj 312 552 block~ 1024 4;
#X obj 156 276 clip~;
#X obj 84 84 tabreceive~ \$0-hann;
#X obj 300 156 expr 0.01*$f1*$f1;
#X obj 84 468 tabreceive~ \$0-hann;
#X obj 300 24 inlet;
#X obj 156 312 /~ 1536;
#X obj 156 240 rmag~;
#X connect 0 0 6 1;
#X connect 1 0 6 0;
#X connect 2 0 4 0;
#X connect 3 0 2 0;
#X connect 4 0 1 0;
#X connect 4 0 15 0;
#X connect 4 1 0 0;
#X connect 4 1 15 1;
#X connect 5 0 7 0;
#X connect 6 0 5 0;
#X connect 9 0 14 0;
#X connect 10 0 2 1;
#X connect 11 0 9 2;
#X connect 12 0 5 1;
#X connect 13 0 11 0;
#X connect 14 0 0 1;
#X connect 14 0 1 1;
#X connect 15 0 9 0;
#X coords 0 0 1 1 250 175 0 0 0;
#X restore 36 252 pd fft;
#X text 12 72 Dynamic range compression.;
#X obj 36 108 looper bell.aiff;
#X connect 6 0 7 1;
#X connect 7 0 0 0;
#X connect 9 0 7 0;
#X coords 0 0 1 1 250 175 0 0 0;
