#N canvas 435 154 500 462 12;
#X obj 36 372 output~;
#N canvas 349 474 741 139 more 0;
#X text 12 12 This is a Fourier-based "vocoder" like the one the "Convolution brothers" use.;
#X f 78;
#X text 12 36 It is probably better to call it "timbre stamp".;
#X text 12 60 Spectral envelope of the source is stamped onto the Fourier transform of the filter.;
#X f 85;
#X text 12 84 This last is first whitened with the compression algorithm used in previous example.;
#X f 87;
#X coords 0 0 1 1 250 175 0 0 0;
#X restore 252 288 pd more;
#X obj 12 12 cnv 15 250 45 empty empty empty 0 -7 0 10 #cccccc #000000;
#X obj -60 12 freeze;
#X text 24 24 vocoder;
#X text 12 72 Cort&zack's secret.;
#N canvas 687 153 753 316 hann 0;
#X obj 36 264 tabwrite \$0-hann;
#X obj 36 24 loadbang;
#X obj 36 132 t f f;
#N canvas 0 22 500 350 \$0-hann 0;
#X array \$0-hann 1024 float 2;
#X coords 0 1 1024 0 250 175 1 0 0;
#X restore 468 72 graph \$0-hann;
#X obj 36 60 bng 15 250 50 0 empty empty empty 17 7 0 10 #ffffff #000000 #000000;
#X obj 36 96 uzi 1024;
#X obj 144 192 expr (-cos(($f1/512)*pi)/2)+0.5;
#X connect 1 0 4 0;
#X connect 2 0 6 0;
#X connect 2 1 0 1;
#X connect 4 0 5 0;
#X connect 5 2 2 0;
#X connect 6 0 0 0;
#X coords 0 0 1 1 250 175 0 0 0;
#X restore 252 312 pd hann;
#X obj 96 228 nbx 5 40 0 100 0 1 empty empty empty 0 -7 0 10 #ffffff #000000 #000000 30 100;
#N canvas 474 29 755 745 fft 0;
#X obj 96 540 *~;
#X obj 36 540 *~;
#X obj 564 228 *~;
#X obj 516 228 *~;
#X obj 516 264 +~;
#X obj 36 108 *~;
#X obj 36 24 inlet~;
#X obj 36 144 rfft~;
#X obj 36 648 *~;
#X obj 204 228 *~;
#X obj 516 144 rfft~;
#X obj 36 576 rifft~;
#X obj 36 696 outlet~;
#X obj 156 228 *~;
#X obj 156 264 +~;
#X obj 156 444 *~;
#X obj 276 696 block~ 1024 4;
#X obj 156 384 clip~;
#X obj 72 72 tabreceive~ \$0-hann;
#X obj 276 300 expr 0.01*$f1*$f1;
#X obj 156 300 +~ 1e-20;
#X obj 72 612 tabreceive~ \$0-hann;
#X obj 516 108 *~;
#X obj 516 24 inlet~;
#X obj 552 72 tabreceive~ \$0-hann;
#X obj 276 24 inlet;
#X obj 156 480 /~ 1536;
#X obj 156 336 rsqrt~;
#X obj 516 336 sqrt~;
#X connect 0 0 11 1;
#X connect 1 0 11 0;
#X connect 2 0 4 1;
#X connect 3 0 4 0;
#X connect 4 0 28 0;
#X connect 5 0 7 0;
#X connect 6 0 5 0;
#X connect 7 0 13 0;
#X connect 7 0 13 1;
#X connect 7 0 1 0;
#X connect 7 1 9 0;
#X connect 7 1 9 1;
#X connect 7 1 0 0;
#X connect 8 0 12 0;
#X connect 9 0 14 1;
#X connect 10 0 3 0;
#X connect 10 0 3 1;
#X connect 10 1 2 0;
#X connect 10 1 2 1;
#X connect 11 0 8 0;
#X connect 13 0 14 0;
#X connect 14 0 20 0;
#X connect 15 0 26 0;
#X connect 17 0 15 0;
#X connect 18 0 5 1;
#X connect 19 0 17 2;
#X connect 20 0 27 0;
#X connect 21 0 8 1;
#X connect 22 0 10 0;
#X connect 23 0 22 0;
#X connect 24 0 22 1;
#X connect 25 0 19 0;
#X connect 26 0 0 1;
#X connect 26 0 1 1;
#X connect 27 0 17 0;
#X connect 28 0 15 1;
#X coords 0 0 1 1 250 175 0 0 0;
#X restore 36 312 pd fft;
#X obj 36 144 looper bell.aiff;
#X obj 36 168 looper voice.wav;
#X text 12 96 < http://www.cortlippe.com/convolution-brothers.html >;
#X connect 7 0 8 1;
#X connect 8 0 0 0;
#X connect 9 0 8 0;
#X connect 10 0 8 2;
#X coords 0 0 1 1 250 175 0 0 0;
