#N canvas 646 140 419 405 12;
#X obj 36 312 output;
#N canvas 703 22 551 725 playback 0;
#X obj 36 372 phasor~;
#X obj 36 156 mtof;
#X obj 300 372 line~;
#X obj 36 444 wrap~;
#X obj 204 120 + 69;
#X obj 204 156 mtof;
#X obj 204 192 / 440;
#X obj 192 372 *~ 1;
#X obj 36 408 +~ 0.5;
#X obj 36 672 outlet~;
#X obj 300 120 unpack;
#X f 7;
#N canvas 955 99 378 408 play 0;
#X obj 252 96 samphold~;
#X obj 132 96 samphold~;
#X obj 36 300 *~;
#X obj 36 96 -~ 0.5;
#X obj 36 348 outlet~;
#X obj 132 24 inlet~;
#X obj 252 24 inlet~;
#X obj 36 24 inlet~;
#N canvas 583 22 462 742 read 0;
#X obj 144 276 +~;
#X obj 144 456 -~;
#X obj 36 576 *~;
#X obj 36 636 +~;
#X f 3;
#X obj 240 360 tabread4~ \$0-nophase;
#X obj 240 396 tabread4~ \$0-nophase;
#X obj 240 324 +~ 512;
#X obj 36 24 inlet~;
#X obj 144 24 inlet~;
#X obj 36 684 outlet~;
#X obj 144 60 wrap~;
#X obj 36 132 -~;
#X obj 36 168 +~ 0.5;
#X obj 36 204 *~ 512;
#X connect 0 0 5 0;
#X connect 0 0 6 0;
#X connect 1 0 2 1;
#X connect 2 0 3 0;
#X connect 3 0 9 0;
#X connect 4 0 1 0;
#X connect 5 0 1 1;
#X connect 5 0 3 1;
#X connect 6 0 4 0;
#X connect 7 0 0 1;
#X connect 8 0 10 0;
#X connect 8 0 11 0;
#X connect 10 0 11 1;
#X connect 10 0 2 0;
#X connect 11 0 12 0;
#X connect 12 0 13 0;
#X connect 13 0 0 0;
#X coords 0 0 1 1 250 175 0 0 0;
#X restore 36 228 pd read;
#X obj 36 168 *~;
#N canvas 139 85 225 355 envelope 0;
#X obj 36 192 clip~ -0.5 0.5;
#X obj 36 228 cos~;
#X obj 36 156 *~;
#X obj 36 264 +~ 1;
#X obj 120 60 /~ 512;
#X obj 120 96 max~ 1;
#X obj 36 24 inlet~;
#X obj 120 24 inlet~;
#X obj 36 300 outlet~;
#X connect 0 0 1 0;
#X connect 1 0 3 0;
#X connect 2 0 0 0;
#X connect 3 0 8 0;
#X connect 4 0 5 0;
#X connect 5 0 2 1;
#X connect 6 0 2 0;
#X connect 7 0 4 0;
#X coords 0 0 1 1 250 175 0 0 0;
#X restore 144 228 pd envelope;
#X connect 0 0 8 1;
#X connect 1 0 9 1;
#X connect 1 0 10 1;
#X connect 2 0 4 0;
#X connect 3 0 9 0;
#X connect 3 0 10 0;
#X connect 5 0 1 0;
#X connect 6 0 0 0;
#X connect 7 0 0 1;
#X connect 7 0 1 1;
#X connect 7 0 3 0;
#X connect 8 0 2 0;
#X connect 9 0 8 0;
#X connect 10 0 2 1;
#X coords 0 0 1 1 250 175 0 0 0;
#X restore 36 528 pd play;
#X obj 108 24 inlet;
#X obj 204 24 inlet;
#X obj 36 120 - 12;
#X obj 36 24 inlet;
#X obj 60 312 expr (44100/$f1);
#X obj 36 264 t f f;
#X obj 372 312 expr $f1*44.1/512;
#X obj 36 624 +~;
#N canvas 448 336 378 408 play 0;
#X obj 252 96 samphold~;
#X obj 132 96 samphold~;
#X obj 36 300 *~;
#X obj 36 96 -~ 0.5;
#X obj 36 348 outlet~;
#X obj 132 24 inlet~;
#X obj 252 24 inlet~;
#X obj 36 24 inlet~;
#N canvas 882 22 462 742 read 0;
#X obj 144 276 +~;
#X obj 144 456 -~;
#X obj 36 576 *~;
#X obj 36 636 +~;
#X f 3;
#X obj 240 360 tabread4~ \$0-nophase;
#X obj 240 396 tabread4~ \$0-nophase;
#X obj 240 324 +~ 512;
#X obj 36 24 inlet~;
#X obj 144 24 inlet~;
#X obj 36 684 outlet~;
#X obj 144 60 wrap~;
#X obj 36 132 -~;
#X obj 36 168 +~ 0.5;
#X obj 36 204 *~ 512;
#X connect 0 0 5 0;
#X connect 0 0 6 0;
#X connect 1 0 2 1;
#X connect 2 0 3 0;
#X connect 3 0 9 0;
#X connect 4 0 1 0;
#X connect 5 0 1 1;
#X connect 5 0 3 1;
#X connect 6 0 4 0;
#X connect 7 0 0 1;
#X connect 8 0 10 0;
#X connect 8 0 11 0;
#X connect 10 0 11 1;
#X connect 10 0 2 0;
#X connect 11 0 12 0;
#X connect 12 0 13 0;
#X connect 13 0 0 0;
#X coords 0 0 1 1 250 175 0 0 0;
#X restore 36 228 pd read;
#X obj 36 168 *~;
#N canvas 139 85 225 355 envelope 0;
#X obj 36 192 clip~ -0.5 0.5;
#X obj 36 228 cos~;
#X obj 36 156 *~;
#X obj 36 264 +~ 1;
#X obj 120 60 /~ 512;
#X obj 120 96 max~ 1;
#X obj 36 24 inlet~;
#X obj 120 24 inlet~;
#X obj 36 300 outlet~;
#X connect 0 0 1 0;
#X connect 1 0 3 0;
#X connect 2 0 0 0;
#X connect 3 0 8 0;
#X connect 4 0 5 0;
#X connect 5 0 2 1;
#X connect 6 0 2 0;
#X connect 7 0 4 0;
#X coords 0 0 1 1 250 175 0 0 0;
#X restore 144 228 pd envelope;
#X connect 0 0 8 1;
#X connect 1 0 9 1;
#X connect 1 0 10 1;
#X connect 2 0 4 0;
#X connect 3 0 9 0;
#X connect 3 0 10 0;
#X connect 5 0 1 0;
#X connect 6 0 0 0;
#X connect 7 0 0 1;
#X connect 7 0 1 1;
#X connect 7 0 3 0;
#X connect 8 0 2 0;
#X connect 9 0 8 0;
#X connect 10 0 2 1;
#X coords 0 0 1 1 250 175 0 0 0;
#X restore 132 528 pd play;
#X obj 36 228 line;
#X msg 36 192 \$1 500;
#X obj 300 528 r \$0-size;
#X connect 0 0 8 0;
#X connect 0 0 11 0;
#X connect 1 0 22 0;
#X connect 2 0 11 2;
#X connect 2 0 20 2;
#X connect 3 0 20 0;
#X connect 4 0 5 0;
#X connect 5 0 6 0;
#X connect 6 0 7 1;
#X connect 7 0 11 1;
#X connect 7 0 20 1;
#X connect 8 0 3 0;
#X connect 10 0 18 0;
#X connect 10 1 2 1;
#X connect 11 0 19 0;
#X connect 12 0 14 0;
#X connect 13 0 4 0;
#X connect 14 0 1 0;
#X connect 15 0 10 0;
#X connect 16 0 7 0;
#X connect 17 0 0 0;
#X connect 17 1 16 0;
#X connect 18 0 2 0;
#X connect 19 0 9 0;
#X connect 20 0 19 1;
#X connect 21 0 17 0;
#X connect 22 0 21 0;
#X connect 23 0 2 0;
#X coords 0 0 1 1 250 175 0 0 0;
#X restore 36 264 pd playback;
#X obj 12 12 cnv 15 250 45 empty empty empty 0 -7 0 10 #cccccc #000000;
#N canvas 550 126 503 417 sample 0;
#X obj 36 96 soundfiler;
#X obj 36 24 loadbang;
#X msg 36 60 read -resize nophase.wav \$0-nophase;
#N canvas 0 22 500 350 \$0-nophase 0;
#X array \$0-nophase 62079 float 0;
#X coords 0 1 62078 -1 250 175 1 0 0;
#X restore 36 204 graph \$0-nophase;
#X obj 36 132 s \$0-size;
#X connect 0 0 4 0;
#X connect 1 0 2 0;
#X connect 2 0 0 0;
#X coords 0 0 1 1 250 175 0 0 0;
#X restore 204 264 pd sample;
#X obj -60 12 freeze;
#X text 24 24 bashing (playback);
#X text 12 72 Overlapped (phase bashed) sample playback.;
#X obj 60 192 nbx 5 40 0 127 0 1 empty empty empty 0 -7 0 10 #ffffff #000000 #000000 49 127;
#X obj 108 192 nbx 5 40 -12 12 0 1 empty empty empty 0 -7 0 10 #ffffff #000000 #000000 0 24;
#X msg 36 108 0 \, 4000 4000;
#X msg 36 144 0 \, 4000 8000;
#X connect 1 0 0 0;
#X connect 7 0 1 1;
#X connect 8 0 1 2;
#X connect 9 0 1 0;
#X connect 10 0 1 0;
#X coords 0 0 1 1 250 175 0 0 0;
