#N canvas 560 80 405 646 12;
#X obj 36 552 output;
#X obj 192 276 *~;
#X obj 192 228 +~ 0.2;
#X obj 132 444 *~;
#X obj 36 516 *~;
#X obj 36 336 mtof;
#X obj 36 444 vcf~ 3;
#X obj 276 288 mtof;
#X obj 192 372 adsr 2 30 200 50 500;
#X obj 192 192 adsr 1 10 200 50 500;
#X obj 36 144 poly 1 1;
#X obj 12 12 cnv 15 250 45 empty empty empty 0 -7 0 10 #cccccc #000000;
#X obj -60 12 freeze;
#X text 24 24 subtractive;
#X text 12 72 The classic subtractive synth sound.;
#N canvas 557 123 377 537 phasor 0;
#X obj 36 108 phasor~;
#X obj 36 480 outlet~;
#X obj 96 204 wrap~;
#X obj 36 288 +~;
#X obj 204 108 phasor~;
#X obj 264 204 wrap~;
#X obj 204 288 +~;
#X obj 36 408 +~;
#X obj 204 480 block~ 1024 1 16;
#X obj 36 24 inlet;
#N canvas 256 22 279 412 butterworth 0;
#X obj 36 60 *~ 0.064;
#X obj 36 84 rpole~ 0.93538;
#X obj 36 108 *~ 0.00431;
#X obj 36 156 cpole~ 0.96559 0.05592;
#X obj 36 204 cpole~ 0.96559 -0.05592;
#X obj 36 240 *~ 0.125;
#X obj 36 276 rzero~ -1;
#X obj 36 300 rzero~ -1;
#X obj 36 324 rzero~ -1;
#X obj 36 24 inlet~;
#X obj 36 360 outlet~;
#X connect 0 0 1 0;
#X connect 1 0 2 0;
#X connect 2 0 3 0;
#X connect 3 0 4 0;
#X connect 3 1 4 1;
#X connect 4 0 5 0;
#X connect 5 0 6 0;
#X connect 6 0 7 0;
#X connect 7 0 8 0;
#X connect 8 0 10 0;
#X connect 9 0 0 0;
#X coords 0 0 1 1 250 175 0 0 0;
#X restore 36 444 pd butterworth;
#X obj 96 168 -~ 0.5;
#X obj 96 240 *~ -0.5;
#X obj 264 168 -~ 0.5;
#X obj 264 240 *~ 0.5;
#X obj 204 72 +~ 0.5;
#X connect 0 0 3 0;
#X connect 0 0 11 0;
#X connect 2 0 12 0;
#X connect 3 0 7 0;
#X connect 4 0 6 0;
#X connect 4 0 13 0;
#X connect 5 0 14 0;
#X connect 6 0 7 1;
#X connect 7 0 10 0;
#X connect 9 0 0 0;
#X connect 9 0 15 0;
#X connect 10 0 1 0;
#X connect 11 0 2 0;
#X connect 12 0 3 1;
#X connect 13 0 5 0;
#X connect 14 0 6 1;
#X connect 15 0 4 0;
#X coords 0 0 1 1 250 175 0 0 0;
#X restore 36 372 pd phasor;
#N canvas 908 103 393 441 pitches 0;
#X obj 36 240 list store 36 48 60 67 72 74 76 84 96;
#X msg 36 204 get \$1 1;
#X obj 36 132 counter;
#X obj 36 168 % 9;
#X obj 36 336 pack;
#X obj 36 24 dspstatus;
#X obj 36 60 tgl 15 0 empty empty empty 17 7 0 10 #ffffff #000000 #000000 0 1;
#X obj 36 384 outlet;
#X obj 36 96 metro 500;
#X obj 36 288 makenote 90 250;
#X connect 0 0 9 0;
#X connect 1 0 0 0;
#X connect 2 0 3 0;
#X connect 3 0 1 0;
#X connect 4 0 7 0;
#X connect 5 0 6 0;
#X connect 6 0 8 0;
#X connect 8 0 2 0;
#X connect 9 0 4 0;
#X connect 9 1 4 1;
#X coords 0 0 1 1 250 175 0 0 0;
#X restore 36 108 pd pitches;
#X obj 276 228 nbx 5 40 0 127 0 1 empty empty empty 0 -7 0 10 #ffffff #000000 #000000 72 127;
#X obj 192 324 *~;
#X connect 1 0 18 0;
#X connect 2 0 1 0;
#X connect 2 0 1 1;
#X connect 3 0 4 1;
#X connect 4 0 0 0;
#X connect 5 0 15 0;
#X connect 6 0 4 0;
#X connect 7 0 18 1;
#X connect 8 0 3 0;
#X connect 8 0 3 1;
#X connect 9 0 2 0;
#X connect 10 1 5 0;
#X connect 10 2 9 0;
#X connect 10 2 8 0;
#X connect 15 0 6 0;
#X connect 16 0 10 0;
#X connect 17 0 7 0;
#X connect 18 0 6 1;
#X coords 0 0 1 1 250 175 0 0 0;
