#N canvas 339 34 657 704 12;
#X obj 312 288 sqrt;
#X obj 36 552 *~;
#X obj 216 408 line~;
#X obj 216 444 *~;
#X obj 216 480 *~;
#X msg 216 360 0 \$1;
#X obj 312 324 sqrt;
#X obj 312 180 float \$1;
#X obj 216 144 t b b;
#X msg 312 360 \$1 5;
#X obj 312 216 * 0.1;
#X obj 36 444 + \$4;
#X obj 216 216 float \$2;
#X obj 216 324 *;
#X obj 36 144 float \$3;
#X obj 36 408 *;
#X obj 36 480 osc~;
#X obj 132 144 unpack;
#X obj 36 24 inlet;
#X obj 216 180 delay 5;
#X obj 36 60 t b b l;
#X text 432 24 1- Amplitude.;
#X text 432 48 2- Relative duration.;
#X text 432 72 3- Relative frequency.;
#X text 432 96 4- Detune.;
#X obj 36 648 throw~;
#N canvas 232 92 258 191 bus 0;
#X obj 36 60 arguments;
#X obj 36 24 loadbang;
#X msg 120 96 set \$1-bus;
#X obj 120 132 outlet;
#X connect 0 1 2 0;
#X connect 1 0 0 0;
#X connect 2 0 3 0;
#X coords 0 0 1 1 250 175 0 0 0;
#X restore 60 600 pd bus;
#X connect 0 0 6 0;
#X connect 1 0 25 0;
#X connect 2 0 3 0;
#X connect 2 0 3 1;
#X connect 3 0 4 0;
#X connect 3 0 4 1;
#X connect 4 0 1 1;
#X connect 5 0 2 0;
#X connect 6 0 9 0;
#X connect 7 0 10 0;
#X connect 8 0 19 0;
#X connect 8 1 7 0;
#X connect 9 0 2 0;
#X connect 10 0 0 0;
#X connect 11 0 16 0;
#X connect 12 0 13 0;
#X connect 13 0 5 0;
#X connect 14 0 15 0;
#X connect 15 0 11 0;
#X connect 16 0 1 0;
#X connect 17 0 15 1;
#X connect 17 1 13 1;
#X connect 18 0 20 0;
#X connect 19 0 12 0;
#X connect 20 0 8 0;
#X connect 20 1 14 0;
#X connect 20 2 17 0;
#X connect 26 0 25 0;
#X coords 0 0 1 1 250 175 0 0 0;
