#N canvas 93 22 1273 849 12;
#X obj 161 497 +~;
#X obj 184 407 *~;
#X obj 486 412 *~;
#X obj 285 412 *~;
#X obj 387 412 *~;
#X obj 443 546 -~;
#X obj 364 545 -~;
#X obj 239 537 +~;
#X obj 161 534 +~;
#X obj 162 444 +~;
#X obj 262 440 +~;
#X obj 464 501 -~;
#X obj 387 499 +~;
#X obj 239 500 -~;
#X obj 744 432 line~;
#X obj 509 374 line~;
#X obj 16 121 delread~ \$0-del1 58.6435;
#X obj 94 143 delread~ \$0-del2 69.4325;
#X obj 176 165 delread~ \$0-del3 74.5234;
#X obj 258 189 delread~ \$0-del4 86.1244;
#X obj 672 504 *~;
#X obj 732 504 *~;
#X obj 161 641 delwrite~ \$0-del1 58.6435;
#X obj 240 617 delwrite~ \$0-del2 69.4325;
#X obj 365 595 delwrite~ \$0-del3 74.5234;
#X obj 444 573 delwrite~ \$0-del4 86.1244;
#X obj 744 360 dbtorms;
#X obj 744 408 pack 0 30;
#X obj 720 204 pack 0 50;
#X obj 9 390 inlet~;
#X obj 660 528 outlet~;
#X obj 732 528 outlet~;
#X obj 720 180 / 200;
#X obj 720 156 clip 0 100;
#X obj 52 236 lop~;
#X obj 636 132 f \$1;
#X obj 720 132 f \$2;
#X obj 828 132 f \$3;
#X obj 900 132 f \$4;
#X obj 600 36 loadbang;
#X obj 804 504 *~;
#X obj 864 504 *~;
#X obj 804 528 outlet~;
#X obj 864 528 outlet~;
#X obj 828 156 moses 1;
#X msg 840 180 3000;
#X obj 912 180 clip 0 100;
#N canvas 341 84 355 597 early-reflect 0;
#X obj 84 119 -~;
#X obj 49 119 +~;
#X obj 50 195 +~;
#X obj 85 196 -~;
#X obj 84 275 -~;
#X obj 49 274 +~;
#X obj 82 349 -~;
#X obj 48 350 +~;
#X obj 83 428 -~;
#X obj 49 428 +~;
#X obj 65 7 inlet~;
#X obj 49 508 outlet~;
#X obj 119 507 outlet~;
#X obj 110 66 delwrite~ \$0-ref1 43.5337;
#X obj 110 90 delread~ \$0-ref1 43.5337;
#X obj 107 145 delwrite~ \$0-ref2 25.796;
#X obj 107 169 delread~ \$0-ref2 25.796;
#X obj 106 223 delwrite~ \$0-ref3 19.392;
#X obj 106 247 delread~ \$0-ref3 19.392;
#X obj 102 300 delwrite~ \$0-ref4 16.364;
#X obj 102 324 delread~ \$0-ref4 16.364;
#X obj 119 452 delwrite~ \$0-ref6 4.2546;
#X obj 119 477 delread~ \$0-ref6 4.2546;
#X obj 106 376 delwrite~ \$0-ref5 7.645;
#X obj 106 400 delread~ \$0-ref5 7.645;
#X connect 0 0 15 0;
#X connect 1 0 3 0;
#X connect 1 0 2 0;
#X connect 2 0 5 0;
#X connect 2 0 4 0;
#X connect 3 0 17 0;
#X connect 4 0 19 0;
#X connect 5 0 7 0;
#X connect 5 0 6 0;
#X connect 6 0 23 0;
#X connect 7 0 9 0;
#X connect 7 0 8 0;
#X connect 8 0 21 0;
#X connect 9 0 11 0;
#X connect 10 0 1 0;
#X connect 10 0 0 0;
#X connect 10 0 13 0;
#X connect 14 0 1 1;
#X connect 14 0 0 1;
#X connect 16 0 2 1;
#X connect 16 0 3 1;
#X connect 18 0 5 1;
#X connect 18 0 4 1;
#X connect 20 0 7 1;
#X connect 20 0 6 1;
#X connect 22 0 12 0;
#X connect 24 0 9 1;
#X connect 24 0 8 1;
#X coords 0 0 1 1 250 175 0 0 0;
#X restore 9 416 pd early-reflect;
#X obj 852 216 f;
#X obj 912 204 f;
#X obj 912 228 * 0.01;
#X obj 912 252 pack 0 50;
#X obj 912 276 line~;
#X obj 29 269 -~;
#X obj 28 300 *~;
#X obj 16 331 +~;
#X obj 132 240 lop~;
#X obj 106 274 -~;
#X obj 105 309 *~;
#X obj 95 333 +~;
#X obj 214 245 lop~;
#X obj 188 273 -~;
#X obj 187 314 *~;
#X obj 176 339 +~;
#X obj 308 249 lop~;
#X obj 281 274 -~;
#X obj 281 318 *~;
#X obj 258 342 +~;
#X obj 744 384 * 0.125;
#X text 876 696 1- Output level (decibels).;
#X text 876 720 2- Liveness (usually between 85 and 100).;
#X text 876 744 3- Crossover frequency in Hz.;
#X text 876 768 4- High frequency damping (percent).;
#X connect 0 0 8 0;
#X connect 0 0 6 0;
#X connect 1 0 9 1;
#X connect 2 0 11 1;
#X connect 2 0 12 1;
#X connect 2 0 41 0;
#X connect 3 0 10 1;
#X connect 4 0 12 0;
#X connect 4 0 11 0;
#X connect 4 0 40 0;
#X connect 5 0 25 0;
#X connect 6 0 24 0;
#X connect 7 0 23 0;
#X connect 8 0 22 0;
#X connect 9 0 13 0;
#X connect 9 0 0 0;
#X connect 9 0 20 0;
#X connect 10 0 0 1;
#X connect 10 0 13 1;
#X connect 10 0 21 0;
#X connect 11 0 7 1;
#X connect 11 0 5 1;
#X connect 12 0 8 1;
#X connect 12 0 6 1;
#X connect 13 0 7 0;
#X connect 13 0 5 0;
#X connect 14 0 20 1;
#X connect 14 0 21 1;
#X connect 14 0 40 1;
#X connect 14 0 41 1;
#X connect 15 0 3 1;
#X connect 15 0 1 1;
#X connect 15 0 4 1;
#X connect 15 0 2 1;
#X connect 16 0 34 0;
#X connect 16 0 53 1;
#X connect 16 0 55 0;
#X connect 17 0 56 0;
#X connect 17 0 57 1;
#X connect 17 0 59 0;
#X connect 18 0 63 0;
#X connect 18 0 60 0;
#X connect 18 0 61 1;
#X connect 19 0 67 0;
#X connect 19 0 65 1;
#X connect 19 0 64 0;
#X connect 20 0 30 0;
#X connect 21 0 31 0;
#X connect 26 0 68 0;
#X connect 27 0 14 0;
#X connect 28 0 15 0;
#X connect 29 0 47 0;
#X connect 32 0 28 0;
#X connect 33 0 32 0;
#X connect 34 0 53 0;
#X connect 35 0 26 0;
#X connect 36 0 33 0;
#X connect 37 0 44 0;
#X connect 38 0 46 0;
#X connect 39 0 35 0;
#X connect 39 0 36 0;
#X connect 39 0 37 0;
#X connect 39 0 38 0;
#X connect 40 0 42 0;
#X connect 41 0 43 0;
#X connect 44 0 45 0;
#X connect 44 1 48 0;
#X connect 45 0 48 0;
#X connect 46 0 49 0;
#X connect 47 0 9 0;
#X connect 47 1 10 0;
#X connect 48 0 34 1;
#X connect 48 0 56 1;
#X connect 48 0 60 1;
#X connect 48 0 64 1;
#X connect 49 0 50 0;
#X connect 50 0 51 0;
#X connect 51 0 52 0;
#X connect 52 0 54 1;
#X connect 52 0 58 1;
#X connect 52 0 62 1;
#X connect 52 0 66 1;
#X connect 53 0 54 0;
#X connect 54 0 55 1;
#X connect 55 0 1 0;
#X connect 56 0 57 0;
#X connect 57 0 58 0;
#X connect 58 0 59 1;
#X connect 59 0 3 0;
#X connect 60 0 61 0;
#X connect 61 0 62 0;
#X connect 62 0 63 1;
#X connect 63 0 4 0;
#X connect 64 0 65 0;
#X connect 65 0 66 0;
#X connect 66 0 67 1;
#X connect 67 0 2 0;
#X connect 68 0 27 0;
#X coords 0 0 1 1 250 175 0 0 0;
