#N canvas 626 44 486 266 12;
#X text 312 24 1- Table prefix.;
#N canvas 575 80 557 563 playback 0;
#X obj 36 408 *~;
#X obj 36 516 outlet~;
#X obj 396 132 unpack;
#X f 14;
#X obj 396 204 sqrt;
#X obj 396 228 sqrt;
#X obj 36 468 *~;
#X obj 396 312 *~;
#X obj 396 348 *~;
#X obj 36 24 inlet;
#X obj 36 72 route phase sample cutoff envelope;
#X f 46;
#X obj 396 168 dbtoamp;
#X obj 396 276 vline~;
#X obj 300 132 vline~;
#X obj 36 132 vline~;
#X msg 132 168 set \$1;
#X obj 132 132 makefilename \$1%d;
#X obj 36 252 tabread4~;
#X connect 0 0 5 0;
#X connect 2 0 10 0;
#X connect 2 1 11 1;
#X connect 3 0 4 0;
#X connect 4 0 11 0;
#X connect 5 0 1 0;
#X connect 6 0 7 0;
#X connect 6 0 7 1;
#X connect 7 0 5 1;
#X connect 8 0 9 0;
#X connect 9 0 13 0;
#X connect 9 1 15 0;
#X connect 9 2 12 0;
#X connect 9 3 2 0;
#X connect 10 0 3 0;
#X connect 11 0 6 0;
#X connect 11 0 6 1;
#X connect 12 0 0 1;
#X connect 13 0 16 0;
#X connect 14 0 16 0;
#X connect 15 0 14 0;
#X connect 16 0 0 0;
#X coords 0 0 1 1 250 175 0 0 0;
#X restore 144 96 pd playback;
#N canvas 523 74 313 400 control 0;
#X obj 36 144 delay 5;
#X obj 36 24 inlet;
#X obj 168 348 outlet;
#X f 6;
#X obj 36 180 t 1 b;
#X f 7;
#X msg 168 276 cutoff \$1 5;
#X obj 36 60 t b l 0;
#X f 7;
#N canvas 298 103 782 585 play 0;
#X obj 324 312 f;
#X obj 36 264 mtof;
#X obj 36 300 / 261.62;
#X obj 36 336 * 4.41e+08;
#X obj 36 396 +;
#X obj 348 264 delay;
#X obj 168 336 + 1;
#X obj 168 300 * 44.1;
#X msg 324 396 sample \$1;
#X msg 324 468 envelope 0 \$1;
#X obj 264 264 pack;
#X msg 324 372 envelope 0 \, envelope \$1 \$2;
#X msg 324 444 phase \$1 1e+07;
#X msg 324 420 phase \$1;
#X obj 36 24 inlet;
#X obj 324 528 outlet;
#X text 468 24 1- Pitch.;
#X text 468 48 2- Amplitude (decibels).;
#X text 468 72 3- Duration (milliseconds).;
#X text 468 96 4- Sample number.;
#X text 468 120 5- Start location (milliseconds).;
#X text 468 144 6- Rise time (milliseconds).;
#X text 468 168 7- Decay time (milliseconds).;
#X obj 36 108 unpack f f f f f f f;
#X obj 36 72 list store;
#X obj 144 24 inlet;
#X connect 0 0 9 0;
#X connect 1 0 2 0;
#X connect 2 0 3 0;
#X connect 3 0 4 0;
#X connect 4 0 12 0;
#X connect 5 0 0 0;
#X connect 6 0 4 1;
#X connect 6 0 13 0;
#X connect 7 0 6 0;
#X connect 8 0 15 0;
#X connect 9 0 15 0;
#X connect 10 0 11 0;
#X connect 11 0 15 0;
#X connect 12 0 15 0;
#X connect 13 0 15 0;
#X connect 14 0 24 0;
#X connect 23 0 1 0;
#X connect 23 1 10 0;
#X connect 23 2 5 0;
#X connect 23 3 8 0;
#X connect 23 4 7 0;
#X connect 23 5 10 1;
#X connect 23 6 0 1;
#X connect 24 0 23 0;
#X connect 25 0 24 1;
#X coords 0 0 1 1 250 175 0 0 0;
#X restore 168 240 pd play;
#X connect 0 0 3 0;
#X connect 1 0 5 0;
#X connect 3 0 4 0;
#X connect 3 1 6 0;
#X connect 4 0 2 0;
#X connect 5 0 0 0;
#X connect 5 1 6 1;
#X connect 5 2 4 0;
#X connect 6 0 2 0;
#X coords 0 0 1 1 250 175 0 0 0;
#X restore 144 60 pd control;
#X obj 144 24 inlet;
#X obj 36 216 outlet~;
#X obj 36 24 inlet~;
#X obj 36 168 +~;
#X connect 1 0 6 1;
#X connect 2 0 1 0;
#X connect 3 0 2 0;
#X connect 5 0 6 0;
#X connect 6 0 4 0;
#X coords 0 0 1 1 250 175 0 0 0;
