#N canvas 315 40 689 764 12;
#X obj 288 492 pack 0 50;
#X obj 120 492 pack 0 50;
#X obj 36 24 inlet~;
#X obj 120 528 line~;
#X obj 288 528 line~;
#X obj 120 612 *~;
#X obj 36 660 +~;
#X obj 36 708 outlet~;
#X obj 120 144 + \$1;
#X obj 120 456 mtof;
#X obj 120 564 osc~;
#X obj 120 180 int;
#X text 492 24 1- Relative phase.;
#X obj 120 24 inlet;
#X obj 288 108 outlet;
#X obj 120 60 t l l;
#X f 19;
#X obj 120 108 unpack f f f f;
#X obj 288 408 expr exp(-$f1*$f1*$f2);
#X obj 120 408 expr $f1*$f2+$f3;
#X obj 432 288 expr ($f1%10000)*0.0002-1;
#X connect 0 0 4 0;
#X connect 1 0 3 0;
#X connect 2 0 6 0;
#X connect 3 0 10 0;
#X connect 4 0 5 1;
#X connect 5 0 6 1;
#X connect 6 0 7 0;
#X connect 8 0 11 0;
#X connect 9 0 1 0;
#X connect 10 0 5 0;
#X connect 11 0 19 0;
#X connect 13 0 15 0;
#X connect 15 0 16 0;
#X connect 15 1 14 0;
#X connect 16 0 8 0;
#X connect 16 1 18 2;
#X connect 16 2 18 1;
#X connect 16 3 17 1;
#X connect 17 0 0 0;
#X connect 18 0 9 0;
#X connect 19 0 17 0;
#X connect 19 0 18 0;
#X coords 0 0 1 1 250 175 0 0 0;
