#N canvas 471 146 739 551 12;
#X obj 156 312 pack 0 50;
#X obj 96 264 pack 0 50;
#X obj 24 348 inlet~;
#X obj 96 288 line~;
#X obj 156 336 line~;
#X obj 96 360 *~;
#X obj 24 372 +~;
#X obj 24 396 outlet~;
#X obj 288 216 r pitch+;
#X obj 180 192 r interval+;
#X obj 96 216 expr $f1 * $f2 + $f3;
#X obj 480 180 r dropoff+;
#X obj 297 11 r phase;
#X obj 297 37 + \$1;
#X obj 372 216 expr exp(-$f1*$f1*$f2);
#X obj 96 240 mtof;
#X obj 96 312 osc~;
#X text 64 8 our local phase =;
#X text 61 26 overall phase + our;
#X text 60 45 relative phase;
#X text 57 64 (modulo 10000);
#X text 59 81 normalized from -1 to 1;
#X text 349 36 \$1: relative phase;
#X text 12 156 pitch is center pitch;
#X text 12 168 + interval*phase;
#X text 372 240 amplitude is Gaussian \, with;
#X text 324 264 peak width controlled by "dropoff";
#X obj 300 84 int;
#X obj 300 120 expr ($f1% 10000) * 0.0002 - 1;
#X connect 0 0 4 0;
#X connect 1 0 3 0;
#X connect 2 0 6 0;
#X connect 3 0 16 0;
#X connect 4 0 5 1;
#X connect 5 0 6 1;
#X connect 6 0 7 0;
#X connect 8 0 10 2;
#X connect 9 0 10 1;
#X connect 10 0 15 0;
#X connect 11 0 14 1;
#X connect 12 0 13 0;
#X connect 13 0 27 0;
#X connect 14 0 0 0;
#X connect 15 0 1 0;
#X connect 16 0 5 0;
#X connect 27 0 28 0;
#X connect 28 0 10 0;
#X connect 28 0 14 0;
#X coords 0 0 1 1 250 175 0 0 0;
