#N canvas 315 40 1067 792 12;
#X obj 156 408 pack 0 50;
#X obj 96 360 pack 0 50;
#X obj 24 444 inlet~;
#X obj 96 384 line~;
#X obj 156 432 line~;
#X obj 96 456 *~;
#X obj 24 468 +~;
#X obj 24 492 outlet~;
#X obj 300 192 + \$1;
#X obj 96 336 mtof;
#X obj 96 408 osc~;
#X text 60 108 our local phase =;
#X text 60 120 overall phase + our;
#X text 60 144 relative phase;
#X text 60 156 (modulo 10000);
#X text 60 180 normalized from -1 to 1;
#X text 12 252 pitch is center pitch;
#X text 12 264 + interval*phase;
#X text 372 336 amplitude is Gaussian \, with;
#X text 324 360 peak width controlled by "dropoff";
#X obj 300 228 int;
#X obj 300 264 expr ($f1% 10000) * 0.0002 - 1;
#X text 588 48 1- Relative phase.;
#X obj 300 48 inlet;
#X obj 480 204 outlet;
#X obj 300 96 t l l;
#X f 19;
#X obj 300 144 unpack f f f f;
#X obj 96 312 expr $f1 * $f2 + $f3;
#X obj 372 312 expr exp(-$f1*$f1*$f2);
#X connect 0 0 4 0;
#X connect 1 0 3 0;
#X connect 2 0 6 0;
#X connect 3 0 10 0;
#X connect 4 0 5 1;
#X connect 5 0 6 1;
#X connect 6 0 7 0;
#X connect 8 0 20 0;
#X connect 9 0 1 0;
#X connect 10 0 5 0;
#X connect 20 0 21 0;
#X connect 21 0 27 0;
#X connect 21 0 28 0;
#X connect 23 0 25 0;
#X connect 25 0 26 0;
#X connect 25 1 24 0;
#X connect 26 0 8 0;
#X connect 26 1 27 2;
#X connect 26 2 27 1;
#X connect 26 3 28 1;
#X connect 27 0 9 0;
#X connect 28 0 0 0;
#X coords 0 0 1 1 250 175 0 0 0;
