#N canvas 299 60 485 698 12;
#X obj 36 492 osc~;
#X obj 132 456 pack 0 30;
#X obj 132 492 line~;
#X obj 36 552 *~;
#X obj 36 60 mtof;
#X obj 132 228 f;
#X obj 36 96 * \$1;
#X obj 168 192 ftom;
#X obj 36 24 inlet;
#X obj 132 132 metro 30;
#X obj 132 96 dspstatus;
#N canvas 232 92 258 191 bus 0;
#X obj 36 60 arguments;
#X obj 36 24 loadbang;
#X msg 120 96 set \$1-bus;
#X obj 120 132 outlet;
#X connect 0 1 2 0;
#X connect 1 0 0 0;
#X connect 2 0 3 0;
#X coords 0 0 1 1 250 175 0 0 0;
#X restore 60 600 pd bus;
#X obj 36 648 throw~;
#X obj 132 264 tabread4 \$2;
#X text 288 24 1- Partial number.;
#X text 288 48 2- Amplitudes table.;
#X obj 36 132 t f f;
#X obj 132 420 dbtoamp;
#X obj 132 384 clip 0 100;
#X obj 132 300 moses 1;
#X obj 204 336 + 50;
#X connect 0 0 3 0;
#X connect 1 0 2 0;
#X connect 2 0 3 1;
#X connect 3 0 12 0;
#X connect 4 0 6 0;
#X connect 5 0 13 0;
#X connect 6 0 16 0;
#X connect 7 0 5 1;
#X connect 8 0 4 0;
#X connect 9 0 5 0;
#X connect 10 0 9 0;
#X connect 11 0 12 0;
#X connect 13 0 19 0;
#X connect 16 0 0 0;
#X connect 16 1 7 0;
#X connect 17 0 1 0;
#X connect 18 0 17 0;
#X connect 19 0 18 0;
#X connect 19 1 20 0;
#X connect 20 0 18 0;
#X coords 0 0 1 1 250 175 0 0 0;
