#N canvas 230 180 544 412 12;
#X obj 456 24 inlet~;
#X obj 36 24 inlet~;
#X obj 120 24 inlet~;
#X obj 288 24 inlet~;
#X obj 372 24 inlet~;
#X obj 120 108 -~;
#X obj 120 324 +~;
#X f 3;
#X obj 120 168 *~;
#X obj 36 108 -~;
#X obj 36 324 +~;
#X obj 36 168 *~;
#X obj 36 360 outlet~;
#X obj 120 360 outlet~;
#X connect 0 0 10 1;
#X connect 0 0 7 1;
#X connect 1 0 8 0;
#X connect 2 0 5 0;
#X connect 3 0 8 1;
#X connect 3 0 9 1;
#X connect 4 0 5 1;
#X connect 4 0 6 1;
#X connect 5 0 7 0;
#X connect 6 0 12 0;
#X connect 7 0 6 0;
#X connect 8 0 10 0;
#X connect 9 0 11 0;
#X connect 10 0 9 0;
#X coords 0 0 1 1 250 175 0 0 0;
