#N canvas 570 123 481 489 12;
#X obj 12 12 cnv 15 275 45 empty empty empty 0 -7 0 10 #cccccc #000000;
#X obj -60 12 freeze;
#N canvas 0 0 450 300 \$0-tab 0;
#X array \$0-tab 64 float 1;
#A 0 0 0 0 0 0 0 0 0 0 0 0 0 0 0 0 0 0 0 0 0 0 0 0 0 0 0 0 1 1 1 1 1 1 1 1 1 1 1 1 1 1 1 1 1 1 1 1 1 1 1 1 1 1 1 1 1 1 1 1 1 1 1 1 1;
#X coords 0 2 63 -2 250 175 1 0 0;
#X restore 204 84 graph \$0-tab;
#X obj 36 360 tabreceive~ \$0-tab;
#X obj 36 108 nbx 5 40 0 63 0 1 empty empty empty 0 0 0 10 #ffffff #000000 #000000 27 63;
#N canvas 654 382 236 291 step 0;
#X obj 36 24 inlet;
#X obj 96 108 uzi 64;
#X obj 36 60 t b f;
#X obj 144 144 t f f;
#X obj 36 240 tabwrite \$0-tab;
#X obj 36 204 >=;
#X connect 0 0 2 0;
#X connect 1 2 3 0;
#X connect 2 0 1 0;
#X connect 2 1 5 1;
#X connect 3 0 5 0;
#X connect 3 1 4 1;
#X connect 5 0 4 0;
#X coords 0 0 1 1 250 175 0 0 0;
#X restore 36 168 pd step;
#X f 7;
#N canvas 228 195 480 280 up 0;
#X obj 36 240 outlet~;
#N canvas 0 22 500 350 \$0-128 0;
#X array \$0-128 128 float 0;
#X coords 0 2 127 -2 250 175 1 0 0;
#X restore 204 36 graph \$0-128;
#X obj 204 240 block~ 128 1 2;
#X obj 60 72 tabsend~ \$0-128;
#X obj 36 24 inlet~ pad;
#X connect 4 0 0 0;
#X connect 4 0 3 0;
#X coords 0 0 1 1 250 175 0 0 0;
#X restore 36 396 pd up;
#N canvas 0 0 450 300 \$0-out 0;
#X array \$0-out 64 float 1;
#A 0 0 0 0 0 0 0 0 0 0 0 0 0 0 0 0 0 0 0 0 0 0 0 0 0 0 0 0 1 1 1 1 1 1 1 1 1 1 1 1 1 1 1 1 1 1 1 1 1 1 1 1 1 1 1 1 1 1 1 1 1 1 1 1 1;
#X coords 0 2 63 -2 250 175 1 0 0;
#X restore 204 288 graph \$0-out;
#X text 24 24 resample (up);
#X text 12 72 Resampling tutti-frutti.;
#X obj 36 432 tabsend~ \$0-out;
#X connect 3 0 6 0;
#X connect 4 0 5 0;
#X connect 6 0 10 0;
#X coords 0 0 1 1 250 175 0 0 0;
