#N canvas 624 128 480 488 12;
#X obj 12 12 cnv 15 275 45 empty empty empty 0 -7 0 10 #cccccc #000000;
#X obj -60 12 freeze;
#N canvas 0 0 450 300 \$0-tab 0;
#X array \$0-tab 64 float 1;
#A 0 0 0 0 0 0 0 0 0 0 0 0 0 0 0 0 1 1 1 1 1 1 1 1 1 1 1 1 1 1 1 1 1 1 1 1 1 1 1 1 1 1 1 1 1 1 1 1 1 1 1 1 1 1 1 1 1 1 1 1 1 1 1 1 1;
#X coords 0 2 63 -2 250 175 1 0 0;
#X restore 204 84 graph \$0-tab;
#X obj 36 360 tabreceive~ \$0-tab;
#X obj 36 108 nbx 5 40 0 63 0 1 empty empty empty 0 0 0 10 #ffffff #000000 #000000 15 63;
#N canvas 654 382 236 291 step 0;
#X obj 36 24 inlet;
#X obj 96 108 uzi 64;
#X obj 36 60 t b f;
#X obj 144 144 t f f;
#X obj 36 240 tabwrite \$0-tab;
#X obj 36 204 >=;
#X connect 0 0 2 0;
#X connect 1 2 3 0;
#X connect 2 0 1 0;
#X connect 2 1 5 1;
#X connect 3 0 5 0;
#X connect 3 1 4 1;
#X connect 5 0 4 0;
#X coords 0 0 1 1 250 175 0 0 0;
#X restore 36 168 pd step;
#X f 7;
#N canvas 185 155 466 482 up 0;
#X obj 36 432 outlet~;
#N canvas 0 22 500 350 \$0-256-A 0;
#X array \$0-256-A 256 float 0;
#X coords 0 2 255 -2 250 175 1 0 0;
#X restore 180 36 graph \$0-256-A;
#X obj 36 24 inlet~ pad;
#X obj 180 432 block~ 128 1 4;
#N canvas 451 142 385 282 split 0;
#X obj 36 24 inlet~;
#X obj 36 144 *~;
#X obj 84 144 *~;
#X f 3;
#X obj 132 24 sig~ 1;
#X obj 132 108 -~;
#X obj 204 24 blockinfo~;
#X obj 84 192 tabwrite~ \$0-256-A 125;
#X obj 36 228 tabwrite~ \$0-256-B 125;
#X connect 0 0 1 0;
#X connect 0 0 2 0;
#X connect 1 0 7 0;
#X connect 2 0 6 0;
#X connect 3 0 4 0;
#X connect 4 0 2 1;
#X connect 5 0 4 1;
#X connect 5 0 1 1;
#X coords 0 0 1 1 250 175 0 0 0;
#X restore 84 96 pd split;
#N canvas 0 22 500 350 \$0-256-B 0;
#X array \$0-256-B 256 float 0;
#X coords 0 2 255 -2 250 175 1 0 0;
#X restore 180 240 graph \$0-256-B;
#X connect 2 0 0 0;
#X connect 2 0 4 0;
#X coords 0 0 1 1 250 175 0 0 0;
#X restore 36 396 pd up;
#N canvas 0 0 450 300 \$0-out 0;
#X array \$0-out 64 float 1;
#A 0 0 0 0 0 0 0 0 0 0 0 0 0 0 0 0 1 1 1 1 1 1 1 1 1 1 1 1 1 1 1 1 1 1 1 1 1 1 1 1 1 1 1 1 1 1 1 1 1 1 1 1 1 1 1 1 1 1 1 1 1 1 1 1 1;
#X coords 0 2 63 -2 250 175 1 0 0;
#X restore 204 288 graph \$0-out;
#X text 12 72 Resampling tutti-frutti.;
#X obj 36 432 tabsend~ \$0-out;
#X text 24 24 resample (up more);
#X connect 3 0 6 0;
#X connect 4 0 5 0;
#X connect 6 0 9 0;
#X coords 0 0 1 1 250 175 0 0 0;
