#N canvas 586 108 507 636 12;
#X obj 12 12 cnv 15 275 45 empty empty empty 0 -7 0 10 #cccccc #000000;
#X obj -60 12 freeze;
#X text 24 24 notes;
#X floatatom 36 108 5 0 127 1 - - -;
#X f 5;
#X obj 36 144 mica;
#X obj 36 240 mica map Sharp;
#X obj 36 264 mica get;
#X obj 36 300 print;
#X floatatom 180 108 5 0 127 1 - - -;
#X f 5;
#X obj 180 144 mica;
#X obj 180 264 mica get;
#X obj 180 300 print;
#X obj 180 240 mica map Flat;
#X floatatom 312 108 5 0 127 1 - - -;
#X f 5;
#X obj 312 240 mica spell;
#X obj 312 300 print;
#X obj 312 264 mica get;
#X obj 396 144 mica;
#X obj 396 180 prepend set;
#X msg 396 108 C Minor;
#X text 12 72 MIDI key numbers to notes.;
#X floatatom 36 372 5 0 127 1 - - -;
#X f 5;
#X obj 96 456 mica;
#X obj 96 480 mica map Sharp;
#X obj 96 540 mica get;
#X obj 36 588 print;
#X obj 96 516 mica sequence;
#X obj 36 408 t f f;
#X text 12 336 Fetch the enharmonic notes.;
#X connect 3 0 4 0;
#X connect 4 0 5 0;
#X connect 5 0 6 0;
#X connect 6 0 7 0;
#X connect 8 0 9 0;
#X connect 9 0 12 0;
#X connect 10 0 11 0;
#X connect 12 0 10 0;
#X connect 13 0 14 0;
#X connect 14 0 16 0;
#X connect 16 0 15 0;
#X connect 17 0 18 0;
#X connect 18 0 14 0;
#X connect 19 0 17 0;
#X connect 21 0 27 0;
#X connect 22 0 23 0;
#X connect 23 0 26 0;
#X connect 24 0 25 0;
#X connect 26 0 24 0;
#X connect 27 0 22 0;
#X connect 27 1 25 0;
#X coords 0 0 1 1 250 175 0 0 0;
