#N canvas 311 85 466 659 12;
#X obj 12 12 cnv 15 250 45 empty empty empty 0 -7 0 10 #cccccc #000000;
#X obj -60 12 freeze;
#X text 24 24 notes;
#X text 12 72 MIDI key number to notes.;
#X floatatom 36 108 5 0 127 1 - - -;
#X f 5;
#X obj 36 144 mica;
#X obj 36 180 mica map Sharp;
#X obj 36 204 mica get;
#X obj 36 252 print;
#X floatatom 252 108 5 0 127 1 - - -;
#X f 5;
#X obj 252 144 mica;
#X obj 252 204 mica get;
#X obj 252 252 print;
#X obj 252 180 mica map Flat;
#X floatatom 36 336 5 0 127 1 - - -;
#X f 5;
#X obj 36 540 mica spell;
#X obj 36 612 print;
#X obj 36 564 mica get;
#X obj 84 444 mica;
#X obj 84 480 prepend set;
#X msg 84 408 C Major;
#X msg 84 384 C Minor;
#X text 12 300 Or get it automatically according to the key.;
#X connect 4 0 5 0;
#X connect 5 0 6 0;
#X connect 6 0 7 0;
#X connect 7 0 8 0;
#X connect 9 0 10 0;
#X connect 10 0 13 0;
#X connect 11 0 12 0;
#X connect 13 0 11 0;
#X connect 14 0 15 0;
#X connect 15 0 17 0;
#X connect 17 0 16 0;
#X connect 18 0 19 0;
#X connect 19 0 15 0;
#X connect 20 0 18 0;
#X connect 21 0 18 0;
#X coords 0 0 1 1 250 175 0 0 0;
