#N canvas 517 33 405 620 12;
#X obj 12 12 cnv 15 250 45 empty empty empty 0 -7 0 10 #cccccc #000000;
#X obj -60 12 freeze;
#X text 24 24 intervals;
#X floatatom 36 324 5 0 127 1 - - -;
#X f 5;
#X obj 36 360 mica spell;
#X obj 36 576 print;
#X obj 36 540 mica get;
#X obj 36 504 mica interval;
#X msg 192 432 set \$1;
#X obj 192 396 mica;
#X obj 192 324 loadbang;
#X msg 36 396 apply \$1;
#X text 12 72 Intervals in music.;
#X obj 36 168 mica sequence;
#X obj 36 144 mica;
#X msg 36 108 Intervals;
#X obj 36 192 mica get;
#X obj 36 240 print;
#X msg 192 360 Perfect Fifth;
#X text 12 288 Get the note at a given interval.;
#X connect 3 0 4 0;
#X connect 4 0 11 0;
#X connect 6 0 5 0;
#X connect 7 0 6 0;
#X connect 8 0 7 0;
#X connect 9 0 8 0;
#X connect 10 0 18 0;
#X connect 11 0 7 0;
#X connect 13 0 16 0;
#X connect 14 0 13 0;
#X connect 15 0 14 0;
#X connect 16 0 17 0;
#X connect 18 0 9 0;
#X coords 0 0 1 1 250 175 0 0 0;
