#N canvas 517 33 604 619 12;
#X obj 12 12 cnv 15 250 45 empty empty empty 0 -7 0 10 #cccccc #000000;
#X obj -60 12 freeze;
#X text 24 24 intervals;
#X obj 36 564 print;
#X obj 36 528 mica get;
#X msg 156 396 apply \$1;
#X text 12 72 Intervals in music.;
#X obj 36 168 mica sequence;
#X obj 36 144 mica;
#X msg 36 108 Intervals;
#X obj 36 192 mica get;
#X obj 36 240 print;
#X msg 36 324 60 65;
#X obj 36 360 mica spell;
#X obj 156 360 mica;
#X msg 156 324 C4;
#X obj 36 492 mica interval;
#X text 12 288 Intervals tutti-frutti.;
#X connect 4 0 3 0;
#X connect 5 0 16 0;
#X connect 7 0 10 0;
#X connect 8 0 7 0;
#X connect 9 0 8 0;
#X connect 10 0 11 0;
#X connect 12 0 13 0;
#X connect 13 0 16 0;
#X connect 14 0 5 0;
#X connect 15 0 14 0;
#X connect 16 0 4 0;
#X coords 0 0 1 1 250 175 0 0 0;
