#N canvas 517 107 619 615 12;
#X obj 12 12 cnv 15 250 45 empty empty empty 0 -7 0 10 #cccccc #000000;
#X obj -60 12 freeze;
#X text 24 24 intervals;
#X obj 36 564 print;
#X obj 36 516 mica get;
#X obj 36 168 mica sequence;
#X obj 36 144 mica;
#X msg 36 108 Intervals;
#X obj 36 192 mica get;
#X obj 36 240 print;
#X msg 36 324 60 65;
#X obj 36 360 mica spell;
#X obj 156 360 mica;
#X msg 156 324 C4;
#X obj 36 492 mica interval;
#X text 12 72 Intervals tutti-frutti.;
#X text 12 288 Handle intervals in music.;
#X obj 312 360 mica spell;
#X msg 312 324 72 79;
#X msg 156 396 apply \$1;
#X obj 312 396 prepend apply;
#X obj 312 564 print;
#X obj 312 516 mica get;
#X obj 312 492 mica interval Major Second;
#X obj 312 168 mica interval Minor Seventh;
#X obj 312 192 mica get;
#X obj 312 240 print;
#X msg 312 108 distance;
#X msg 312 132 direction;
#X connect 4 0 3 0;
#X connect 5 0 8 0;
#X connect 6 0 5 0;
#X connect 7 0 6 0;
#X connect 8 0 9 0;
#X connect 10 0 11 0;
#X connect 11 0 14 0;
#X connect 12 0 19 0;
#X connect 13 0 12 0;
#X connect 14 0 4 0;
#X connect 17 0 20 0;
#X connect 18 0 17 0;
#X connect 19 0 14 0;
#X connect 20 0 23 0;
#X connect 22 0 21 0;
#X connect 23 0 22 0;
#X connect 24 0 25 0;
#X connect 25 0 26 0;
#X connect 27 0 24 0;
#X connect 28 0 24 0;
#X coords 0 0 1 1 250 175 0 0 0;
