#N canvas 236 22 522 614 12;
#X obj 12 12 cnv 15 250 45 empty empty empty 0 -7 0 10 #cccccc #000000;
#X obj -60 12 freeze;
#X obj 36 204 mica sequence;
#X obj 36 180 mica;
#X obj 36 228 mica get;
#X obj 36 276 print;
#X text 24 24 clefs;
#X text 12 72 Clef on the staff lines.;
#X msg 36 108 Clefs;
#X msg 264 108 Bass Clef;
#X obj 264 180 mica;
#X obj 264 204 mica map Staff Position;
#X obj 264 228 mica get;
#X obj 264 276 print;
#X msg 264 132 Treble Clef;
#X msg 36 360 Treble Clef;
#X obj 36 444 mica;
#X obj 36 468 mica map Sharp;
#X obj 36 564 print;
#X obj 36 492 mica sequence;
#X obj 36 516 mica get;
#X obj 264 420 mica;
#X obj 264 444 mica map Sharp;
#X obj 264 516 mica get;
#X obj 264 564 print;
#X obj 264 468 mica map Diatonic Pitch;
#X obj 264 492 mica map Treble Clef;
#X msg 264 360 60 \, 67 \, 71;
#X text 12 324 Note that position is relative to the middle line.;
#X connect 2 0 4 0;
#X connect 3 0 2 0;
#X connect 4 0 5 0;
#X connect 8 0 3 0;
#X connect 9 0 10 0;
#X connect 10 0 11 0;
#X connect 11 0 12 0;
#X connect 12 0 13 0;
#X connect 14 0 10 0;
#X connect 15 0 16 0;
#X connect 16 0 17 0;
#X connect 17 0 19 0;
#X connect 19 0 20 0;
#X connect 20 0 18 0;
#X connect 21 0 22 0;
#X connect 22 0 25 0;
#X connect 23 0 24 0;
#X connect 25 0 26 0;
#X connect 26 0 23 0;
#X connect 27 0 21 0;
#X coords 0 0 1 1 250 175 0 0 0;
