#N canvas 582 71 481 545 12;
#X obj 12 12 cnv 15 250 45 empty empty empty 0 -7 0 10 #cccccc #000000;
#X obj -60 12 freeze;
#X obj 36 180 mica;
#X obj 36 228 mica get;
#X obj 36 276 print;
#X text 24 24 key;
#X msg 36 108 G Minor;
#X obj 36 204 mica map Key Signature;
#X text 12 72 Key signatures.;
#X obj 36 432 mica sequence;
#X obj 36 408 mica;
#X obj 36 456 mica get;
#X obj 36 492 print;
#X text 12 324 Get the accidentals of the key signature.;
#X obj 228 408 mica;
#X obj 228 456 mica get;
#X obj 228 492 print;
#X obj 228 432 mica map Accidental;
#X msg 36 132 A Flat Major;
#X msg 228 360 Two Flats;
#X msg 36 360 Four Flats;
#X connect 2 0 7 0;
#X connect 3 0 4 0;
#X connect 6 0 2 0;
#X connect 7 0 3 0;
#X connect 9 0 11 0;
#X connect 10 0 9 0;
#X connect 11 0 12 0;
#X connect 14 0 17 0;
#X connect 15 0 16 0;
#X connect 17 0 15 0;
#X connect 18 0 2 0;
#X connect 19 0 14 0;
#X connect 20 0 10 0;
#X coords 0 0 1 1 250 175 0 0 0;
