#N canvas 148 253 300 306 12;
#X obj 84 144 tgl 15 1 \$0-channel1 empty 1 4 -8 0 10 #ffffff #000000 #000000 1 1;
#X obj 108 144 tgl 15 1 \$0-channel2 empty 2 4 -8 0 10 #ffffff #000000 #000000 1 1;
#X obj 24 84 vradio 15 1 1 2 \$0-type empty empty 0 -6 0 10 #ffffff #000000 #000000 0;
#X obj 12 12 cnv 15 275 45 empty empty empty 0 -7 0 10 #cccccc #000000;
#X obj -60 12 freeze;
#X obj 24 168 vu 15 120 \$0-vu1 empty 17 7 0 10 #ffffff #000000 0 0;
#X obj 48 168 vu 15 120 \$0-vu2 empty 17 7 0 10 #ffffff #000000 0 0;
#N canvas 510 179 300 200 in 0;
#X obj 36 84 hip~ 5;
#X obj 120 84 hip~ 5;
#X obj 36 156 s \$0-vu1;
#X obj 120 156 s \$0-vu2;
#X obj 36 24 adc~;
#X obj 36 120 env~ 8192;
#X obj 120 120 env~ 8192;
#X connect 0 0 5 0;
#X connect 1 0 6 0;
#X connect 4 0 0 0;
#X connect 4 1 1 0;
#X connect 5 0 2 0;
#X connect 6 0 3 0;
#X coords 0 0 1 1 250 175 0 0 0;
#X restore 216 240 pd in;
#N canvas 831 286 424 355 out 0;
#X obj 36 180 *~;
#X obj 84 144 line~;
#X obj 84 120 pack 0 50;
#X obj 180 144 line~;
#X obj 180 120 pack 0 50;
#X obj 36 240 *~;
#X obj 300 144 line~;
#X f 6;
#X obj 300 120 pack 0 50;
#X obj 156 240 *~;
#X obj 36 312 dac~;
#X obj 300 60 r \$0-channel2;
#X obj 180 60 r \$0-channel1;
#X obj 84 60 r \$0-level;
#N canvas 742 224 377 344 generator 0;
#X obj 36 24 noise~;
#X obj 36 252 +~;
#X obj 276 108 line~;
#X obj 180 108 line~;
#X obj 132 216 *~;
#X obj 36 216 *~;
#X obj 36 300 outlet~;
#X obj 96 24 osc~ 440;
#X obj 180 60 == 0;
#X obj 276 60 == 1;
#X obj 180 84 pack 0 50;
#X obj 276 84 pack 0 50;
#X obj 180 24 r \$0-type;
#X obj 276 24 r \$0-type;
#X connect 0 0 5 0;
#X connect 1 0 6 0;
#X connect 2 0 4 1;
#X connect 3 0 5 1;
#X connect 4 0 1 1;
#X connect 5 0 1 0;
#X connect 7 0 4 0;
#X connect 8 0 10 0;
#X connect 9 0 11 0;
#X connect 10 0 3 0;
#X connect 11 0 2 0;
#X connect 12 0 8 0;
#X connect 13 0 9 0;
#X coords 0 0 1 1 250 175 0 0 0;
#X restore 36 24 pd generator;
#X obj 180 96 == 1;
#X obj 300 96 == 1;
#N canvas 749 442 300 142 vu 0;
#X obj 36 24 inlet~;
#X obj 120 24 inlet~;
#X obj 36 96 s \$0-vu3;
#X obj 120 96 s \$0-vu4;
#X obj 36 60 env~ 8192;
#X obj 120 60 env~ 8192;
#X connect 0 0 4 0;
#X connect 1 0 5 0;
#X connect 4 0 2 0;
#X connect 5 0 3 0;
#X coords 0 0 1 1 250 175 0 0 0;
#X restore 84 312 pd vu;
#X obj 84 96 dbtoamp;
#X connect 0 0 5 0;
#X connect 0 0 8 0;
#X connect 1 0 0 1;
#X connect 2 0 1 0;
#X connect 3 0 5 1;
#X connect 4 0 3 0;
#X connect 5 0 9 0;
#X connect 5 0 16 0;
#X connect 6 0 8 1;
#X connect 7 0 6 0;
#X connect 8 0 9 1;
#X connect 8 0 16 1;
#X connect 10 0 15 0;
#X connect 11 0 14 0;
#X connect 12 0 17 0;
#X connect 13 0 0 0;
#X connect 14 0 4 0;
#X connect 15 0 7 0;
#X connect 17 0 2 0;
#X coords 0 0 1 1 250 175 0 0 0;
#X restore 216 264 pd out;
#X obj 84 84 nbx 5 40 0 90 0 0 \$0-level empty empty 0 -7 0 10 #ffffff #000000 #000000 0 90;
#X obj 84 168 vu 15 120 \$0-vu3 empty 17 7 0 10 #ffffff #000000 0 0;
#X obj 108 168 vu 15 120 \$0-vu4 empty 17 7 0 10 #ffffff #000000 0 0;
#X text 24 24 audio;
#X coords 0 0 1 1 250 175 0 0 0;
