#N canvas 359 167 748 462 12;
#N canvas 0 22 450 300 \$0-caca 0;
#X array \$0-caca 10 float 1;
#A 0 0 0 -0.400003 0.371431 0.057143 -0.17143 -0.314288 -0.34286 -0.314288 0;
#X coords 0 1 9 -1 200 140 1 0 0;
#X restore 231 192 graph \$0-caca;
#X obj 102 242 hradio 15 1 0 8 empty empty empty 0 -7 0 10 #ffffff #9966ff #000000 1;
#X obj 119 83 vslider 15 128 0 127 0 0 \$0-caca empty \$0-toto 17 7 0 10 #ffffff #000000 #000000 4400 0;
#X obj 220 85 nbx 5 40 0 127 0 0 empty empty empty 0 -7 0 10 #ffffff #000000 #000000 44 127;
#X floatatom 176 142 5 0 0 1 #0-toto - -;
#X f 5;
#X obj 102 316 outlet;
#X obj 70 186 vu 15 120 empty empty 17 7 0 10 #ffffff #000000 0 0;
#X obj 130 271 r \$0-caca;
#X obj 96 83 vslider 15 128 0 127 0 0 empty empty empty 17 7 0 10 #ffffff #000000 #000000 4400 0;
#X symbolatom 301 85 10 0 0 1 - - -;
#X f 10;
#X obj 407 59 vradio 15 1 0 8 empty empty empty 17 7 0 10 #ffffff #000000 #000000 6;
#X text 214 63 comment;
#X obj 521 71 loadbang;
#X msg 327 132 44;
#X obj 63 107 bng 15 250 50 0 empty empty empty 17 7 0 10 #ffffff #000000 #000000;
#X obj 64 58 tgl 15 0 empty empty \$1-zizi 17 7 0 10 #ffffff #000000 #000000 0 1;
#X obj 115 174 cnv 15 100 60 empty empty empty 0 -7 0 10 #cccccc #000000;
#X floatatom 145 192 5 0 0 1 - - -;
#X f 5;
#X connect 1 0 5 0;
#X connect 1 0 6 0;
#X connect 3 0 4 0;
#X connect 4 0 2 0;
#X connect 4 0 5 0;
#X connect 4 0 17 0;
#X connect 6 0 4 0;
#X connect 7 0 8 0;
#X connect 9 0 5 0;
#X connect 10 0 6 1;
#X connect 12 0 13 0;
#X connect 13 0 3 0;
#X connect 14 0 4 0;
#X connect 15 0 14 0;
#X coords 0 0 1 1 400 300 1 50 50;
