#N canvas 383 85 749 544 12;
#X obj 30 476 print;
#X obj 460 79 toto 1 2 zizi;
#X f 19;
#X obj 75 361 loadbang;
#X msg 75 409 hello;
#X obj 459 41 bng 15 250 50 0 empty empty empty 17 7 0 10 #ffffff #000000 #000000;
#X obj 462 122 bng 15 250 50 0 empty empty empty 17 7 0 10 #ffffff #000000 #000000;
#X obj 590 122 bng 15 250 50 0 empty empty empty 17 7 0 10 #ffffff #000000 #000000;
#X obj 472 352 bng 15 250 50 0 empty empty empty 17 7 0 10 #ffffff #000000 #000000;
#X obj 642 356 bng 15 250 50 0 empty empty empty 17 7 0 10 #ffffff #000000 #000000;
#N canvas 0 22 450 300 array1 0;
#X array array1 10 float 3;
#A 0 0.300001 0.614286 0.128577 -0.0857064 -0.442845 -0.342847 0.157148 0.7 0.7 -0.11428;
#X coords 0 1 10 -1 200 140 1 0 0;
#X restore 188 361 graph array1;
#N canvas 179 199 771 455 caca 0;
#X obj 193 194 inlet;
#X obj 39 187 outlet;
#X obj 306 128 inlet;
#X obj 329 210 outlet;
#X obj 33 23 nbx 5 40 0 127 0 0 empty empty empty 0 -7 0 10 #ffffff #000000 #000000 0 127;
#X obj 23 83 hslider 128 15 0 127 0 0 empty empty empty 0 -7 0 10 #ffffff #000000 #000000 0 0;
#N canvas 0 22 639 334 toto 0;
#X array toto 10 float 3;
#A 0 0 0.399997 -0.157159 -0.257161 -0.171445 0.257137 0.771434 0.600002 0.357139 -0.0857222;
#X coords 0 1 10 -1 200 140 1 0 0;
#X restore 93 245 graph toto;
#X text 81 22 tralala;
#X connect 0 0 1 0;
#X connect 2 0 3 0;
#X connect 4 0 5 0;
#X connect 5 0 1 0;
#X connect 5 0 3 0;
#X coords 0 0 1 1 180 129 1 0 0;
#X restore 480 177 pd caca;
#X f 9;
#X text 433 399 If you send a list to an object with more than one inlet \, the items in the list are spread out over the inlets \, as seen in the 5+6 example above.;
#X f 29;
#X obj 30 29 jojo momo;
#X connect 1 0 5 0;
#X connect 2 0 3 0;
#X connect 3 0 0 0;
#X connect 4 0 1 0;
#X connect 5 0 10 0;
#X connect 6 0 10 1;
#X connect 10 0 7 0;
#X connect 10 1 8 0;
#X connect 12 0 0 0;
#X coords 0 0 1 1 200 140 0 0 0;
