#N canvas 261 207 741 361 12;
#X obj 152 80 inlet;
#X obj 134 227 outlet;
#X obj 256 87 inlet~;
#X obj 249 199 outlet~;
#X obj 409 73 loadbang;
#X obj 414 189 print;
#X msg 421 123 world;
#X connect 0 0 1 0;
#X connect 2 0 3 0;
#X connect 4 0 6 0;
#X connect 6 0 5 0;
#X coords 0 0 1 1 0 0 0 0 0;
