#N canvas 708 234 279 193 12;
#X obj 36 24 hradio 15 1 1 9 \$0-1 empty empty 0 -7 0 10 #ffffff #000000 #000000 8;
#X obj 36 48 hradio 15 1 1 9 \$0-2 empty empty 0 -7 0 10 #ffffff #000000 #000000 0;
#X obj 36 72 hradio 15 1 1 9 \$0-3 empty empty 0 -7 0 10 #ffffff #000000 #000000 8;
#N canvas 694 309 557 239 RGB 0;
#X obj 360 156 expr $f1*100+$f2*10+$f3;
#X obj 360 120 pak 0 0 0;
#X f 9;
#X obj 36 48 * 32;
#X obj 144 48 * 32;
#X obj 252 48 * 32;
#X obj 360 24 r \$0-1;
#X obj 360 48 r \$0-2;
#X obj 360 72 r \$0-3;
#X obj 36 24 r \$0-1;
#X obj 144 24 r \$0-2;
#X obj 252 24 r \$0-3;
#X obj 36 192 s \$0-R;
#X obj 144 192 s \$0-G;
#X obj 252 192 s \$0-B;
#X obj 36 72 min 255;
#X obj 144 72 min 255;
#X obj 252 72 min 255;
#X obj 360 192 s \$0-digits;
#X connect 0 0 17 0;
#X connect 1 0 0 0;
#X connect 2 0 14 0;
#X connect 3 0 15 0;
#X connect 4 0 16 0;
#X connect 5 0 1 0;
#X connect 6 0 1 1;
#X connect 7 0 1 2;
#X connect 8 0 2 0;
#X connect 9 0 3 0;
#X connect 10 0 4 0;
#X connect 14 0 11 0;
#X connect 15 0 12 0;
#X connect 16 0 13 0;
#X coords 0 0 1 1 250 175 0 0 0;
#X restore 36 144 pd RGB;
#X floatatom 36 108 5 0 0 1 - #0-digits -;
#X f 5;
#X floatatom 204 24 5 0 0 1 - #0-R -;
#X f 5;
#X floatatom 204 48 5 0 0 1 - #0-G -;
#X f 5;
#X floatatom 204 72 5 0 0 1 - #0-B -;
#X f 5;
#X coords 0 0 1 1 250 175 0 0 0;
