#N canvas 551 71 497 418 12;
#X obj 12 12 cnv 15 250 45 empty empty empty 0 -7 0 10 #cccccc #000000;
#X obj -60 12 freeze;
#X text 24 24 scalars;
#N canvas 437 268 822 400 template 0;
#X obj 36 300 filledpolygon q q 3 0 0 20 z 40 0;
#X f 33;
#X obj 36 60 struct widget float x float y float z float q;
#X obj 36 180 drawnumber z 50 -8 q;
#X text 12 108 This name must be unique but you can have as many painters (as below) that you want.;
#X f 85;
#X text 12 12 Define a template (named widget) \, with four numbers as fields (x \, y \, z and q).;
#X f 78;
#X text 12 228 In this case arguments q and z are variables referring to the fields of the instance to draw.;
#X f 93;
#X text 12 348 Notice that only the painters located in the template patch are considered while rendering.;
#X f 91;
#X obj 36 264 tgl 15 1 empty empty empty 17 7 0 10 #ffffff #000000 #000000 1 1;
#X obj 36 144 tgl 15 1 empty empty empty 17 7 0 10 #ffffff #000000 #000000 1 1;
#X connect 7 0 0 0;
#X connect 8 0 2 0;
#X coords 0 0 1 1 250 175 0 0 0;
#X restore 36 192 pd template;
#X obj 36 276 bng 15 250 50 0 empty empty empty 17 7 0 10 #ffffff #000000 #000000;
#N canvas 137 307 319 208 foo 1;
#X coords 0 0 1 1 250 175 0 0 0;
#X restore 36 108 pd foo;
#X text 12 72 An empty subpatch.;
#X text 12 156 Define a template (and appearance of its instances).;
#X f 53;
#X text 12 240 Create two instances of that template.;
#N canvas 556 256 507 365 init 0;
#X obj 36 24 inlet;
#X obj 36 60 t b b;
#X msg 108 96 \; pd-foo clear;
#X obj 300 252 pointer;
#X obj 36 144 t b b;
#X obj 36 312 append widget x y z q;
#X msg 36 252 50 100 30 0 \, 200 100 -30 800;
#X msg 300 216 traverse foo \, bang;
#X connect 0 0 1 0;
#X connect 1 0 4 0;
#X connect 1 1 2 0;
#X connect 3 0 5 4;
#X connect 4 0 6 0;
#X connect 4 1 7 0;
#X connect 6 0 5 0;
#X connect 7 0 3 0;
#X coords 0 0 1 1 250 175 0 0 0;
#X restore 36 312 pd init;
#X text 12 360 Play with them with the mouse (in run and edit mode).;
#X connect 4 0 9 0;
#X coords 0 0 1 1 250 175 0 0 0;
