#N canvas 698 45 493 409 12;
#X obj 36 240 pointer;
#X msg 60 192 next;
#X obj 12 12 cnv 15 250 45 empty empty empty 0 -7 0 10 #cccccc #000000;
#X obj -60 12 freeze;
#X text 24 24 get;
#N canvas 556 256 533 400 init 0;
#X obj 36 24 inlet;
#X obj 36 96 t b b;
#X obj 300 288 pointer;
#X obj 36 180 t b b;
#X msg 36 288 50 100 30 0 \, 200 100 -30 800;
#X msg 108 132 \; pd-\$0-data clear;
#X msg 300 252 traverse \$0-data \, bang;
#X obj 36 348 append \$0-widget x y z q;
#X obj 108 24 loadbang;
#X connect 0 0 1 0;
#X connect 1 0 3 0;
#X connect 1 1 5 0;
#X connect 2 0 7 4;
#X connect 3 0 4 0;
#X connect 3 1 6 0;
#X connect 4 0 7 0;
#X connect 6 0 2 0;
#X connect 8 0 1 0;
#X coords 0 0 1 1 250 175 0 0 0;
#X restore 336 312 pd init;
#N canvas 316 429 327 197 \$0-data 1;
#X coords 0 0 1 1 250 175 0 0 0;
#X restore 336 336 pd \$0-data;
#X obj 336 276 bng 15 250 50 0 empty empty empty 17 7 0 10 #ffffff #000000 #000000;
#N canvas 633 307 495 157 \$0-template 0;
#X obj 36 60 filledpolygon q q 3 0 0 20 z 40 0;
#X f 33;
#X obj 36 24 drawnumber z 50 -8 q;
#X obj 36 96 struct \$0-widget float x float y float z float q;
#X coords 0 0 1 1 250 175 0 0 0;
#X restore 336 360 pd \$0-template;
#X text 12 72 Fetch values of scalars by traversing them as a list.;
#X f 54;
#X obj 108 276 bng 15 250 50 0 empty empty empty 17 7 0 10 #ffffff #000000 #000000;
#X msg 36 144 traverse \$0-data;
#X obj 36 108 loadbang;
#X obj 36 324 get \$0-widget z;
#X floatatom 36 360 5 0 0 1 - - -;
#X f 5;
#X connect 0 0 13 0;
#X connect 0 1 10 0;
#X connect 1 0 0 0;
#X connect 7 0 5 0;
#X connect 11 0 0 0;
#X connect 12 0 11 0;
#X connect 13 0 14 0;
#X coords 0 0 1 1 250 175 0 0 0;
