#N canvas 794 233 512 572 12;
#X obj 36 204 pointer;
#X msg 60 144 next;
#X obj 12 12 cnv 15 250 45 empty empty empty 0 -7 0 10 #cccccc #000000;
#X obj -60 12 freeze;
#X text 24 24 set;
#N canvas 523 251 503 221 \$0-template 0;
#X obj 36 168 struct \$0-template float x float y float w float h;
#X obj 36 24 tgl 15 1 empty empty empty 17 7 0 10 #ffffff #000000 #000000 1 1;
#X obj 36 96 tgl 15 1 empty empty empty 17 7 0 10 #ffffff #000000 #000000 1 1;
#X obj 36 60 drawnumber x 0 -15;
#X obj 36 132 filledpolygon y 0 1 0 0 w 0 w h 0 h;
#X connect 1 0 3 0;
#X connect 2 0 4 0;
#X coords 0 0 1 1 250 175 0 0 0;
#X restore 360 516 pd \$0-template;
#N canvas 206 256 391 383 \$0-data 1;
#X coords 0 0 1 1 250 175 0 0 0;
#X restore 360 492 pd \$0-data;
#N canvas 413 126 397 355 init 0;
#X obj 156 264 pointer;
#X obj 108 24 loadbang;
#X obj 36 24 inlet;
#X obj 36 84 t b b;
#X msg 96 120 \; pd-\$0-data clear;
#X obj 36 180 t b b;
#X msg 156 228 traverse \$0-data \, bang;
#N canvas 431 371 501 326 rectangle 0;
#X obj 36 276 append \$0-template x y w h;
#X obj 36 24 inlet;
#X obj 120 24 inlet;
#X msg 204 108 300 300 75 75;
#X obj 204 144 vexpr floor(max(rand()*$f1 \, 5));
#X connect 1 0 3 0;
#X connect 2 0 0 4;
#X connect 3 0 4 0;
#X connect 4 0 0 0;
#X coords 0 0 1 1 250 175 0 0 0;
#X restore 36 300 pd rectangle;
#X obj 36 228 uzi 10;
#X connect 0 0 7 1;
#X connect 1 0 3 0;
#X connect 2 0 3 0;
#X connect 3 0 5 0;
#X connect 3 1 4 0;
#X connect 5 0 8 0;
#X connect 5 1 6 0;
#X connect 6 0 0 0;
#X connect 8 0 7 0;
#X coords 0 0 1 1 250 175 0 0 0;
#X restore 360 468 pd init;
#X obj 360 432 bng 15 250 50 0 empty empty empty 17 7 0 10 #ffffff #000000 #000000;
#X obj 96 276 send \$0-pointer;
#X obj 204 396 r \$0-pointer;
#X obj 204 480 r \$0-pointer;
#X floatatom 36 396 5 0 0 1 - - -;
#X f 5;
#X floatatom 36 480 5 0 0 1 - - -;
#X f 5;
#X msg 36 108 traverse \$0-data \, next;
#X text 12 72 Change value of a scalar's field.;
#X obj 36 312 get \$0-template x;
#X floatatom 36 348 5 0 0 1 - - -;
#X f 5;
#X obj 36 240 t p p;
#X obj 36 432 set \$0-template w;
#X obj 36 516 set \$0-template h;
#X connect 0 0 18 0;
#X connect 1 0 0 0;
#X connect 8 0 7 0;
#X connect 10 0 19 1;
#X connect 11 0 20 1;
#X connect 12 0 19 0;
#X connect 13 0 20 0;
#X connect 14 0 0 0;
#X connect 16 0 17 0;
#X connect 18 0 16 0;
#X connect 18 1 9 0;
#X coords 0 0 1 1 250 175 0 0 0;
