#N canvas 654 81 516 459 12;
#X obj 36 204 pointer;
#X msg 60 144 next;
#X obj 12 12 cnv 15 250 45 empty empty empty 0 -7 0 10 #cccccc #000000;
#X obj -60 12 freeze;
#X text 24 24 set;
#N canvas 523 251 503 221 \$0-template 0;
#X obj 36 168 struct \$0-template float x float y float w float h;
#X obj 36 24 tgl 15 1 empty empty empty 17 7 0 10 #ffffff #000000 #000000 1 1;
#X obj 36 96 tgl 15 1 empty empty empty 17 7 0 10 #ffffff #000000 #000000 1 1;
#X obj 36 60 drawnumber x 0 -15;
#X obj 36 132 filledpolygon y 0 1 0 0 w 0 w h 0 h;
#X connect 1 0 3 0;
#X connect 2 0 4 0;
#X coords 0 0 1 1 250 175 0 0 0;
#X restore 360 408 pd \$0-template;
#N canvas 206 211 391 383 \$0-data 1;
#X coords 0 0 1 1 250 175 0 0 0;
#X restore 360 384 pd \$0-data;
#N canvas 413 127 397 355 init 0;
#X obj 156 264 pointer;
#X obj 108 24 loadbang;
#X obj 36 24 inlet;
#X obj 36 84 t b b;
#X msg 96 120 \; pd-\$0-data clear;
#X obj 36 180 t b b;
#X msg 156 228 traverse \$0-data \, bang;
#N canvas 543 69 437 336 rectangle 0;
#X obj 36 60 t 4;
#X obj 36 288 append \$0-template x y w h;
#X obj 36 132 unpack 0 0 0 0;
#X obj 36 24 inlet;
#X obj 360 24 inlet;
#X obj 156 228 max 5;
#X obj 216 228 max 5;
#X obj 36 96 random 300;
#X obj 156 192 / 4;
#X obj 216 192 / 4;
#X connect 0 0 7 0;
#X connect 2 0 1 0;
#X connect 2 1 1 1;
#X connect 2 2 8 0;
#X connect 2 3 9 0;
#X connect 3 0 0 0;
#X connect 4 0 1 4;
#X connect 5 0 1 2;
#X connect 6 0 1 3;
#X connect 7 0 2 0;
#X connect 8 0 5 0;
#X connect 9 0 6 0;
#X coords 0 0 1 1 250 175 0 0 0;
#X restore 36 300 pd rectangle;
#X obj 36 228 uzi 10;
#X connect 0 0 7 1;
#X connect 1 0 3 0;
#X connect 2 0 3 0;
#X connect 3 0 5 0;
#X connect 3 1 4 0;
#X connect 5 0 8 0;
#X connect 5 1 6 0;
#X connect 6 0 0 0;
#X connect 8 0 7 0;
#X coords 0 0 1 1 250 175 0 0 0;
#X restore 360 360 pd init;
#X obj 360 324 bng 15 250 50 0 empty empty empty 17 7 0 10 #ffffff #000000 #000000;
#X obj 36 240 send \$0-pointer;
#X obj 192 288 r \$0-pointer;
#X obj 192 372 r \$0-pointer;
#X floatatom 36 288 5 0 0 1 - - -;
#X f 5;
#X floatatom 36 372 5 0 0 1 - - -;
#X f 5;
#X msg 36 108 traverse \$0-data \, next;
#X obj 36 408 set \$0-template w;
#X obj 36 324 set \$0-template y;
#X text 12 72 Change value of a scalar's field.;
#X connect 0 0 9 0;
#X connect 1 0 0 0;
#X connect 8 0 7 0;
#X connect 10 0 16 1;
#X connect 11 0 15 1;
#X connect 12 0 16 0;
#X connect 13 0 15 0;
#X connect 14 0 0 0;
#X coords 0 0 1 1 250 175 0 0 0;
