#N canvas 543 89 496 473 12;
#X obj 12 12 cnv 15 250 45 empty empty empty 0 -7 0 10 #cccccc #000000;
#X obj -60 12 freeze;
#X text 24 24 append;
#N canvas 575 279 444 118 \$0-template 0;
#X obj 36 60 struct \$0-template float x float y symbol z;
#X obj 36 24 drawsymbol z;
#X coords 0 0 1 1 250 175 0 0 0;
#X restore 336 420 pd \$0-template;
#N canvas 139 384 313 319 \$0-data 1;
#X coords 0 0 1 1 250 175 0 0 0;
#X restore 336 396 pd \$0-data;
#X obj 36 384 append \$0-template x y;
#X obj 228 348 pointer;
#X msg 228 312 traverse \$0-data \, bang;
#X obj 36 252 t 2 b;
#X f 5;
#X text 12 72 Add a scalar to a patch.;
#X obj 36 312 random 300;
#X msg 132 192 \; pd-\$0-data clear;
#X obj 36 108 bng 15 250 50 0 empty empty empty 17 7 0 10 #ffffff #000000 #000000;
#X obj 36 216 uzi 250;
#N canvas 291 181 293 297 alphabet 0;
#X obj 36 60 t b p;
#X obj 36 204 list tosymbol;
#X obj 36 132 random 26;
#X obj 36 168 + 65;
#X obj 36 240 set -symbol \$0-template z;
#X obj 36 24 inlet;
#X connect 0 0 2 0;
#X connect 0 1 4 1;
#X connect 1 0 4 0;
#X connect 2 0 3 0;
#X connect 3 0 1 0;
#X connect 5 0 0 0;
#X coords 0 0 1 1 250 175 0 0 0;
#X restore 36 420 pd alphabet;
#X obj 36 144 t b b;
#X f 5;
#X connect 5 0 14 0;
#X connect 6 0 5 2;
#X connect 7 0 6 0;
#X connect 8 0 10 0;
#X connect 8 1 7 0;
#X connect 10 0 5 0;
#X connect 12 0 15 0;
#X connect 13 0 8 0;
#X connect 15 0 13 0;
#X connect 15 1 11 0;
#X coords 0 0 1 1 250 175 0 0 0;
