#N canvas 814 156 444 366 12;
#X obj 36 216 pointer;
#X obj 12 12 cnv 15 275 45 empty empty empty 0 -7 0 10 #cccccc #000000;
#X obj -60 12 freeze;
#X text 24 24 array;
#N canvas 310 346 451 166 \$0-data 1;
#X coords 0 0 1 1 250 175 0 0 0;
#X restore 300 276 pd \$0-data;
#N canvas 756 493 459 149 \$0-template 0;
#X obj 36 96 struct \$0-template float x float y array a \$0-element;
#X f 54;
#X obj 36 60 plot a 777 1 10 15 50;
#X obj 36 24 tgl 15 1 empty empty empty 17 7 0 10 #ffffff #000000 #000000 1 1;
#X connect 2 0 1 0;
#X coords 0 0 1 1 250 175 0 0 0;
#X restore 300 324 pd \$0-template;
#N canvas 791 484 346 152 \$0-element 0;
#X obj 36 60 filledpolygon 0 0 0 -5 0 0 5 5 0 0 -5;
#X obj 36 96 struct \$0-element float y;
#X obj 36 24 tgl 15 1 empty empty empty 17 7 0 10 #ffffff #000000 #000000 1 1;
#X connect 2 0 0 0;
#X coords 0 0 1 1 250 175 0 0 0;
#X restore 300 300 pd \$0-element;
#N canvas 824 162 410 351 init 0;
#X obj 36 276 append \$0-template x y;
#X obj 216 240 pointer;
#X msg 216 216 traverse \$0-data \, bang;
#X obj 96 24 loadbang;
#X msg 96 120 \; pd-\$0-data clear;
#X obj 36 84 t b b;
#X obj 36 24 inlet;
#N canvas 593 308 334 169 a 0;
#N canvas 634 339 463 287 points 0;
#X obj 36 24 inlet;
#X obj 396 24 inlet;
#X obj 216 168 element \$0-template a;
#X obj 36 96 t b f;
#X f 5;
#X obj 36 60 uzi;
#X f 5;
#X obj 36 240 set \$0-element y;
#X f 18;
#X obj 36 168 expr rand()*100-50;
#X obj 36 204 int;
#X connect 0 0 4 0;
#X connect 1 0 2 1;
#X connect 2 0 5 1;
#X connect 3 0 6 0;
#X connect 3 1 2 0;
#X connect 4 2 3 0;
#X connect 6 0 7 0;
#X connect 7 0 5 0;
#X coords 0 0 1 1 250 175 0 0 0;
#X restore 36 120 pd points;
#X obj 144 120 setsize \$0-template a;
#X obj 36 24 inlet;
#X obj 36 72 t 8 p 8 p;
#X f 23;
#X connect 2 0 3 0;
#X connect 3 0 0 0;
#X connect 3 1 0 1;
#X connect 3 2 1 0;
#X connect 3 3 1 1;
#X coords 0 0 1 1 250 175 0 0 0;
#X restore 36 312 pd a;
#X obj 36 180 t 40 70 b;
#X f 22;
#X connect 0 0 7 0;
#X connect 1 0 0 2;
#X connect 2 0 1 0;
#X connect 3 0 5 0;
#X connect 5 0 8 0;
#X connect 5 1 4 0;
#X connect 6 0 5 0;
#X connect 8 0 0 0;
#X connect 8 1 0 1;
#X connect 8 2 2 0;
#X coords 0 0 1 1 250 175 0 0 0;
#X restore 300 252 pd init;
#X f 7;
#X obj 300 216 bng 15 250 50 0 empty empty empty 17 7 0 10 #ffffff #000000 #000000;
#X text 12 72 A scalar may contain an array of elements.;
#X obj 36 156 loadbang;
#X msg 36 180 traverse \$0-data \, next;
#N canvas 873 235 304 501 more 0;
#X obj 36 84 pointer;
#X msg 36 48 traverse \$0-data \, next;
#X obj 36 192 element \$0-template a;
#X floatatom 36 156 5 0 8 1 - - -;
#X f 5;
#X obj 36 312 get \$0-element y;
#X floatatom 36 348 5 0 0 1 - - -;
#X f 5;
#X text 12 12 You can fetch each element one by one.;
#X obj 36 456 set \$0-element y;
#X floatatom 36 420 5 0 0 1 - - -;
#X f 5;
#X obj 36 228 s \$0-element;
#X obj 36 276 r \$0-element;
#X obj 156 420 r \$0-element;
#X msg 36 384 set \$1;
#X connect 0 0 2 1;
#X connect 1 0 0 0;
#X connect 2 0 9 0;
#X connect 3 0 2 0;
#X connect 4 0 5 0;
#X connect 5 0 12 0;
#X connect 8 0 7 0;
#X connect 10 0 4 0;
#X connect 11 0 7 1;
#X connect 12 0 8 0;
#X coords 0 0 1 1 250 175 0 0 0;
#X restore 36 324 pd more;
#X obj 36 252 getsize \$0-template a;
#X floatatom 36 288 5 0 0 1 - - -;
#X f 5;
#X text 12 120 Nested arrays are prohibited.;
#X text 12 96 The type of those elements is also defined by a template.;
#X connect 0 0 13 0;
#X connect 8 0 7 0;
#X connect 10 0 11 0;
#X connect 11 0 0 0;
#X connect 13 0 14 0;
#X coords 0 0 1 1 250 175 0 0 0;
