#N canvas 729 173 301 280 12;
#X obj 12 12 cnv 15 275 45 empty empty empty 0 -7 0 10 #cccccc #000000;
#X text 24 24 selection;
#X obj -60 12 freeze;
#N canvas 684 228 503 257 \$0-template 0;
#X obj 36 24 tgl 15 1 empty empty empty 17 7 0 10 #ffffff #000000 #000000 1 1;
#X obj 36 96 tgl 15 1 empty empty empty 17 7 0 10 #ffffff #000000 #000000 1 1;
#X obj 36 168 struct \$0-template float x float y float w float h float q;
#X obj 36 132 filledpolygon q 0 1 0 0 w 0 w h 0 h;
#X obj 36 60 drawnumber q 0 -15;
#X obj 36 204 outlet;
#X connect 0 0 4 0;
#X connect 1 0 3 0;
#X connect 2 0 5 0;
#X coords 0 0 1 1 250 175 0 0 0;
#X restore 36 192 pd \$0-template;
#N canvas 356 242 361 348 \$0-data 1;
#X coords 0 0 1 1 250 175 0 0 0;
#X restore 36 168 pd \$0-data;
#N canvas 670 145 336 324 init 0;
#X obj 144 240 pointer;
#X obj 108 24 loadbang;
#X obj 36 24 inlet;
#X obj 36 84 t b b;
#X msg 108 120 \; pd-\$0-data clear;
#X obj 36 168 t b b;
#X msg 144 216 traverse \$0-data \, bang;
#N canvas 765 221 484 296 rectangle 0;
#X obj 36 24 inlet;
#X obj 108 24 inlet;
#X obj 36 252 append \$0-template x y w h q;
#X obj 228 180 random 888;
#X obj 36 60 t 4 b;
#X msg 228 120 300 300 75 75;
#X obj 228 144 vexpr floor(max(rand()*$f1 \, 5));
#X connect 0 0 4 0;
#X connect 1 0 2 5;
#X connect 3 0 2 4;
#X connect 4 0 5 0;
#X connect 4 1 3 0;
#X connect 5 0 6 0;
#X connect 6 0 2 0;
#X coords 0 0 1 1 250 175 0 0 0;
#X restore 36 276 pd rectangle;
#X obj 36 216 uzi 10;
#X connect 0 0 7 1;
#X connect 1 0 3 0;
#X connect 2 0 3 0;
#X connect 3 0 5 0;
#X connect 3 1 4 0;
#X connect 5 0 8 0;
#X connect 5 1 6 0;
#X connect 6 0 0 0;
#X connect 8 0 7 0;
#X coords 0 0 1 1 250 175 0 0 0;
#X restore 36 144 pd init;
#X obj 36 108 bng 15 250 50 0 empty empty empty 17 7 0 10 #ffffff #000000 #000000;
#X obj 36 228 print;
#X text 12 72 A template is bound to its instances.;
#X connect 3 0 7 0;
#X connect 6 0 5 0;
#X coords 0 0 1 1 250 175 0 0 0;
