#N canvas 731 267 435 289 12;
#X obj 12 12 cnv 15 250 45 empty empty empty 0 -7 0 10 #cccccc #000000;
#X text 24 24 selection;
#X obj -60 12 freeze;
#N canvas 723 252 568 262 \$0-template 0;
#X obj 36 24 tgl 15 1 empty empty empty 17 7 0 10 #ffffff #000000 #000000 1 1;
#X obj 36 96 tgl 15 1 empty empty empty 17 7 0 10 #ffffff #000000 #000000 1 1;
#X obj 36 168 struct \$0-template float x float y float w float h float q;
#X obj 36 132 filledpolygon q 0 1 0 0 w 0 w h 0 h;
#X obj 36 60 drawnumber q 0 -15;
#X obj 36 204 outlet;
#X connect 0 0 4 0;
#X connect 1 0 3 0;
#X connect 2 0 5 0;
#X coords 0 0 1 1 250 175 0 0 0;
#X restore 36 192 pd \$0-template;
#N canvas 219 392 361 348 \$0-data 1;
#X coords 0 0 1 1 250 175 0 0 0;
#X restore 36 168 pd \$0-data;
#N canvas 602 127 394 344 init 0;
#X obj 156 252 pointer;
#X obj 108 24 loadbang;
#X obj 36 24 inlet;
#X obj 36 84 t b b;
#X msg 96 120 \; pd-\$0-data clear;
#X obj 36 168 t b b;
#X msg 156 216 traverse \$0-data \, bang;
#N canvas 543 69 459 333 rectangle 0;
#X obj 36 144 unpack 0 0 0 0;
#X obj 36 24 inlet;
#X obj 360 24 inlet;
#X obj 144 228 max 5;
#X obj 204 228 max 5;
#X obj 36 108 random 300;
#X obj 144 192 / 4;
#X obj 204 192 / 4;
#X obj 36 276 append \$0-template x y w h q;
#X obj 336 192 random 888;
#X obj 36 60 t 4 b;
#X connect 0 0 8 0;
#X connect 0 1 8 1;
#X connect 0 2 6 0;
#X connect 0 3 7 0;
#X connect 1 0 10 0;
#X connect 2 0 8 5;
#X connect 3 0 8 2;
#X connect 4 0 8 3;
#X connect 5 0 0 0;
#X connect 6 0 3 0;
#X connect 7 0 4 0;
#X connect 9 0 8 4;
#X connect 10 0 5 0;
#X connect 10 1 9 0;
#X coords 0 0 1 1 250 175 0 0 0;
#X restore 36 288 pd rectangle;
#X obj 36 216 uzi 10;
#X connect 0 0 7 1;
#X connect 1 0 3 0;
#X connect 2 0 3 0;
#X connect 3 0 5 0;
#X connect 3 1 4 0;
#X connect 5 0 8 0;
#X connect 5 1 6 0;
#X connect 6 0 0 0;
#X connect 8 0 7 0;
#X coords 0 0 1 1 250 175 0 0 0;
#X restore 36 144 pd init;
#X obj 36 108 bng 15 250 50 0 empty empty empty 17 7 0 10 #ffffff #000000 #000000;
#X text 12 72 The template object is bound to its instances.;
#X obj 36 228 print;
#X connect 3 0 8 0;
#X connect 6 0 5 0;
#X coords 0 0 1 1 250 175 0 0 0;
