#N canvas 710 92 504 363 12;
#X obj 12 12 cnv 15 250 45 empty empty empty 0 -7 0 10 #cccccc #000000;
#X obj -60 12 freeze;
#X text 24 24 GOP;
#N canvas 575 279 504 119 \$0-template 0;
#X obj 36 60 struct \$0-template float x float y float z float q;
#X obj 36 24 drawnumber z 0 0 q;
#X coords 0 0 1 1 250 175 0 0 0;
#X restore 288 312 pd \$0-template;
#N canvas 141 383 311 319 \$0-data 0;
#X coords 0 0 1 1 225 225 1 0 0;
#X restore 36 108 pd \$0-data;
#X obj 288 252 bng 15 250 50 0 empty empty empty 17 7 0 10 #ffffff #000000 #000000;
#N canvas 634 120 528 415 init 0;
#X obj 300 276 pointer;
#X msg 300 240 traverse \$0-data \, bang;
#X msg 132 132 \; pd-\$0-data clear;
#X obj 36 84 t b b;
#X f 5;
#X obj 36 132 uzi 10;
#X obj 36 24 inlet;
#X obj 108 24 loadbang;
#X obj 36 240 random 200;
#X obj 36 264 random 100;
#X obj 36 288 random 888;
#X obj 36 360 append \$0-template x y z q;
#X obj 36 180 t 2 b b b;
#X f 12;
#X connect 0 0 10 4;
#X connect 1 0 0 0;
#X connect 3 0 4 0;
#X connect 3 1 2 0;
#X connect 4 0 11 0;
#X connect 5 0 3 0;
#X connect 6 0 3 0;
#X connect 7 0 10 0;
#X connect 8 0 10 2;
#X connect 9 0 10 3;
#X connect 11 0 7 0;
#X connect 11 1 8 0;
#X connect 11 2 9 0;
#X connect 11 3 1 0;
#X coords 0 0 1 1 250 175 0 0 0;
#X restore 288 288 pd init;
#X text 12 72 Works with graphed on parent patches.;
#N canvas 774 530 417 141 more 0;
#N canvas 75 103 522 391 fun 0;
#X obj 300 252 pointer;
#X obj 36 60 t b b;
#X f 5;
#X obj 36 240 random 100;
#X obj 36 336 append \$0-template x y z q;
#X msg 132 108 \; pd-08.gop clear;
#X msg 300 216 traverse 08.gop \, bang;
#X obj 36 24 inlet;
#X obj 36 216 random 500;
#X obj 36 108 uzi 250;
#X obj 36 156 t 2 b b b;
#X f 12;
#X obj 36 264 random 888;
#X connect 0 0 3 4;
#X connect 1 0 8 0;
#X connect 1 1 4 0;
#X connect 2 0 3 2;
#X connect 5 0 0 0;
#X connect 6 0 1 0;
#X connect 7 0 3 0;
#X connect 8 0 9 0;
#X connect 9 0 7 0;
#X connect 9 1 2 0;
#X connect 9 2 10 0;
#X connect 9 3 5 0;
#X connect 10 0 3 3;
#X coords 0 0 1 1 250 175 0 0 0;
#X restore 36 84 pd fun;
#X obj 36 48 bng 15 250 50 0 empty empty empty 17 7 0 10 #ffffff #000000 #000000;
#X text 12 12 Remark that it works in main patch also.;
#X connect 1 0 0 0;
#X coords 0 0 1 1 250 175 0 0 0;
#X restore 288 204 pd more;
#X connect 5 0 6 0;
#X coords 0 0 1 1 250 175 0 0 0;
